<svg width="489" height="487" viewBox="0 0 489 487" fill="none" xmlns="http://www.w3.org/2000/svg">
<path fill-rule="evenodd" clip-rule="evenodd" d="M472.683 109.513C472.187 110.085 472.33 110.996 472.974 111.394C488.671 121.116 487.699 150.959 465.163 163.266C464.304 163.735 464.312 165.04 465.164 165.522C485.535 177.044 477.119 208.676 454.313 213.115C453.683 213.237 453.249 213.857 453.344 214.491C454.386 221.384 453.942 227.439 452.297 232.696C481.172 374.946 471.131 430.853 465.966 459.608C464.268 469.062 463.098 475.582 464.01 481.27C449.003 387.724 419.2 308.799 395.229 259.968C389.675 259.632 384.062 258.843 378.555 257.622C377.76 257.446 377.031 258.151 377.096 258.963C379.955 294.389 294.073 303.449 273.441 284.982C272.978 284.568 272.289 284.566 271.825 284.979C249.927 304.502 207.989 304.085 190.847 287.691C190.467 287.328 189.892 287.257 189.436 287.52C163.268 302.604 134.109 299.454 119.64 280.057C119.377 279.704 118.927 279.525 118.494 279.6C88.1802 284.824 75.7225 278.493 63.4302 249.608C63.1956 249.057 62.5642 248.767 61.9896 248.937C34.4533 257.057 6.57523 222.22 17.9789 201.73C18.3446 201.073 18.0464 200.216 17.3572 199.915C-2.0602 191.433 2.06217 148.067 25.1178 138.658C26.0295 138.286 26.2313 136.947 25.5114 136.275C11.4622 123.162 22.4729 80.2696 42.206 80.7921C43.1302 80.8166 43.8951 79.8578 43.655 78.965C39.0251 61.7529 63.3125 27.1674 83.2919 38.5901C83.9476 38.965 84.8188 38.6864 85.1074 37.9884C93.7227 17.1509 131.944 8.57757 147.286 21.3326C147.813 21.7715 148.605 21.7091 149.044 21.1821C165.149 1.88397 216.577 0.457269 228.43 18.0452C228.866 18.6917 229.796 18.825 230.366 18.2929C248.692 1.17715 295.832 0.934435 305.962 15.579C306.365 16.162 307.179 16.3359 307.751 15.9175C331.828 -1.68083 370.077 3.12345 383.047 25.0154C383.413 25.6342 384.249 25.8007 384.827 25.3727C406.095 9.62478 444.239 24.0438 444.769 48.5235C444.783 49.1838 445.318 49.7286 445.978 49.7463C467.129 50.3103 494.956 83.7893 472.683 109.513Z" fill="white"/>
<path d="M472.974 111.394L475.511 107.298V107.298L472.974 111.394ZM472.683 109.513L476.326 112.667L476.326 112.667L472.683 109.513ZM465.163 163.266L467.473 167.495L467.473 167.495L465.163 163.266ZM465.164 165.522L462.792 169.716L462.792 169.716L465.164 165.522ZM454.313 213.115L455.234 217.845V217.845L454.313 213.115ZM453.344 214.491L458.109 213.771L453.344 214.491ZM452.297 232.696L447.699 231.257C447.456 232.033 447.413 232.857 447.575 233.654L452.297 232.696ZM465.966 459.608L470.709 460.46L465.966 459.608ZM459.252 482.033C459.674 484.661 462.146 486.449 464.773 486.027C467.401 485.606 469.189 483.134 468.768 480.506L459.252 482.033ZM395.229 259.968L399.555 257.845C398.791 256.289 397.251 255.263 395.52 255.159L395.229 259.968ZM378.555 257.622L377.512 262.326L378.555 257.622ZM377.096 258.963L381.899 258.575V258.575L377.096 258.963ZM273.441 284.982L270.227 288.573L270.228 288.573L273.441 284.982ZM271.825 284.979L275.032 288.576L275.032 288.576L271.825 284.979ZM190.847 287.691L187.516 291.174H187.516L190.847 287.691ZM189.436 287.52L191.842 291.694L191.842 291.694L189.436 287.52ZM119.64 280.057L123.502 277.176L123.502 277.175L119.64 280.057ZM118.494 279.6L117.676 274.851H117.676L118.494 279.6ZM63.4302 249.608L67.8641 247.721L67.8641 247.721L63.4302 249.608ZM61.9896 248.937L63.3525 253.559H63.3526L61.9896 248.937ZM17.9789 201.73L22.1894 204.074L22.1894 204.074L17.9789 201.73ZM17.3572 199.915L19.2862 195.5H19.2862L17.3572 199.915ZM25.1178 138.658L26.9386 143.119H26.9386L25.1178 138.658ZM25.5114 136.275L22.2234 139.798L22.2235 139.798L25.5114 136.275ZM42.206 80.7921L42.3335 75.9751H42.3335L42.206 80.7921ZM43.655 78.965L39.0017 80.2166L39.0017 80.2166L43.655 78.965ZM83.2919 38.5901L85.6835 34.4068L85.6835 34.4068L83.2919 38.5901ZM85.1074 37.9884L80.6543 36.1472L80.6543 36.1472L85.1074 37.9884ZM147.286 21.3326L144.205 25.038L144.205 25.038L147.286 21.3326ZM149.044 21.1821L152.744 24.2695L152.744 24.2695L149.044 21.1821ZM228.43 18.0452L224.434 20.7383V20.7383L228.43 18.0452ZM230.366 18.2929L227.077 14.7713V14.7713L230.366 18.2929ZM305.962 15.579L309.925 12.8378L309.925 12.8378L305.962 15.579ZM307.751 15.9175L310.595 19.8078V19.8078L307.751 15.9175ZM383.047 25.0154L387.193 22.5594L387.193 22.5593L383.047 25.0154ZM384.827 25.3727L381.96 21.5L381.96 21.5001L384.827 25.3727ZM444.769 48.5235L439.951 48.6276V48.6277L444.769 48.5235ZM445.978 49.7463L446.106 44.9293H446.106L445.978 49.7463ZM475.511 107.298C477.366 108.447 477.789 110.977 476.326 112.667L469.04 106.359C466.586 109.193 467.294 113.545 470.437 115.491L475.511 107.298ZM467.473 167.495C480.231 160.528 486.944 148.537 488.197 136.875C489.433 125.375 485.361 113.398 475.511 107.298L470.437 115.491C476.284 119.112 479.574 126.917 478.615 135.846C477.673 144.613 472.631 153.697 462.854 159.037L467.473 167.495ZM467.536 161.328C468.818 162.053 469.338 163.332 469.34 164.377C469.343 165.43 468.816 166.762 467.473 167.495L462.854 159.037C458.561 161.381 458.766 167.439 462.792 169.716L467.536 161.328ZM455.234 217.845C468.743 215.215 477.825 204.575 480.612 193.113C483.421 181.561 479.969 168.359 467.536 161.328L462.792 169.716C470.73 174.206 473.255 182.581 471.248 190.836C469.218 199.18 462.689 206.575 453.392 208.385L455.234 217.845ZM458.109 213.771C458.397 215.677 457.151 217.471 455.234 217.845L453.392 208.385C450.215 209.003 448.1 212.037 448.58 215.211L458.109 213.771ZM456.896 234.135C458.788 228.088 459.245 221.284 458.109 213.771L448.58 215.211C449.528 221.483 449.096 226.791 447.699 231.257L456.896 234.135ZM447.575 233.654C476.331 375.317 466.279 430.61 461.224 458.756L470.709 460.46C475.983 431.095 486.014 374.574 457.02 231.737L447.575 233.654ZM461.224 458.756C459.581 467.903 458.181 475.353 459.252 482.033L468.768 480.506C468.014 475.81 468.956 470.221 470.709 460.46L461.224 458.756ZM468.768 480.506C453.675 386.429 423.708 307.047 399.555 257.845L390.904 262.092C414.692 310.55 444.33 389.019 459.252 482.033L468.768 480.506ZM377.512 262.326C383.263 263.601 389.128 264.427 394.938 264.778L395.52 255.159C390.222 254.838 384.86 254.084 379.598 252.917L377.512 262.326ZM381.899 258.575C382.063 260.609 380.251 262.934 377.512 262.326L379.598 252.917C375.269 251.958 371.998 255.693 372.293 259.35L381.899 258.575ZM270.228 288.573C276.543 294.225 287.046 297.256 298.219 298.479C309.626 299.728 322.679 299.192 334.954 296.921C347.173 294.659 359.019 290.604 367.758 284.527C376.552 278.413 382.801 269.751 381.899 258.575L372.293 259.35C372.821 265.887 369.407 271.643 362.257 276.614C355.053 281.623 344.674 285.321 333.201 287.444C321.784 289.557 309.677 290.038 299.268 288.899C288.625 287.734 280.656 284.973 276.655 281.392L270.228 288.573ZM275.032 288.576C273.658 289.801 271.585 289.788 270.227 288.573L276.655 281.392C274.372 279.349 270.919 279.332 268.618 281.383L275.032 288.576ZM187.516 291.174C197.353 300.581 213.583 304.922 229.642 304.622C245.803 304.32 262.99 299.311 275.032 288.576L268.619 281.383C258.761 290.17 244.031 294.714 229.462 294.986C214.793 295.26 201.483 291.195 194.177 284.209L187.516 291.174ZM191.842 291.694C190.435 292.505 188.675 292.282 187.516 291.174L194.177 284.209C192.258 282.373 189.348 282.009 187.03 283.345L191.842 291.694ZM115.777 282.938C132.176 304.921 164.316 307.561 191.842 291.694L187.03 283.345C162.219 297.646 136.043 293.987 123.502 277.176L115.777 282.938ZM119.312 284.349C117.96 284.582 116.6 284.041 115.777 282.938L123.502 277.175C122.154 275.368 119.894 274.469 117.676 274.851L119.312 284.349ZM58.9963 251.495C65.2505 266.191 71.9837 276.293 81.9212 281.639C91.8468 286.978 103.915 287.002 119.312 284.349L117.676 274.851C102.759 277.422 93.4417 276.893 86.4869 273.151C79.544 269.416 73.9022 261.91 67.8641 247.721L58.9963 251.495ZM63.3526 253.559C61.6381 254.064 59.7429 253.249 58.9963 251.495L67.8641 247.721C66.6484 244.864 63.4902 243.47 60.6266 244.315L63.3526 253.559ZM13.7684 199.387C6.63003 212.213 12.157 228.281 21.7575 239.238C31.513 250.371 47.1871 258.326 63.3525 253.559L60.6266 244.315C49.2557 247.668 37.2227 242.264 29.006 232.887C20.6343 223.332 17.9241 211.737 22.1894 204.074L13.7684 199.387ZM15.4283 204.331C13.5646 203.517 12.723 201.265 13.7683 199.387L22.1894 204.074C23.9662 200.881 22.5282 196.916 19.2862 195.5L15.4283 204.331ZM23.297 134.197C9.47168 139.839 2.10906 155.119 0.522204 169.091C-0.287095 176.216 0.320035 183.503 2.61224 189.749C4.9092 196.007 9.04232 201.541 15.4283 204.331L19.2862 195.5C15.9634 194.048 13.3303 190.981 11.6595 186.428C9.98403 181.863 9.42197 176.131 10.098 170.178C11.4819 157.994 17.7083 146.886 26.9386 143.119L23.297 134.197ZM22.2235 139.798C21.2171 138.859 21.0343 137.655 21.1683 136.818C21.304 135.969 21.8942 134.769 23.297 134.197L26.9386 143.119C29.2532 142.175 30.4001 140.119 30.6847 138.34C30.9675 136.573 30.5256 134.364 28.7994 132.753L22.2235 139.798ZM42.3335 75.9751C35.4814 75.7937 29.821 79.4195 25.6506 84.2466C21.484 89.0693 18.4198 95.4822 16.552 102.114C14.6787 108.766 13.9164 115.964 14.6273 122.52C15.3293 128.994 17.5435 135.43 22.2234 139.798L28.7994 132.753C26.4547 130.564 24.7768 126.722 24.2086 121.481C23.6493 116.323 24.2388 110.372 25.8286 104.727C27.424 99.0616 29.9344 94.0297 32.9432 90.5472C35.9482 87.0691 39.064 85.5293 42.0784 85.6091L42.3335 75.9751ZM39.0017 80.2166C38.6623 78.9551 39.0803 77.8717 39.5945 77.2246C40.1075 76.5791 41.0529 75.9412 42.3335 75.9751L42.0784 85.6091C44.2832 85.6675 46.0732 84.5625 47.1397 83.2204C48.2074 81.8769 48.8878 79.8676 48.3083 77.7133L39.0017 80.2166ZM85.6835 34.4068C79.2367 30.721 72.4359 30.8263 66.3073 33.1547C60.3139 35.4317 54.9198 39.8218 50.5784 44.9127C46.2139 50.0307 42.6837 56.1227 40.5421 62.1832C38.4329 68.1519 37.493 74.6078 39.0017 80.2166L48.3083 77.7133C47.5021 74.7161 47.8619 70.3942 49.6288 65.3942C51.3632 60.486 54.2855 55.4182 57.9115 51.1662C61.5606 46.8871 65.6952 43.6968 69.7301 42.1638C73.63 40.6821 77.3573 40.7478 80.9002 42.7733L85.6835 34.4068ZM80.6543 36.1472C81.5236 34.0446 83.9291 33.4037 85.6835 34.4068L80.9002 42.7733C83.9661 44.5262 88.1139 43.3282 89.5605 39.8295L80.6543 36.1472ZM150.366 17.6273C140.966 9.81169 125.682 9.07751 112.5 12.3899C99.2387 15.7222 85.7927 23.7192 80.6543 36.1472L89.5605 39.8295C93.0374 31.4201 103.01 24.7116 114.849 21.7367C126.767 18.7418 138.264 20.0985 144.205 25.038L150.366 17.6273ZM145.345 18.0946C146.652 16.5286 148.903 16.4109 150.366 17.6273L144.205 25.038C146.724 27.132 150.558 26.8895 152.744 24.2695L145.345 18.0946ZM232.426 15.3522C228.58 9.64522 221.927 5.97919 214.685 3.7892C207.336 1.56711 198.749 0.666093 190.163 0.965607C181.567 1.26549 172.765 2.7759 164.968 5.53452C157.227 8.27365 150.12 12.3722 145.345 18.0947L152.744 24.2695C156.021 20.3429 161.382 17.0263 168.183 14.62C174.929 12.2331 182.744 10.8677 190.499 10.5971C198.265 10.3262 205.764 11.1601 211.895 13.0141C218.133 14.9001 222.354 17.6512 224.434 20.7383L232.426 15.3522ZM227.077 14.7713C228.809 13.1536 231.31 13.6968 232.426 15.3522L224.434 20.7383C226.421 23.6866 230.783 24.4964 233.655 21.8145L227.077 14.7713ZM309.925 12.8378C306.462 7.83221 300.342 4.67925 293.79 2.78822C287.087 0.853715 279.165 0.0147496 271.121 0.208526C255.283 0.590051 237.498 5.03806 227.077 14.7713L233.655 21.8145C241.559 14.432 256.508 10.2007 271.353 9.84313C278.651 9.66733 285.56 10.4438 291.117 12.0477C296.825 13.6951 300.396 16.0035 301.999 18.3202L309.925 12.8378ZM304.908 12.0273C306.722 10.7011 308.93 11.3992 309.925 12.8378L301.999 18.3202C303.8 20.9248 307.636 21.9706 310.595 19.8078L304.908 12.0273ZM387.193 22.5593C379.72 9.94553 365.321 2.7322 350.15 0.874623C334.914 -0.990833 318.066 2.40958 304.908 12.0273L310.595 19.8078C321.513 11.8271 335.828 8.8305 348.979 10.4406C362.193 12.0586 373.404 18.1934 378.901 27.4715L387.193 22.5593ZM381.96 21.5001C383.664 20.2384 386.095 20.706 387.193 22.5594L378.901 27.4715C380.732 30.5624 384.835 31.3629 387.695 29.2453L381.96 21.5001ZM449.586 48.4193C449.263 33.4681 437.564 22.4438 424.299 17.3628C410.955 12.252 394.265 12.3884 381.96 21.5L387.695 29.2453C396.657 22.6091 409.673 22.081 420.851 26.3626C432.108 30.6742 439.745 39.0992 439.951 48.6276L449.586 48.4193ZM446.106 44.9293C448.053 44.9812 449.546 46.547 449.586 48.4193L439.951 48.6277C440.02 51.8206 442.582 54.4761 445.849 54.5632L446.106 44.9293ZM476.326 112.667C489.127 97.8821 487.366 80.745 479.774 67.7621C472.396 55.1459 458.834 45.2687 446.106 44.9293L445.849 54.5632C454.272 54.7878 465.2 61.9321 471.455 72.6273C477.495 82.9559 478.511 95.42 469.04 106.359L476.326 112.667Z" fill="#1B0C0C"/>
</svg>
