<svg width="611" height="383" viewBox="0 0 611 383" fill="none" xmlns="http://www.w3.org/2000/svg">
<path fill-rule="evenodd" clip-rule="evenodd" d="M451.141 122.126C450.773 122.587 450.881 123.284 451.373 123.608C463.332 131.501 466.393 151.469 457.834 165.938C557.771 271.043 581.982 327.034 594.624 356.271C598.912 366.19 601.87 373.03 606.001 377.663C546.186 310.571 483.949 261.875 436.888 231.638C442.998 271.863 402.64 282.583 366.35 272.683C365.673 272.498 365.028 273.113 365.112 273.81C369.584 311.003 286.868 317.688 266.52 297.663C266.134 297.282 265.52 297.283 265.131 297.661C244.816 317.332 204.384 315.519 187.367 297.825C187.052 297.497 186.548 297.432 186.159 297.668C161.541 312.568 133.347 308.319 118.758 287.578C118.547 287.278 118.175 287.121 117.814 287.177C88.7845 291.667 76.5948 284.659 63.6834 254.035C63.4908 253.578 62.9676 253.337 62.4919 253.477C36.1945 261.22 7.89138 223.613 18.5512 202.721C18.816 202.202 18.5883 201.553 18.0609 201.306C-1.362 192.182 1.02799 146.309 23.2884 137.592C24.0302 137.301 24.2155 136.248 23.6326 135.705C8.99279 122.063 18.0844 76.6449 37.3824 78.1872C38.1629 78.2496 38.8313 77.4453 38.6015 76.6968C33.0916 58.7477 55.3905 22.9066 75.1528 35.72C75.7108 36.0818 76.4975 35.8302 76.7143 35.2015C84.1345 13.6798 120.777 5.96148 135.93 19.8803C136.373 20.2878 137.081 20.2261 137.442 19.744C152.178 0.0612599 201.924 0.292541 213.708 19.1966C214.061 19.7631 214.869 19.8634 215.335 19.3856C232.29 2.01306 278 3.34116 288.013 19.109C288.337 19.6187 289.038 19.757 289.513 19.3844C312.029 1.72726 349.161 8.02857 362.328 31.4037C362.629 31.9381 363.352 32.0718 363.831 31.6892C383.72 15.8169 421.209 32.2432 422.322 57.9232C422.345 58.444 422.761 58.8671 423.282 58.8929C443.687 59.9061 472.04 95.9959 451.141 122.126Z" fill="white"/>
<path d="M451.373 123.608L448.719 127.63L448.719 127.63L451.373 123.608ZM451.141 122.126L447.378 119.116L447.378 119.116L451.141 122.126ZM457.834 165.938L453.686 163.485C452.589 165.339 452.857 167.697 454.342 169.258L457.834 165.938ZM594.624 356.271L590.201 358.184L590.201 358.184L594.624 356.271ZM602.404 380.87C604.175 382.856 607.221 383.031 609.207 381.26C611.194 379.489 611.369 376.443 609.598 374.456L602.404 380.87ZM436.888 231.638L439.492 227.584C437.899 226.56 435.855 226.565 434.266 227.595C432.677 228.625 431.839 230.49 432.124 232.362L436.888 231.638ZM366.35 272.683L365.082 277.332L365.082 277.332L366.35 272.683ZM365.112 273.81L360.328 274.385L360.328 274.386L365.112 273.81ZM266.52 297.663L263.14 301.097L263.14 301.097L266.52 297.663ZM265.131 297.661L268.483 301.122L268.483 301.122L265.131 297.661ZM187.367 297.825L183.894 301.165L183.894 301.166L187.367 297.825ZM186.159 297.668L188.654 301.79L188.654 301.79L186.159 297.668ZM118.758 287.578L122.699 284.805L122.699 284.805L118.758 287.578ZM117.814 287.177L118.55 291.939L118.55 291.939L117.814 287.177ZM63.6834 254.035L59.2432 255.907L59.2432 255.907L63.6834 254.035ZM62.4919 253.477L61.1309 248.854L61.1308 248.854L62.4919 253.477ZM18.5512 202.721L14.2589 200.531L14.2589 200.531L18.5512 202.721ZM18.0609 201.306L16.0122 205.667L16.0123 205.667L18.0609 201.306ZM23.2884 137.592L25.0453 142.079L25.0454 142.079L23.2884 137.592ZM23.6326 135.705L20.3476 139.23L20.3477 139.23L23.6326 135.705ZM37.3824 78.1872L36.9985 82.9906L36.9985 82.9906L37.3824 78.1872ZM38.6015 76.6968L33.995 78.1109L33.995 78.1109L38.6015 76.6968ZM75.1528 35.72L72.5313 39.7632L72.5313 39.7632L75.1528 35.72ZM76.7143 35.2015L81.2698 36.7721L81.2698 36.7721L76.7143 35.2015ZM135.93 19.8803L132.67 23.4291L132.67 23.4291L135.93 19.8803ZM137.442 19.744L141.3 22.6319L141.3 22.6319L137.442 19.744ZM213.708 19.1966L217.797 16.6475L217.797 16.6475L213.708 19.1966ZM215.335 19.3856L218.784 22.7512L218.784 22.7511L215.335 19.3856ZM288.013 19.109L292.081 16.5258L292.081 16.5257L288.013 19.109ZM289.513 19.3844L292.487 23.1762L292.487 23.1762L289.513 19.3844ZM362.328 31.4037L358.13 33.7686L358.13 33.7686L362.328 31.4037ZM363.831 31.6892L360.826 27.9228L360.826 27.9229L363.831 31.6892ZM422.322 57.9232L417.508 58.1319L417.508 58.132L422.322 57.9232ZM423.282 58.8929L423.043 63.7057L423.043 63.7057L423.282 58.8929ZM454.028 119.587C455.914 120.832 456.297 123.395 454.904 125.136L447.378 119.116C445.249 121.778 445.848 125.735 448.719 127.63L454.028 119.587ZM461.981 168.391C466.869 160.129 468.407 150.383 467.061 141.579C465.721 132.812 461.42 124.466 454.027 119.587L448.719 127.63C453.285 130.643 456.494 136.228 457.534 143.035C458.569 149.805 457.358 157.277 453.686 163.485L461.981 168.391ZM454.342 169.258C553.865 273.928 577.77 329.435 590.201 358.184L599.047 354.359C586.193 324.633 561.678 268.158 461.326 162.618L454.342 169.258ZM590.201 358.184C594.363 367.81 597.635 375.52 602.404 380.87L609.598 374.456C606.105 370.539 603.462 364.57 599.047 354.359L590.201 358.184ZM609.598 374.456C549.461 307.004 486.88 258.032 439.492 227.584L434.283 235.692C481.017 265.719 542.91 314.138 602.404 380.87L609.598 374.456ZM365.082 277.332C383.917 282.47 404.331 282.431 419.557 275.324C427.251 271.732 433.725 266.274 437.793 258.692C441.866 251.102 443.305 241.8 441.652 230.914L432.124 232.362C433.525 241.589 432.211 248.711 429.301 254.135C426.387 259.567 421.648 263.712 415.481 266.591C402.982 272.425 385.074 272.796 367.619 268.034L365.082 277.332ZM369.896 273.235C370.053 274.543 369.523 275.709 368.717 276.453C367.891 277.218 366.544 277.731 365.082 277.332L367.619 268.034C363.265 266.846 359.883 270.689 360.328 274.385L369.896 273.235ZM263.14 301.097C269.315 307.173 279.528 310.718 290.412 312.378C301.49 314.067 314.113 313.934 325.924 311.945C337.671 309.966 349.052 306.077 357.333 299.908C365.767 293.627 371.273 284.686 369.896 273.235L360.328 274.386C361.187 281.531 358.03 287.373 351.577 292.179C344.971 297.099 335.239 300.603 324.323 302.441C313.471 304.269 301.879 304.377 291.865 302.85C281.656 301.294 273.9 298.164 269.9 294.228L263.14 301.097ZM268.483 301.122C267.017 302.542 264.641 302.574 263.14 301.097L269.9 294.228C267.626 291.99 264.024 292.024 261.778 294.199L268.483 301.122ZM183.894 301.166C193.574 311.23 209.351 316.355 224.945 316.573C240.595 316.791 257.158 312.088 268.483 301.122L261.779 294.199C252.788 302.905 238.979 307.13 225.08 306.936C211.125 306.742 198.178 302.114 190.841 294.485L183.894 301.166ZM188.654 301.79C187.123 302.717 185.146 302.467 183.894 301.165L190.841 294.485C188.957 292.527 185.974 292.147 183.664 293.545L188.654 301.79ZM114.817 290.35C131.147 313.566 162.317 317.73 188.654 301.79L183.664 293.545C160.764 307.405 135.548 303.072 122.699 284.805L114.817 290.35ZM118.55 291.939C117.112 292.162 115.666 291.558 114.817 290.35L122.699 284.805C121.428 282.999 119.239 282.08 117.077 282.415L118.55 291.939ZM59.2432 255.907C65.7782 271.407 72.5467 282.047 82.2088 287.896C91.983 293.813 103.708 294.235 118.55 291.939L117.077 282.415C102.89 284.609 94.0057 283.772 87.1999 279.652C80.282 275.464 74.5 267.287 68.1236 252.163L59.2432 255.907ZM63.8529 258.099C62.0289 258.636 60.024 257.759 59.2432 255.907L68.1236 252.163C66.9575 249.397 63.9062 248.037 61.1309 248.854L63.8529 258.099ZM14.2589 200.531C10.9212 207.073 10.7887 214.599 12.5434 221.709C14.3022 228.836 18.0265 235.887 22.932 241.887C32.5484 253.649 48.0362 262.757 63.8529 258.099L61.1308 248.854C50.6502 251.94 38.8378 246.116 30.3932 235.787C26.2683 230.742 23.2719 224.959 21.9001 219.4C20.5243 213.825 20.8513 208.816 22.8435 204.911L14.2589 200.531ZM16.0123 205.667C14.1152 204.776 13.2661 202.477 14.2589 200.531L22.8435 204.911C24.366 201.927 23.0614 198.331 20.1096 196.944L16.0123 205.667ZM21.5314 133.105C7.79051 138.486 1.23601 154.58 0.236305 168.962C-0.278579 176.37 0.597152 183.945 3.04519 190.429C5.48435 196.89 9.6635 202.685 16.0122 205.667L20.1096 196.944C16.7469 195.365 13.9412 192.004 12.0614 187.025C10.1905 182.07 9.41321 175.922 9.85051 169.63C10.7552 156.616 16.5258 145.415 25.0453 142.079L21.5314 133.105ZM20.3477 139.23C19.2616 138.218 19.0367 136.878 19.2148 135.889C19.3941 134.894 20.0925 133.668 21.5314 133.105L25.0454 142.079C27.2261 141.225 28.388 139.328 28.6997 137.597C29.0101 135.873 28.5865 133.734 26.9176 132.179L20.3477 139.23ZM37.7663 73.3838C30.7692 72.8246 25.1698 76.6251 21.2427 81.6312C17.3294 86.6195 14.6067 93.3129 13.0766 100.208C11.5385 107.14 11.1229 114.643 12.1237 121.447C13.111 128.16 15.5719 134.78 20.3476 139.23L26.9176 132.179C24.3734 129.809 22.4808 125.636 21.6585 120.045C20.8495 114.545 21.168 108.231 22.4851 102.296C23.8102 96.3244 26.0638 91.0997 28.8253 87.5796C31.5728 84.0772 34.3467 82.7787 36.9985 82.9906L37.7663 73.3838ZM33.995 78.1109C33.5585 76.6889 34.0365 75.43 34.6493 74.685C35.2577 73.9453 36.3545 73.271 37.7663 73.3838L36.9985 82.9906C39.1909 83.1658 41.0121 82.1205 42.0924 80.8071C43.177 79.4885 43.8744 77.4532 43.2081 75.2827L33.995 78.1109ZM77.7743 31.6768C71.424 27.5594 64.6896 27.3546 58.6007 29.695C52.7207 31.9551 47.5889 36.5024 43.5749 41.742C39.5302 47.0215 36.3671 53.3286 34.5759 59.5958C32.8059 65.789 32.246 72.4133 33.995 78.1109L43.2081 75.2827C42.2021 72.0057 42.3633 67.4189 43.8423 62.2441C45.3 57.1434 47.9137 51.9256 51.2253 47.6029C54.5675 43.2402 58.3715 40.108 62.0585 38.6907C65.5366 37.3538 69.0005 37.4739 72.5313 39.7632L77.7743 31.6768ZM72.1588 33.6308C73.013 31.1533 75.8358 30.4199 77.7743 31.6768L72.5313 39.7632C75.5858 41.7436 79.9821 40.5071 81.2698 36.7721L72.1588 33.6308ZM139.189 16.3316C129.96 7.85373 115.091 6.49012 102.296 9.56544C89.4431 12.6547 76.6109 20.7178 72.1588 33.6308L81.2698 36.7721C84.2379 28.1634 93.437 21.6066 104.548 18.936C115.718 16.2514 126.747 17.9881 132.67 23.4291L139.189 16.3316ZM133.585 16.8561C134.954 15.0272 137.558 14.8331 139.189 16.3316L132.67 23.4291C135.188 25.7424 139.208 25.4249 141.3 22.6319L133.585 16.8561ZM217.797 16.6475C214.067 10.6629 207.641 6.58227 200.533 4.00835C193.357 1.40952 184.999 0.160665 176.67 0.181558C168.336 0.202466 159.817 1.49526 152.31 4.15417C144.848 6.79674 138.029 10.9201 133.585 16.8561L141.3 22.6319C144.223 18.7265 149.148 15.4977 155.527 13.2387C161.859 10.9959 169.277 9.83753 176.694 9.81893C184.117 9.80031 191.325 10.9236 197.252 13.0698C203.247 15.2409 207.457 18.2782 209.619 21.7456L217.797 16.6475ZM211.887 16.02C213.678 14.1844 216.554 14.6535 217.797 16.6475L209.619 21.7456C211.568 24.8727 216.06 25.5423 218.784 22.7512L211.887 16.02ZM292.081 16.5257C288.747 11.2755 282.84 7.74351 276.399 5.5054C269.849 3.22967 262.131 2.07052 254.32 2.00114C238.984 1.86494 221.71 5.95482 211.887 16.02L218.784 22.7511C225.915 15.4438 239.973 11.5115 254.234 11.6382C261.222 11.7002 267.868 12.7438 273.235 14.6089C278.711 16.5116 282.273 19.0585 283.945 21.6922L292.081 16.5257ZM286.54 15.5926C288.425 14.114 290.958 14.758 292.081 16.5258L283.945 21.6922C285.715 24.4794 289.651 25.4001 292.487 23.1762L286.54 15.5926ZM366.526 29.0387C359.072 15.8053 345.056 7.72625 330.219 5.25378C315.361 2.77802 299.026 5.80075 286.54 15.5926L292.487 23.1762C302.516 15.3109 316.006 12.6557 328.634 14.7601C341.283 16.8678 352.417 23.6269 358.13 33.7686L366.526 29.0387ZM360.826 27.9229C362.62 26.4908 365.341 26.935 366.526 29.0387L358.13 33.7686C359.917 36.9412 364.084 37.6529 366.837 35.4555L360.826 27.9229ZM427.137 57.7146C426.475 42.456 415.124 30.6205 402.075 24.8207C389.033 19.0237 372.623 18.5077 360.826 27.9228L366.837 35.4556C374.928 28.9983 387.208 28.7593 398.161 33.6274C409.107 38.4927 417.057 47.7104 417.508 58.1319L427.137 57.7146ZM423.521 54.0802C425.511 54.179 427.053 55.7748 427.137 57.7145L417.508 58.132C417.638 61.1132 420.012 63.5552 423.043 63.7057L423.521 54.0802ZM454.904 125.136C466.97 110.05 464.545 92.2359 456.895 78.7172C453.062 71.945 447.823 66.0195 442.09 61.6829C436.412 57.3887 429.903 54.397 423.521 54.0802L423.043 63.7057C426.864 63.8954 431.551 65.795 436.276 69.3691C440.945 72.9008 445.313 77.8209 448.507 83.464C454.909 94.7761 456.211 108.072 447.378 119.116L454.904 125.136Z" fill="#1B0C0C"/>
</svg>
