<svg width="406" height="308" viewBox="0 0 406 308" fill="none" xmlns="http://www.w3.org/2000/svg">
<path fill-rule="evenodd" clip-rule="evenodd" d="M177.89 10.5893C177.89 1.39921 166.97 -3.41145 160.189 2.79128L3.43532 146.175C-1.15234 150.371 -1.14391 157.602 3.45352 161.787L160.207 304.501C166.994 310.68 177.89 305.865 177.89 296.686L177.89 252.852C177.89 246.163 184.026 241.157 190.579 242.499L393.199 284.001C399.752 285.343 405.888 280.337 405.888 273.648L405.888 38.6192C405.888 31.9083 399.714 26.8969 393.147 28.2769L190.632 70.8292C184.064 72.2091 177.89 67.1977 177.89 60.4868L177.89 10.5893Z" fill="#8DD3FA"/>
<circle cx="161" cy="21" r="8.84615" fill="white" stroke="white" stroke-width="2.30769"/>
<circle cx="127" cy="51" r="8.84615" fill="white" stroke="white" stroke-width="2.30769"/>
<circle cx="95" cy="81" r="8.84615" fill="white" stroke="white" stroke-width="2.30769"/>
<circle cx="63" cy="110" r="8.84615" fill="white" stroke="white" stroke-width="2.30769"/>
<circle cx="32" cy="140" r="8.84615" fill="white" stroke="white" stroke-width="2.30769"/>
<circle cx="30" cy="169" r="8.84615" fill="white" stroke="white" stroke-width="2.30769"/>
<circle cx="61" cy="198" r="8.84615" fill="white" stroke="white" stroke-width="2.30769"/>
<circle cx="95" cy="229" r="8.84615" fill="white" stroke="white" stroke-width="2.30769"/>
<circle cx="127" cy="258" r="8.84615" fill="white" stroke="white" stroke-width="2.30769"/>
<circle cx="161" cy="290" r="8.84615" fill="white" stroke="white" stroke-width="2.30769"/>
<circle cx="163" cy="248" r="8.84615" fill="white" stroke="white" stroke-width="2.30769"/>
<circle cx="195.527" cy="229.171" r="8.84615" transform="rotate(-1.26626 195.527 229.171)" fill="white" stroke="white" stroke-width="2.30769"/>
<circle cx="237.737" cy="238.24" r="8.84615" transform="rotate(-1.26626 237.737 238.24)" fill="white" stroke="white" stroke-width="2.30769"/>
<circle cx="281.948" cy="247.266" r="8.84615" transform="rotate(-1.26626 281.948 247.266)" fill="white" stroke="white" stroke-width="2.30769"/>
<circle cx="326.158" cy="256.291" r="8.84615" transform="rotate(-1.26626 326.158 256.291)" fill="white" stroke="white" stroke-width="2.30769"/>
<circle cx="366.219" cy="266.218" r="8.84615" transform="rotate(-1.26626 366.219 266.218)" fill="white" stroke="white" stroke-width="2.30769"/>
<circle cx="387.219" cy="245.218" r="8.84615" transform="rotate(-1.26626 387.219 245.218)" fill="white" stroke="white" stroke-width="2.30769"/>
<circle cx="387.219" cy="200.218" r="8.84615" transform="rotate(-1.26626 387.219 200.218)" fill="white" stroke="white" stroke-width="2.30769"/>
<circle cx="387.219" cy="154.218" r="8.84615" transform="rotate(-1.26626 387.219 154.218)" fill="white" stroke="white" stroke-width="2.30769"/>
<circle cx="387.219" cy="108.218" r="8.84615" transform="rotate(-1.26626 387.219 108.218)" fill="white" stroke="white" stroke-width="2.30769"/>
<circle cx="387.219" cy="71.218" r="8.84615" transform="rotate(-1.26626 387.219 71.218)" fill="white" stroke="white" stroke-width="2.30769"/>
<circle cx="367.219" cy="47.218" r="8.84615" transform="rotate(-1.26626 367.219 47.218)" fill="white" stroke="white" stroke-width="2.30769"/>
<circle cx="326.219" cy="55.218" r="8.84615" transform="rotate(-1.26626 326.219 55.218)" fill="white" stroke="white" stroke-width="2.30769"/>
<circle cx="280.219" cy="65.218" r="8.84615" transform="rotate(-1.26626 280.219 65.218)" fill="white" stroke="white" stroke-width="2.30769"/>
<circle cx="234.219" cy="75.218" r="8.84615" transform="rotate(-1.26626 234.219 75.218)" fill="white" stroke="white" stroke-width="2.30769"/>
<circle cx="188.219" cy="85.218" r="8.84615" transform="rotate(-1.26626 188.219 85.218)" fill="white" stroke="white" stroke-width="2.30769"/>
<circle cx="161.219" cy="65.218" r="8.84615" transform="rotate(-1.26626 161.219 65.218)" fill="white" stroke="white" stroke-width="2.30769"/>
</svg>
