<svg width="295" height="299" viewBox="0 0 295 299" fill="none" xmlns="http://www.w3.org/2000/svg">
<mask id="path-1-outside-1_459_553" maskUnits="userSpaceOnUse" x="-0.259766" y="-0.21875" width="295" height="299" fill="black">
<rect fill="white" x="-0.259766" y="-0.21875" width="295" height="299"/>
<path d="M52.0582 75.3038L23.6579 80.8468C22.4191 81.0886 21.7323 82.4251 22.2569 83.5731L33.1884 107.492C33.5846 108.359 33.2965 109.385 32.5071 109.919L8.66213 126.054C7.75171 126.67 7.52956 127.916 8.17102 128.809L24.386 151.375C24.863 152.038 24.8757 152.929 24.4177 153.606L8.07535 177.771C7.47852 178.654 7.69983 179.852 8.57254 180.463L29.5209 195.13C30.2281 195.626 30.5259 196.527 30.2529 197.346L21.9467 222.271C21.5686 223.405 22.2907 224.61 23.4695 224.811L52.0129 229.686C52.9503 229.846 53.6358 230.658 53.6358 231.609V256.475C53.6358 257.553 54.5094 258.426 55.5872 258.426H84.8539C85.5847 258.426 86.2541 258.835 86.5887 259.484L98.5984 282.803C99.0878 283.754 100.25 284.133 101.206 283.655L123.542 272.484C124.281 272.115 125.173 272.251 125.769 272.824L144.811 291.166C145.548 291.875 146.707 291.896 147.468 291.213L168.148 272.668C168.695 272.177 169.472 272.036 170.158 272.302L195.772 282.266C196.738 282.642 197.831 282.196 198.258 281.25L208.044 259.575C208.359 258.876 209.055 258.426 209.822 258.426H236.047C237.048 258.426 237.886 257.67 237.988 256.674L240.808 229.171C240.903 228.251 241.63 227.523 242.55 227.429L269.376 224.677C270.618 224.55 271.423 223.304 271.028 222.119L262.792 197.403C262.51 196.557 262.837 195.628 263.587 195.145L283.09 182.604C283.877 182.099 284.194 181.106 283.847 180.238L272.197 151.106C271.948 150.484 272.035 149.779 272.428 149.237L287.127 128.933C287.806 127.995 287.523 126.676 286.52 126.098L263.661 112.933C262.872 112.479 262.502 111.539 262.77 110.669L271.25 83.1018C271.556 82.1053 271.025 81.0438 270.044 80.6915L242.127 70.6672C241.42 70.4135 240.922 69.7767 240.845 69.0297L238.037 41.6427C237.916 40.4656 236.784 39.666 235.634 39.9457L210.141 46.1483C209.226 46.3709 208.283 45.9085 207.899 45.049L195.967 18.3704C195.509 17.348 194.287 16.9195 193.292 17.4325L170.408 29.2242C169.606 29.6375 168.625 29.447 168.036 28.7635L150.536 8.45872C149.839 7.65003 148.622 7.55154 147.804 8.23769L125.681 26.7977C125.124 27.2645 124.355 27.3836 123.683 27.1071L99.6141 17.1937C98.6537 16.7981 97.5518 17.2241 97.1073 18.1628L84.2011 45.4164C83.8784 46.098 83.1917 46.5325 82.4375 46.5325H55.5872C54.5094 46.5325 53.6358 47.4062 53.6358 48.4839V73.3886C53.6358 74.3222 52.9745 75.125 52.0582 75.3038Z"/>
</mask>
<path d="M52.0582 75.3038L23.6579 80.8468C22.4191 81.0886 21.7323 82.4251 22.2569 83.5731L33.1884 107.492C33.5846 108.359 33.2965 109.385 32.5071 109.919L8.66213 126.054C7.75171 126.67 7.52956 127.916 8.17102 128.809L24.386 151.375C24.863 152.038 24.8757 152.929 24.4177 153.606L8.07535 177.771C7.47852 178.654 7.69983 179.852 8.57254 180.463L29.5209 195.13C30.2281 195.626 30.5259 196.527 30.2529 197.346L21.9467 222.271C21.5686 223.405 22.2907 224.61 23.4695 224.811L52.0129 229.686C52.9503 229.846 53.6358 230.658 53.6358 231.609V256.475C53.6358 257.553 54.5094 258.426 55.5872 258.426H84.8539C85.5847 258.426 86.2541 258.835 86.5887 259.484L98.5984 282.803C99.0878 283.754 100.25 284.133 101.206 283.655L123.542 272.484C124.281 272.115 125.173 272.251 125.769 272.824L144.811 291.166C145.548 291.875 146.707 291.896 147.468 291.213L168.148 272.668C168.695 272.177 169.472 272.036 170.158 272.302L195.772 282.266C196.738 282.642 197.831 282.196 198.258 281.25L208.044 259.575C208.359 258.876 209.055 258.426 209.822 258.426H236.047C237.048 258.426 237.886 257.67 237.988 256.674L240.808 229.171C240.903 228.251 241.63 227.523 242.55 227.429L269.376 224.677C270.618 224.55 271.423 223.304 271.028 222.119L262.792 197.403C262.51 196.557 262.837 195.628 263.587 195.145L283.09 182.604C283.877 182.099 284.194 181.106 283.847 180.238L272.197 151.106C271.948 150.484 272.035 149.779 272.428 149.237L287.127 128.933C287.806 127.995 287.523 126.676 286.52 126.098L263.661 112.933C262.872 112.479 262.502 111.539 262.77 110.669L271.25 83.1018C271.556 82.1053 271.025 81.0438 270.044 80.6915L242.127 70.6672C241.42 70.4135 240.922 69.7767 240.845 69.0297L238.037 41.6427C237.916 40.4656 236.784 39.666 235.634 39.9457L210.141 46.1483C209.226 46.3709 208.283 45.9085 207.899 45.049L195.967 18.3704C195.509 17.348 194.287 16.9195 193.292 17.4325L170.408 29.2242C169.606 29.6375 168.625 29.447 168.036 28.7635L150.536 8.45872C149.839 7.65003 148.622 7.55154 147.804 8.23769L125.681 26.7977C125.124 27.2645 124.355 27.3836 123.683 27.1071L99.6141 17.1937C98.6537 16.7981 97.5518 17.2241 97.1073 18.1628L84.2011 45.4164C83.8784 46.098 83.1917 46.5325 82.4375 46.5325H55.5872C54.5094 46.5325 53.6358 47.4062 53.6358 48.4839V73.3886C53.6358 74.3222 52.9745 75.125 52.0582 75.3038Z" fill="white"/>
<path d="M23.6579 80.8468L24.9988 87.7172L24.9988 87.7171L23.6579 80.8468ZM52.0582 75.3038L50.7173 68.4334L50.7173 68.4334L52.0582 75.3038ZM84.2011 45.4164L77.8747 42.4204L77.8747 42.4204L84.2011 45.4164ZM97.1073 18.1628L103.434 21.1588L103.434 21.1588L97.1073 18.1628ZM99.6141 17.1937L96.9482 23.6662L96.9482 23.6662L99.6141 17.1937ZM123.683 27.1071L121.017 33.5796L121.017 33.5796L123.683 27.1071ZM125.681 26.7977L121.182 21.435L121.182 21.435L125.681 26.7977ZM147.804 8.23769L152.303 13.6005L152.303 13.6005L147.804 8.23769ZM150.536 8.45872L145.234 13.0286L145.234 13.0286L150.536 8.45872ZM168.036 28.7635L173.338 24.1937L173.338 24.1936L168.036 28.7635ZM170.408 29.2242L173.614 35.4467L173.614 35.4467L170.408 29.2242ZM193.292 17.4325L190.085 11.21L190.085 11.21L193.292 17.4325ZM195.967 18.3704L202.357 15.5125L202.357 15.5125L195.967 18.3704ZM207.899 45.049L214.289 42.1911L214.289 42.191L207.899 45.049ZM210.141 46.1483L208.486 39.3468L208.486 39.3468L210.141 46.1483ZM235.634 39.9457L237.289 46.7473L237.289 46.7473L235.634 39.9457ZM238.037 41.6427L231.073 42.3567L231.073 42.3567L238.037 41.6427ZM240.845 69.0297L247.809 68.3158L247.809 68.3157L240.845 69.0297ZM242.127 70.6672L244.492 64.0791L244.492 64.0791L242.127 70.6672ZM270.044 80.6915L272.41 74.1033L272.41 74.1033L270.044 80.6915ZM271.25 83.1018L277.94 85.1599L277.94 85.1598L271.25 83.1018ZM262.77 110.669L269.461 112.727L269.461 112.727L262.77 110.669ZM263.661 112.933L267.155 106.867L267.155 106.867L263.661 112.933ZM286.52 126.098L283.027 132.164L283.027 132.164L286.52 126.098ZM287.127 128.933L292.797 133.038L292.797 133.038L287.127 128.933ZM272.428 149.237L266.758 145.132L266.758 145.132L272.428 149.237ZM272.197 151.106L278.696 148.507L278.696 148.506L272.197 151.106ZM283.847 180.238L290.346 177.639L290.346 177.639L283.847 180.238ZM283.09 182.604L286.876 188.492L286.876 188.492L283.09 182.604ZM263.587 195.145L267.373 201.033L267.373 201.033L263.587 195.145ZM262.792 197.403L256.151 199.617L256.151 199.617L262.792 197.403ZM271.028 222.119L277.669 219.906L277.669 219.906L271.028 222.119ZM269.376 224.677L270.09 231.64L270.09 231.64L269.376 224.677ZM242.55 227.429L241.836 220.466L241.836 220.466L242.55 227.429ZM240.808 229.171L233.845 228.457L233.845 228.457L240.808 229.171ZM237.988 256.674L231.025 255.96L231.025 255.96L237.988 256.674ZM208.044 259.575L201.664 256.694L201.664 256.694L208.044 259.575ZM198.258 281.25L204.637 284.131L204.637 284.131L198.258 281.25ZM195.772 282.266L198.309 275.742L198.309 275.742L195.772 282.266ZM170.158 272.302L167.62 278.826L167.62 278.826L170.158 272.302ZM168.148 272.668L163.474 267.457L163.474 267.457L168.148 272.668ZM147.468 291.213L152.141 296.425L152.141 296.425L147.468 291.213ZM144.811 291.166L149.667 286.125L149.667 286.125L144.811 291.166ZM125.769 272.824L120.913 277.866L120.913 277.866L125.769 272.824ZM123.542 272.484L120.411 266.224L120.411 266.224L123.542 272.484ZM101.206 283.655L98.0749 277.395L98.0748 277.395L101.206 283.655ZM98.5984 282.803L104.822 279.598L104.822 279.598L98.5984 282.803ZM86.5887 259.484L92.8119 256.279L92.8119 256.279L86.5887 259.484ZM52.0129 229.686L50.8346 236.586L50.8346 236.586L52.0129 229.686ZM23.4695 224.811L24.6479 217.911L24.6479 217.911L23.4695 224.811ZM21.9467 222.271L28.5877 224.484L28.5877 224.484L21.9467 222.271ZM30.2529 197.346L23.6119 195.133L23.6119 195.133L30.2529 197.346ZM29.5209 195.13L33.5358 189.396L33.5358 189.396L29.5209 195.13ZM8.57254 180.463L4.55754 186.197L4.55759 186.197L8.57254 180.463ZM8.07535 177.771L2.27689 173.85L2.27688 173.85L8.07535 177.771ZM24.4177 153.606L18.6193 149.685L18.6193 149.685L24.4177 153.606ZM24.386 151.375L30.0706 147.29L30.0706 147.29L24.386 151.375ZM8.17102 128.809L13.8556 124.724L13.8556 124.724L8.17102 128.809ZM8.66213 126.054L12.585 131.851L12.585 131.851L8.66213 126.054ZM32.5071 109.919L36.43 115.717L36.43 115.717L32.5071 109.919ZM33.1884 107.492L39.555 104.582L39.555 104.582L33.1884 107.492ZM22.2569 83.5731L28.6235 80.6634L28.6235 80.6634L22.2569 83.5731ZM24.9988 87.7171L53.3991 82.1742L50.7173 68.4334L22.317 73.9764L24.9988 87.7171ZM60.6358 73.3886V48.4839H46.6358V73.3886H60.6358ZM55.5872 53.5325H82.4375V39.5325H55.5872V53.5325ZM90.5276 48.4123L103.434 21.1588L90.7809 15.1668L77.8747 42.4204L90.5276 48.4123ZM96.9482 23.6662L121.017 33.5796L126.349 20.6346L102.28 10.7212L96.9482 23.6662ZM130.179 32.1605L152.303 13.6005L143.305 2.87493L121.182 21.435L130.179 32.1605ZM145.234 13.0286L162.733 33.3334L173.338 24.1936L155.839 3.88883L145.234 13.0286ZM173.614 35.4467L196.498 23.655L190.085 11.21L167.201 23.0017L173.614 35.4467ZM189.577 21.2284L201.509 47.9069L214.289 42.191L202.357 15.5125L189.577 21.2284ZM211.796 52.9499L237.289 46.7473L233.979 33.1441L208.486 39.3468L211.796 52.9499ZM231.073 42.3567L233.882 69.7437L247.809 68.3157L245 40.9287L231.073 42.3567ZM239.761 77.2554L267.679 87.2797L272.41 74.1033L244.492 64.0791L239.761 77.2554ZM264.559 81.0437L256.079 108.61L269.461 112.727L277.94 85.1599L264.559 81.0437ZM260.168 118.999L283.027 132.164L290.013 120.032L267.155 106.867L260.168 118.999ZM281.457 124.828L266.758 145.132L278.098 153.342L292.797 133.038L281.457 124.828ZM265.697 153.705L277.347 182.838L290.346 177.639L278.696 148.507L265.697 153.705ZM279.304 176.717L259.801 189.257L267.373 201.033L286.876 188.492L279.304 176.717ZM256.151 199.617L264.387 224.332L277.669 219.906L269.433 195.19L256.151 199.617ZM268.661 217.714L241.836 220.466L243.265 234.392L270.09 231.64L268.661 217.714ZM233.845 228.457L231.025 255.96L244.952 257.388L247.772 229.885L233.845 228.457ZM236.047 251.426H209.822V265.426H236.047V251.426ZM201.664 256.694L191.878 278.37L204.637 284.131L214.424 262.455L201.664 256.694ZM198.309 275.742L172.695 265.778L167.62 278.826L193.234 288.79L198.309 275.742ZM163.474 267.457L142.794 286.002L152.141 296.425L172.821 277.879L163.474 267.457ZM149.667 286.125L130.625 267.783L120.913 277.866L139.955 296.208L149.667 286.125ZM120.411 266.224L98.0749 277.395L104.337 289.916L126.673 278.745L120.411 266.224ZM104.822 279.598L92.8119 256.279L80.3656 262.689L92.3753 286.008L104.822 279.598ZM84.8539 251.426H55.5872V265.426H84.8539V251.426ZM60.6358 256.475V231.609H46.6358V256.475H60.6358ZM53.1913 222.786L24.6479 217.911L22.2911 231.711L50.8346 236.586L53.1913 222.786ZM28.5877 224.484L36.8939 199.559L23.6119 195.133L15.3058 220.058L28.5877 224.484ZM33.5358 189.396L12.5875 174.729L4.55759 186.197L25.5059 200.865L33.5358 189.396ZM13.8738 181.693L30.2162 157.528L18.6193 149.685L2.27689 173.85L13.8738 181.693ZM30.0706 147.29L13.8556 124.724L2.4864 132.893L18.7014 155.459L30.0706 147.29ZM12.585 131.851L36.43 115.717L28.5843 104.122L4.73926 120.256L12.585 131.851ZM39.555 104.582L28.6235 80.6634L15.8903 86.4828L26.8218 110.402L39.555 104.582ZM36.43 115.717C40.0511 113.266 41.3724 108.559 39.555 104.582L26.8218 110.402C25.7967 108.159 26.5419 105.504 28.5843 104.122L36.43 115.717ZM13.8556 124.724C15.5152 127.034 14.9405 130.258 12.585 131.851L4.73928 120.256C0.562948 123.082 -0.45611 128.798 2.48641 132.893L13.8556 124.724ZM30.2162 157.528C32.317 154.422 32.2588 150.335 30.0706 147.29L18.7014 155.459C17.4672 153.742 17.4344 151.437 18.6193 149.685L30.2162 157.528ZM12.5875 174.729C14.8454 176.31 15.418 179.409 13.8738 181.693L2.27688 173.85C-0.460921 177.898 0.554283 183.394 4.55754 186.197L12.5875 174.729ZM36.8938 199.559C38.146 195.802 36.7801 191.668 33.5358 189.396L25.5059 200.865C23.6761 199.583 22.9057 197.252 23.6119 195.133L36.8938 199.559ZM24.6479 217.911C27.6977 218.432 29.5659 221.549 28.5877 224.484L15.3058 220.058C13.5714 225.262 16.8837 230.788 22.2911 231.711L24.6479 217.911ZM60.6358 231.609C60.6358 227.247 57.4913 223.52 53.1913 222.786L50.8346 236.586C48.4093 236.172 46.6358 234.07 46.6358 231.609H60.6358ZM55.5872 251.426C58.3754 251.426 60.6358 253.687 60.6358 256.475H46.6358C46.6358 261.419 50.6435 265.426 55.5872 265.426V251.426ZM92.8119 256.279C91.2771 253.299 88.206 251.426 84.8539 251.426V265.426C82.9633 265.426 81.2312 264.37 80.3656 262.689L92.8119 256.279ZM98.0748 277.395C100.548 276.158 103.556 277.14 104.822 279.598L92.3753 286.008C94.6198 290.367 99.9526 292.109 104.337 289.916L98.0748 277.395ZM130.625 267.783C127.894 265.152 123.802 264.528 120.411 266.224L126.673 278.745C124.761 279.702 122.453 279.349 120.913 277.866L130.625 267.783ZM142.794 286.002C144.763 284.236 147.762 284.289 149.667 286.125L139.955 296.208C143.333 299.461 148.65 299.556 152.141 296.425L142.794 286.002ZM172.696 265.778C169.551 264.555 165.986 265.204 163.474 267.457L172.821 277.879C171.404 279.15 169.393 279.516 167.62 278.826L172.696 265.778ZM191.878 278.37C192.982 275.923 195.808 274.769 198.309 275.742L193.234 288.789C197.669 290.515 202.679 288.468 204.637 284.131L191.878 278.37ZM209.822 251.426C206.304 251.426 203.112 253.488 201.664 256.694L214.424 262.455C213.607 264.264 211.807 265.426 209.822 265.426V251.426ZM231.025 255.96C231.289 253.385 233.458 251.426 236.047 251.426V265.426C240.637 265.426 244.484 261.954 244.952 257.388L231.025 255.96ZM241.836 220.466C237.615 220.899 234.278 224.236 233.845 228.457L247.772 229.885C247.528 232.266 245.646 234.148 243.265 234.392L241.836 220.466ZM264.387 224.332C263.365 221.266 265.447 218.043 268.661 217.714L270.09 231.64C275.79 231.056 279.48 225.341 277.669 219.906L264.387 224.332ZM259.801 189.257C256.36 191.47 254.857 195.735 256.151 199.617L269.433 195.19C270.162 197.38 269.314 199.785 267.373 201.033L259.801 189.257ZM277.347 182.838C276.449 180.592 277.27 178.025 279.304 176.717L286.876 188.492C290.483 186.173 291.939 181.621 290.346 177.639L277.347 182.838ZM266.758 145.132C264.958 147.619 264.557 150.854 265.697 153.705L278.696 148.506C279.339 150.114 279.113 151.939 278.098 153.342L266.758 145.132ZM283.027 132.164C280.43 130.669 279.7 127.255 281.457 124.828L292.797 133.038C295.912 128.735 294.616 122.683 290.013 120.032L283.027 132.164ZM256.079 108.61C254.851 112.603 256.548 116.915 260.168 118.999L267.155 106.867C269.196 108.043 270.153 110.475 269.461 112.727L256.079 108.61ZM267.679 87.2797C265.14 86.368 263.766 83.6218 264.559 81.0438L277.94 85.1598C279.346 80.5887 276.911 75.7196 272.41 74.1033L267.679 87.2797ZM233.882 69.7437C234.233 73.1703 236.519 76.0913 239.761 77.2554L244.492 64.0791C246.321 64.7356 247.61 66.3831 247.809 68.3158L233.882 69.7437ZM237.289 46.7473C234.315 47.471 231.386 45.4022 231.073 42.3567L245 40.9288C244.447 35.5291 239.253 31.8609 233.979 33.1441L237.289 46.7473ZM201.509 47.9069C203.272 51.8497 207.6 53.971 211.796 52.9499L208.486 39.3468C210.853 38.7709 213.294 39.9673 214.289 42.1911L201.509 47.9069ZM196.498 23.655C193.922 24.9823 190.76 23.8736 189.577 21.2284L202.357 15.5125C200.259 10.8223 194.652 8.85657 190.085 11.21L196.498 23.655ZM162.733 33.3334C165.436 36.4688 169.935 37.3426 173.614 35.4467L167.201 23.0017C169.277 21.9324 171.814 22.4253 173.338 24.1937L162.733 33.3334ZM152.303 13.6005C150.187 15.3757 147.037 15.1209 145.234 13.0286L155.839 3.88884C152.642 0.179161 147.057 -0.2726 143.305 2.87493L152.303 13.6005ZM121.017 33.5796C124.098 34.8482 127.627 34.3015 130.18 32.1605L121.182 21.435C122.621 20.2274 124.612 19.9191 126.349 20.6346L121.017 33.5796ZM103.434 21.1588C102.284 23.5873 99.4329 24.6895 96.9482 23.6662L102.28 10.7212C97.8746 8.90672 92.82 10.8609 90.7809 15.1668L103.434 21.1588ZM82.4375 53.5325C85.8971 53.5325 89.0469 51.539 90.5276 48.4123L77.8747 42.4204C78.7098 40.6569 80.4864 39.5325 82.4375 39.5325V53.5325ZM60.6358 48.4839C60.6358 51.2722 58.3754 53.5325 55.5872 53.5325V39.5325C50.6435 39.5325 46.6358 43.5402 46.6358 48.4839H60.6358ZM53.3991 82.1742C57.6024 81.3538 60.6358 77.6712 60.6358 73.3886H46.6358C46.6358 70.9732 48.3466 68.8961 50.7173 68.4334L53.3991 82.1742ZM22.317 73.9764C16.6341 75.0855 13.4836 81.2166 15.8903 86.4828L28.6235 80.6634C29.981 83.6336 28.204 87.0916 24.9988 87.7172L22.317 73.9764Z" fill="black" mask="url(#path-1-outside-1_459_553)"/>
<circle cx="148" cy="150" r="113" fill="black"/>
</svg>
