<svg width="304" height="308" viewBox="0 0 304 308" fill="none" xmlns="http://www.w3.org/2000/svg">
<path d="M7.17059 188.938L7.17062 188.938L27.3089 203.038L19.3075 227.049C18.118 230.618 20.3898 234.408 24.0986 235.042L51.5422 239.728V263.375C51.5422 266.765 54.2909 269.514 57.6817 269.514H86.3449L98.0454 292.233C99.5849 295.222 103.243 296.417 106.25 294.913L127.766 284.152L146.17 301.88C148.487 304.112 152.134 304.176 154.528 302.029L174.723 283.919L199.723 293.644C202.766 294.827 206.202 293.423 207.545 290.448L216.996 269.514H242.463C245.611 269.514 248.249 267.133 248.571 264.001L251.279 237.586L277.017 234.945C280.926 234.544 283.457 230.625 282.215 226.897L274.305 203.162L292.866 191.227C295.34 189.636 296.338 186.514 295.246 183.783L283.757 155.053L298.122 135.209C300.259 132.258 299.37 128.107 296.213 126.288L294.123 129.918L296.213 126.288L274.289 113.662L282.466 87.077L278.464 85.8456L282.467 87.0769C283.431 83.9417 281.76 80.6022 278.673 79.4936L251.358 69.6856L248.619 42.9761C248.239 39.2727 244.678 36.7568 241.06 37.6369L216.691 43.5661L205.204 17.883C203.766 14.6662 199.92 13.318 196.788 14.9321L174.86 26.2315L158.048 6.72445C155.855 4.18009 152.024 3.87025 149.451 6.02905L127.79 24.2012L104.342 14.5437C101.321 13.2992 97.854 14.6395 96.4554 17.5928L83.8213 44.272H57.6817C54.291 44.272 51.5422 47.0207 51.5422 50.4114V74.1416L24.1897 79.4801C20.292 80.2408 18.1311 84.4459 19.7819 88.0578L23.5004 86.3584L19.7819 88.0578L30.2233 110.904L7.31531 126.405C4.45091 128.343 3.75196 132.264 5.77014 135.073L21.5017 156.966L5.60636 180.469C3.72858 183.246 4.42487 187.015 7.17059 188.938ZM27.8363 201.456L27.8355 201.458C27.8358 201.457 27.836 201.456 27.8363 201.456L29.9583 202.163L27.8363 201.456ZM126.627 283.056L126.633 283.061C126.631 283.059 126.629 283.057 126.627 283.056ZM173.292 27.0392C173.293 27.0388 173.294 27.0383 173.295 27.0378L173.292 27.0392L174.316 29.0275L173.292 27.0392ZM22.3753 155.674L22.3724 155.678C22.3734 155.677 22.3744 155.675 22.3753 155.674L24.2282 156.927L22.3753 155.674Z" fill="white" stroke="#1B0C0C" stroke-width="8.37621" stroke-linecap="round"/>
<circle cx="151.742" cy="153.804" r="119.013" fill="#1B0C0C"/>
<mask id="path-3-inside-1_494_963" fill="white">
<path d="M32.7021 153.587C32.7021 87.8585 85.9859 34.5747 151.715 34.5747V34.5747C217.443 34.5747 270.727 87.8585 270.727 153.587V153.587C270.727 219.316 217.443 272.6 151.715 272.6V272.6C85.9859 272.6 32.7021 219.316 32.7021 153.587V153.587Z"/>
</mask>
<path d="M32.7021 153.587C32.7021 87.8585 85.9859 34.5747 151.715 34.5747V34.5747C217.443 34.5747 270.727 87.8585 270.727 153.587V153.587C270.727 219.316 217.443 272.6 151.715 272.6V272.6C85.9859 272.6 32.7021 219.316 32.7021 153.587V153.587Z" fill="#1B0C0C"/>
<path d="M151.715 269.058C87.9417 269.058 36.2435 217.36 36.2435 153.587H29.1608C29.1608 221.272 84.0301 276.141 151.715 276.141V269.058ZM267.186 153.587C267.186 217.36 215.488 269.058 151.715 269.058V276.141C219.399 276.141 274.269 221.272 274.269 153.587H267.186ZM151.715 38.1161C215.488 38.1161 267.186 89.8143 267.186 153.587H274.269C274.269 85.9026 219.399 31.0333 151.715 31.0333V38.1161ZM151.715 31.0333C84.0301 31.0333 29.1608 85.9026 29.1608 153.587H36.2435C36.2435 89.8143 87.9417 38.1161 151.715 38.1161V31.0333Z" fill="#1B0C0C" mask="url(#path-3-inside-1_494_963)"/>
</svg>
