<svg width="564" height="860" viewBox="0 0 564 860" fill="none" xmlns="http://www.w3.org/2000/svg">
<g filter="url(#filter0_d_484_831)">
<path d="M55.4987 673.123C55.4987 676.167 57.966 678.634 61.0096 678.634H476.157C479.201 678.634 481.668 676.167 481.668 673.123V391.517H437.515H107.479H55.4987L55.4987 673.123Z" fill="#FF123D"/>
<path d="M62.9609 765.149C59.2529 765.149 56.6031 768.737 57.6938 772.281L69.0598 809.21C69.7714 811.522 71.9077 813.1 74.3268 813.1H456.658C458.712 813.1 460.595 811.958 461.545 810.137L480.798 773.208C482.711 769.539 480.049 765.149 475.912 765.149H62.9609Z" fill="#FF123D"/>
<path d="M541.112 8.51089C541.112 5.46731 538.644 3 535.601 3L8.51088 3C5.46731 3 3 5.46731 3 8.51088L3 231.151H272.056L541.112 231.151V8.51089Z" fill="#FF123D"/>
<path d="M77.985 283.504C74.2 283.504 71.5416 287.232 72.7748 290.81L107.479 391.517H437.515L470.212 290.715C471.367 287.155 468.713 283.504 464.97 283.504H77.985Z" fill="#FF123D"/>
<path d="M3 231.151L3 391.517H55.4987H107.479L72.7748 290.81C71.5416 287.232 74.2 283.504 77.985 283.504H464.97C468.713 283.504 471.367 287.155 470.212 290.715L437.515 391.517H481.668H541.112V231.151L272.056 231.151H3Z" fill="white"/>
<path d="M3 391.517L3 721.795H541.112V391.517H481.668V673.123C481.668 676.167 479.201 678.634 476.157 678.634H61.0096C57.966 678.634 55.4987 676.167 55.4987 673.123L55.4987 391.517H3Z" fill="white"/>
<path fill-rule="evenodd" clip-rule="evenodd" d="M3 721.795L40.8499 842.85C41.5691 845.15 43.6996 846.716 46.1097 846.716H478.187C480.313 846.716 482.25 845.493 483.164 843.573L541.112 721.795H3ZM74.3268 813.1C71.9077 813.1 69.7714 811.522 69.0598 809.21L57.6938 772.281C56.6031 768.737 59.2529 765.149 62.9609 765.149H475.912C480.049 765.149 482.711 769.539 480.798 773.208L461.545 810.137C460.595 811.958 458.712 813.1 456.658 813.1H74.3268Z" fill="white"/>
<path d="M3 721.795L40.8499 842.85C41.5691 845.15 43.6996 846.716 46.1097 846.716H478.187C480.313 846.716 482.25 845.493 483.164 843.573L541.112 721.795M3 721.795L3 391.517M3 721.795H541.112M3 231.151L3 8.51088C3 5.46731 5.46731 3 8.51088 3L535.601 3C538.644 3 541.112 5.46731 541.112 8.51089V231.151M3 231.151L3 391.517M3 231.151H272.056L541.112 231.151M3 391.517H55.4987M541.112 391.517V231.151M541.112 391.517V721.795M541.112 391.517H481.668M481.668 391.517V673.123C481.668 676.167 479.201 678.634 476.157 678.634H61.0096C57.966 678.634 55.4987 676.167 55.4987 673.123L55.4987 391.517M481.668 391.517H437.515M55.4987 391.517H107.479M107.479 391.517L72.7748 290.81C71.5416 287.232 74.2 283.504 77.985 283.504H464.97C468.713 283.504 471.367 287.155 470.212 290.715L437.515 391.517M107.479 391.517H437.515M69.0598 809.21L57.6938 772.281C56.6031 768.737 59.2529 765.149 62.9609 765.149H475.912C480.049 765.149 482.711 769.539 480.798 773.208L461.545 810.137C460.595 811.958 458.712 813.1 456.658 813.1H74.3268C71.9077 813.1 69.7714 811.522 69.0598 809.21Z" stroke="#1B0C0C" stroke-width="5.51088"/>
</g>
<rect x="86.0947" y="513.492" width="51.8023" height="79.3567" rx="5.51088" fill="white"/>
<rect x="403.521" y="457.281" width="51.8023" height="79.3567" rx="5.51088" fill="white"/>
<rect x="403.521" y="545.455" width="51.8023" height="103.605" rx="5.51088" fill="white"/>
<mask id="mask0_484_831" style="mask-type:alpha" maskUnits="userSpaceOnUse" x="76" y="287" width="392" height="101">
<path d="M76.5566 287H467.057L436.057 387.5H109.057L76.5566 287Z" fill="#D9D9D9"/>
</mask>
<g mask="url(#mask0_484_831)">
<path d="M-263.943 243.481L306.807 878.062M-245.992 242.894L324.759 877.475M-228.04 242.307L342.71 876.888M-210.089 241.72L360.662 876.301M-192.138 241.133L378.613 875.714M-174.186 240.546L396.565 875.126M-156.235 239.959L414.516 874.539M-138.283 239.372L432.467 873.952M-120.332 238.785L450.419 873.365M-102.38 238.198L468.37 872.778M-84.4288 237.611L486.322 872.191M-66.4774 237.024L504.273 871.604M-48.5259 236.437L522.225 871.017M-30.5744 235.85L540.176 870.43M-12.623 235.263L558.128 869.843M5.32846 234.676L576.079 869.256M23.2799 234.089L594.031 868.669M41.2314 233.502L611.982 868.082M59.1828 232.915L629.933 867.495M77.1343 232.328L647.885 866.908M95.0857 231.741L665.836 866.321M113.037 231.154L683.788 865.734M130.989 230.567L701.739 865.147M148.94 229.98L719.691 864.56M166.892 229.392L737.642 863.973M184.843 228.805L755.594 863.386M202.794 228.218L773.545 862.799M220.746 227.631L791.497 862.212M238.697 227.044L809.448 861.625M256.649 226.457L827.399 861.038M274.6 225.87L845.351 860.451M292.552 225.283L863.302 859.864M310.503 224.696L881.254 859.277M328.455 224.109L899.205 858.69M346.406 223.522L917.157 858.103M364.358 222.935L935.108 857.516M382.309 222.348L953.06 856.929M400.26 221.761L971.011 856.341M418.212 221.174L988.963 855.754M436.163 220.587L1006.91 855.167M454.115 220L1024.87 854.58" stroke="white" stroke-width="5"/>
</g>
<mask id="mask1_484_831" style="mask-type:alpha" maskUnits="userSpaceOnUse" x="58" y="767" width="420" height="44">
<path d="M58 767.5H478L470.5 811H70L58 767.5Z" fill="#D9D9D9"/>
</mask>
<g mask="url(#mask1_484_831)">
<path d="M-278.443 724.481L292.307 1359.06M-260.492 723.894L310.259 1358.47M-242.54 723.307L328.21 1357.89M-224.589 722.72L346.162 1357.3M-206.638 722.133L364.113 1356.71M-188.686 721.546L382.065 1356.13M-170.735 720.959L400.016 1355.54M-152.783 720.372L417.967 1354.95M-134.832 719.785L435.919 1354.37M-116.88 719.198L453.87 1353.78M-98.9288 718.611L471.822 1353.19M-80.9774 718.024L489.773 1352.6M-63.0259 717.437L507.725 1352.02M-45.0744 716.85L525.676 1351.43M-27.123 716.263L543.628 1350.84M-9.17154 715.676L561.579 1350.26M8.77992 715.089L579.531 1349.67M26.7314 714.502L597.482 1349.08M44.6828 713.915L615.433 1348.5M62.6343 713.328L633.385 1347.91M80.5857 712.741L651.336 1347.32M98.5372 712.154L669.288 1346.73M116.489 711.567L687.239 1346.15M134.44 710.98L705.191 1345.56M152.392 710.392L723.142 1344.97M170.343 709.805L741.094 1344.39M188.294 709.218L759.045 1343.8M206.246 708.631L776.997 1343.21M224.197 708.044L794.948 1342.62M242.149 707.457L812.899 1342.04M260.1 706.87L830.851 1341.45M278.052 706.283L848.802 1340.86M296.003 705.696L866.754 1340.28M313.955 705.109L884.705 1339.69M331.906 704.522L902.657 1339.1M349.858 703.935L920.608 1338.52M367.809 703.348L938.56 1337.93M385.76 702.761L956.511 1337.34M403.712 702.174L974.463 1336.75M421.663 701.587L992.414 1336.17M439.615 701L1010.37 1335.58" stroke="white" stroke-width="5"/>
</g>
<mask id="mask2_484_831" style="mask-type:alpha" maskUnits="userSpaceOnUse" x="86" y="457" width="371" height="192">
<path d="M86.0566 511H138.057V593H86.0566V511Z" fill="#D9D9D9"/>
<path d="M404.057 457H456.057V538H404.057V457Z" fill="#D9D9D9"/>
<path d="M404.057 543H456.057V649H404.057V543Z" fill="#D9D9D9"/>
</mask>
<g mask="url(#mask2_484_831)">
<path d="M93.0566 454V655M105.269 454V655M117.481 454V655M129.693 454V655M141.905 454V655M154.117 454V655M166.329 454V655M178.541 454V655M190.754 454V655M202.966 454V655M215.178 454V655M227.39 454V655M239.602 454V655M251.814 454V655M264.026 454V655M276.238 454V655M288.451 454V655M300.663 454V655M312.875 454V655M325.087 454V655M337.299 454V655M349.511 454V655M361.723 454V655M373.935 454V655M386.148 454V655M398.36 454V655M410.572 454V655M422.784 454V655M434.996 454V655M447.208 454V655M459.42 454V655M471.632 454V655M483.845 454V655M496.057 454V655" stroke="#FF123D" stroke-width="3.88282"/>
</g>
<defs>
<filter id="filter0_d_484_831" x="0.244141" y="0.244141" width="563.243" height="859.037" filterUnits="userSpaceOnUse" color-interpolation-filters="sRGB">
<feFlood flood-opacity="0" result="BackgroundImageFix"/>
<feColorMatrix in="SourceAlpha" type="matrix" values="0 0 0 0 0 0 0 0 0 0 0 0 0 0 0 0 0 0 127 0" result="hardAlpha"/>
<feOffset dx="19.6196" dy="9.80978"/>
<feComposite in2="hardAlpha" operator="out"/>
<feColorMatrix type="matrix" values="0 0 0 0 0.101961 0 0 0 0 0.101961 0 0 0 0 0.101961 0 0 0 1 0"/>
<feBlend mode="normal" in2="BackgroundImageFix" result="effect1_dropShadow_484_831"/>
<feBlend mode="normal" in="SourceGraphic" in2="effect1_dropShadow_484_831" result="shape"/>
</filter>
</defs>
</svg>
