<svg width="523" height="524" viewBox="0 0 523 524" fill="none" xmlns="http://www.w3.org/2000/svg">
<path fill-rule="evenodd" clip-rule="evenodd" d="M26.7179 181.832C27.374 184.515 26.0905 187.393 23.866 189.029C6.37956 201.892 -2.59285 247.909 25.0835 270.087C27.3009 271.864 27.9479 275.062 26.891 277.7C19.7723 295.465 31.1611 324.895 53.094 333.66C56.6807 335.093 58.6084 339.838 57.2381 343.45C49.173 364.705 66.9585 392.751 87.5248 392.798C90.3134 392.805 93.0119 394.482 93.7439 397.173C106.07 442.482 147.301 441.64 178.749 419.601C181.814 417.453 186.293 419.003 187.941 422.364C205.337 457.834 278.278 437.853 294.848 409.91C296.458 407.196 299.936 405.771 302.881 406.907C320.328 413.632 340.509 409.995 355.762 400.382C357.949 399.004 360.872 399.322 362.598 401.246C426.309 472.267 463.394 493.097 484.069 504.71C492.156 509.252 497.732 512.385 501.409 516.558C460.246 469.838 428.34 422.171 405.331 381.401C403.603 378.34 405.541 374.51 408.924 373.556C425.514 368.879 437.864 356.123 441.965 337.74C442.422 335.69 444.006 334.047 446.057 333.596C474.387 327.357 483.364 314.564 483.05 277.797C483.026 274.988 485.297 272.699 488.042 272.106C513.964 266.499 523.756 219.632 507.688 198.477C505.962 196.204 505.876 192.916 507.187 190.381C516.944 171.51 499.213 130.585 476.965 122.334C473.261 120.96 470.136 116.109 470.419 112.169C471.891 91.6347 452.391 58.8755 435.984 55.7298C431.968 54.9597 426.127 52.0065 424.67 48.1851C417.069 28.2445 389.536 6.08215 374.811 16.8687C371.793 19.079 366.972 19.5226 364.155 17.0626C346.661 1.78875 315.627 5.66565 304.065 22.1701C302.076 25.01 297.932 26.2469 294.789 24.7841C271.624 14.0054 232.693 28.9425 223.685 50.7282C222.231 54.2452 217.73 56.6202 214.093 55.5006C190.493 48.2361 155.886 62.8271 147.917 81.1671C146.537 84.3411 142.867 86.6509 139.512 85.8018C111.86 78.8042 82.9037 97.1323 77.3314 124.761C76.6367 128.206 72.9246 130.474 69.4633 129.868C44.7049 125.53 19.9901 154.329 26.7179 181.832Z" fill="white"/>
<path d="M484.069 504.71L487.595 498.433L487.595 498.433L484.069 504.71ZM496.007 521.318C498.636 524.302 503.185 524.59 506.169 521.961C509.153 519.332 509.44 514.782 506.812 511.799L496.007 521.318ZM77.3314 124.761L84.3893 126.185L77.3314 124.761ZM69.4633 129.868L70.7058 122.776L69.4633 129.868ZM147.917 81.1671L154.52 84.0366L147.917 81.1671ZM139.512 85.8018L141.278 78.8219L139.512 85.8018ZM223.685 50.7282L217.032 47.977L223.685 50.7282ZM304.065 22.1701L298.168 18.0393L304.065 22.1701ZM294.789 24.7841L291.751 31.312L294.789 24.7841ZM364.155 17.0626L368.89 11.639L364.155 17.0626ZM424.67 48.1851L417.942 50.7496L424.67 48.1851ZM476.965 122.334L474.461 129.084L476.965 122.334ZM470.419 112.169L463.237 111.654L470.419 112.169ZM441.965 337.74L434.938 336.172L441.965 337.74ZM446.057 333.596L447.606 340.627L446.057 333.596ZM405.331 381.401L399.06 384.939L405.331 381.401ZM408.924 373.556L410.878 380.486L408.924 373.556ZM355.762 400.382L359.601 406.473L355.762 400.382ZM362.598 401.246L357.239 406.054L362.598 401.246ZM294.848 409.91L288.655 406.238L294.848 409.91ZM302.881 406.907L305.471 400.188L302.881 406.907ZM178.749 419.601L174.617 413.705L178.749 419.601ZM187.941 422.364L181.477 425.534L187.941 422.364ZM87.5248 392.798L87.5415 385.598L87.5248 392.798ZM93.7439 397.173L100.691 395.283L93.7439 397.173ZM53.094 333.66L55.7658 326.974L53.094 333.66ZM507.688 198.477L513.422 194.122L507.688 198.477ZM507.187 190.381L513.582 193.688L507.187 190.381ZM23.866 189.029L19.5997 183.23L23.866 189.029ZM26.7179 181.832L19.7241 183.543L26.7179 181.832ZM488.042 272.106L486.52 265.068L488.042 272.106ZM25.0835 270.087L20.5811 275.705L25.0835 270.087ZM26.891 277.7L33.5744 280.378L26.891 277.7ZM29.5859 264.468C18.1104 255.273 13.8507 240.836 14.7253 226.504C15.6218 211.815 21.7442 199.528 28.1324 194.829L19.5997 183.23C8.50138 191.393 1.39439 208.547 0.352083 225.626C-0.711973 243.062 4.38023 262.723 20.5811 275.705L29.5859 264.468ZM55.7658 326.974C46.9577 323.454 39.8241 315.55 35.6878 306.154C31.5042 296.651 30.9472 286.934 33.5744 280.378L20.2076 275.022C15.7161 286.231 17.2941 300.112 22.5084 311.956C27.7701 323.908 37.2973 335.101 50.4221 340.346L55.7658 326.974ZM87.5415 385.598C80.5681 385.582 72.9643 380.655 67.7609 372.278C62.6119 363.988 60.9284 354.019 63.9698 346.004L50.5064 340.895C45.4828 354.135 48.6594 368.817 55.5285 379.876C62.3431 390.847 73.9152 399.967 87.5081 399.998L87.5415 385.598ZM174.617 413.705C159.876 424.036 143.608 428.823 130.289 426.546C117.667 424.387 106.231 415.645 100.691 395.283L86.7963 399.063C93.583 424.01 108.925 437.501 127.862 440.74C146.103 443.859 166.174 437.206 182.881 425.497L174.617 413.705ZM288.655 406.238C285.411 411.709 278.947 417.422 270.101 422.34C261.37 427.194 250.908 430.941 240.426 432.831C229.897 434.73 219.79 434.678 211.6 432.379C203.535 430.116 197.649 425.806 194.406 419.193L181.477 425.534C186.932 436.657 196.687 443.15 207.709 446.244C218.605 449.301 231.031 449.158 242.982 447.003C254.982 444.838 266.949 440.568 277.098 434.925C287.132 429.347 296 422.083 301.041 413.583L288.655 406.238ZM351.923 394.291C338.206 402.936 320.403 405.944 305.471 400.188L300.292 413.625C320.254 421.32 342.811 417.055 359.601 406.473L351.923 394.291ZM357.239 406.054C421.544 477.737 459.275 499.042 480.543 510.988L487.595 498.433C467.512 487.152 431.073 466.796 367.958 396.439L357.239 406.054ZM480.543 510.988C489.037 515.758 493.322 518.27 496.007 521.318L506.812 511.799C502.142 506.499 495.275 502.746 487.595 498.433L480.543 510.988ZM506.812 511.799C466.025 465.504 434.4 418.259 411.601 377.862L399.06 384.939C422.28 426.082 454.468 474.171 496.007 521.318L506.812 511.799ZM434.938 336.172C431.398 352.039 420.946 362.686 406.971 366.626L410.878 380.486C430.083 375.072 444.33 360.207 448.992 339.307L434.938 336.172ZM475.851 277.858C476.005 295.979 473.781 306.471 469.314 313.136C465.086 319.445 457.943 323.606 444.509 326.564L447.606 340.627C462.502 337.347 474.012 331.991 481.276 321.153C488.303 310.669 490.409 296.382 490.25 277.735L475.851 277.858ZM501.955 202.831C508.205 211.061 510.001 225.564 506.617 239.413C503.191 253.437 495.46 263.135 486.52 265.068L489.564 279.143C506.547 275.47 516.672 258.931 520.606 242.831C524.582 226.556 523.239 207.048 513.422 194.122L501.955 202.831ZM474.461 129.084C482.932 132.226 491.834 142.426 497.488 155.275C500.231 161.508 501.99 167.905 502.543 173.638C503.104 179.461 502.371 184.019 500.791 187.074L513.582 193.688C516.882 187.307 517.591 179.674 516.876 172.257C516.153 164.752 513.919 156.864 510.668 149.475C504.334 135.081 493.246 120.693 479.469 115.583L474.461 129.084ZM434.629 62.801C436.855 63.2279 439.959 64.8741 443.583 68.2539C447.11 71.5425 450.64 76.019 453.745 81.1541C460.101 91.6653 463.824 103.472 463.237 111.654L477.6 112.684C478.486 100.332 473.195 85.4918 466.068 73.7033C462.431 67.6886 458.101 62.1021 453.404 57.7219C448.804 53.433 443.318 49.8047 437.34 48.6586L434.629 62.801ZM379.066 22.6771C380.757 21.4382 383.086 20.8747 386.449 21.4897C389.91 22.1226 394.022 23.9583 398.319 26.9276C406.998 32.9248 414.742 42.3527 417.942 50.7496L431.398 45.6205C426.998 34.0768 417.174 22.4533 406.505 15.0808C401.128 11.3652 395.12 8.43656 389.04 7.32462C382.862 6.19478 376.228 6.90591 370.556 11.0603L379.066 22.6771ZM309.962 26.301C314.206 20.2425 322.637 15.8462 332.592 14.8648C342.456 13.8922 352.478 16.4262 359.419 22.4863L368.89 11.639C358.337 2.42519 344.095 -0.739258 331.179 0.534244C318.352 1.7989 305.485 7.59335 298.168 18.0393L309.962 26.301ZM230.339 53.4795C233.773 45.173 243.655 37.0422 256.436 32.2937C269.146 27.5714 282.532 27.0222 291.751 31.312L297.826 18.2562C283.881 11.7673 266.219 13.2973 251.421 18.7953C236.693 24.2671 222.605 34.4977 217.032 47.977L230.339 53.4795ZM154.52 84.0366C157.418 77.3679 166.021 70.1294 177.814 65.4184C189.431 60.7784 202.229 59.3819 211.975 62.3819L216.211 48.6192C202.358 44.3547 186.052 46.6215 172.473 52.0458C159.071 57.3993 146.385 66.6263 141.313 78.2976L154.52 84.0366ZM84.3893 126.185C89.146 102.6 114.072 86.7908 137.746 92.7818L141.278 78.8219C109.648 70.8175 76.6614 91.6648 70.2735 123.338L84.3893 126.185ZM33.7117 180.122C30.9804 168.956 34.5853 157.174 41.8092 148.525C49.0857 139.814 59.0566 135.354 68.2209 136.96L70.7058 122.776C55.1116 120.044 40.346 127.815 30.7574 139.294C21.1162 150.837 15.7276 167.205 19.7241 183.543L33.7117 180.122ZM70.2735 123.338C70.3675 122.872 70.6102 122.733 70.5675 122.76C70.5662 122.761 70.5614 122.764 70.5544 122.767C70.5475 122.77 70.5442 122.77 70.5469 122.77C70.5496 122.769 70.6039 122.758 70.7058 122.776L68.2209 136.96C75.0969 138.164 82.8388 133.873 84.3893 126.185L70.2735 123.338ZM141.313 78.2976C141.303 78.3204 141.262 78.4012 141.165 78.5069C141.07 78.6124 140.961 78.6971 140.866 78.7517C140.77 78.8066 140.742 78.8011 140.804 78.7902C140.876 78.7776 141.048 78.7636 141.278 78.8219L137.746 92.7818C145.289 94.6906 152.076 89.662 154.52 84.0366L141.313 78.2976ZM217.032 47.977C217.057 47.9147 217.049 47.9659 216.933 48.0849C216.817 48.2034 216.65 48.331 216.451 48.4318C216.252 48.5329 216.096 48.5689 216.024 48.578C215.956 48.5865 216.032 48.5642 216.211 48.6192L211.975 62.3819C215.95 63.6056 219.922 62.8173 222.965 61.2745C226.008 59.7311 228.853 57.0716 230.339 53.4795L217.032 47.977ZM298.168 18.0393C298.203 17.9898 298.207 18.0033 298.144 18.0465C298.08 18.0904 297.985 18.138 297.874 18.1699C297.763 18.2018 297.687 18.2033 297.663 18.2021C297.644 18.2011 297.708 18.2013 297.826 18.2562L291.751 31.312C298.255 34.3383 306.096 31.8209 309.962 26.301L298.168 18.0393ZM370.556 11.0603C370.437 11.1479 370.23 11.2655 369.944 11.3631C369.66 11.46 369.369 11.5125 369.111 11.5231C368.521 11.5474 368.575 11.3643 368.89 11.639L359.419 22.4863C362.551 25.2209 366.425 26.046 369.704 25.9109C372.986 25.7757 376.341 24.673 379.066 22.6771L370.556 11.0603ZM437.34 48.6586C436.222 48.4442 434.567 47.8424 433.126 46.9603C432.431 46.5353 431.93 46.132 431.613 45.8111C431.283 45.4764 431.311 45.393 431.398 45.6205L417.942 50.7496C419.508 54.8577 422.941 57.6101 425.609 59.2431C428.457 60.9855 431.73 62.2453 434.629 62.801L437.34 48.6586ZM479.469 115.583C479.51 115.598 479.362 115.548 479.086 115.306C478.817 115.07 478.519 114.732 478.25 114.315C477.982 113.898 477.798 113.487 477.694 113.145C477.588 112.794 477.604 112.639 477.6 112.684L463.237 111.654C462.956 115.584 464.341 119.314 466.144 122.112C467.946 124.911 470.768 127.715 474.461 129.084L479.469 115.583ZM448.992 339.307C448.868 339.865 448.41 340.45 447.606 340.627L444.509 326.564C439.603 327.644 435.977 331.515 434.938 336.172L448.992 339.307ZM411.601 377.862C412.018 378.601 411.908 379.369 411.717 379.771C411.553 380.118 411.265 380.377 410.878 380.486L406.971 366.626C399.881 368.625 394.654 377.133 399.06 384.939L411.601 377.862ZM359.601 406.473C359.013 406.844 358.006 406.91 357.239 406.054L367.958 396.439C363.738 391.734 356.885 391.164 351.923 394.291L359.601 406.473ZM301.041 413.583C301.005 413.644 300.976 413.668 300.971 413.673C300.968 413.676 300.964 413.679 300.949 413.685C300.936 413.69 300.686 413.777 300.292 413.625L305.471 400.188C298.863 397.641 291.839 400.869 288.655 406.238L301.041 413.583ZM182.881 425.497C182.617 425.682 182.33 425.776 182.097 425.804C181.882 425.829 181.753 425.796 181.71 425.783C181.669 425.77 181.647 425.756 181.625 425.738C181.6 425.717 181.537 425.656 181.477 425.534L194.406 419.193C191.169 412.594 181.938 408.574 174.617 413.705L182.881 425.497ZM87.5081 399.998C87.4999 399.998 87.4633 400.005 87.3624 399.937C87.2341 399.85 86.9356 399.575 86.7963 399.063L100.691 395.283C98.933 388.82 92.8527 385.611 87.5415 385.598L87.5081 399.998ZM50.4221 340.346C50.2473 340.276 50.1881 340.204 50.2126 340.23C50.2413 340.26 50.3145 340.353 50.3813 340.513C50.448 340.673 50.4758 340.822 50.4804 340.923C50.4849 341.022 50.4651 341.004 50.5064 340.895L63.9698 346.004C65.4097 342.209 65.0195 338.197 63.6685 334.963C62.3167 331.727 59.6909 328.543 55.7658 326.974L50.4221 340.346ZM513.422 194.122C513.541 194.279 513.498 194.323 513.489 194.156C513.485 194.081 513.491 193.991 513.511 193.897C513.531 193.803 513.56 193.732 513.582 193.688L500.791 187.074C498.39 191.719 498.317 198.042 501.955 202.831L513.422 194.122ZM28.1324 194.829C32.3052 191.76 35.1681 186.075 33.7117 180.122L19.7241 183.543C19.6475 183.23 19.7223 183.063 19.7114 183.089C19.7077 183.098 19.6939 183.127 19.6663 183.162C19.6388 183.197 19.613 183.22 19.5997 183.23L28.1324 194.829ZM490.25 277.735C490.256 278.369 489.986 278.798 489.833 278.967C489.707 279.105 489.62 279.131 489.564 279.143L486.52 265.068C481.24 266.21 475.791 270.879 475.851 277.858L490.25 277.735ZM20.5811 275.705C20.287 275.47 20.208 275.227 20.1938 275.165C20.1831 275.118 20.1822 275.085 20.2076 275.022L33.5744 280.378C35.6572 275.18 34.5867 268.475 29.5859 264.468L20.5811 275.705Z" fill="#3F304F"/>
</svg>
