<svg width="153" height="226" viewBox="0 0 153 226" fill="none" xmlns="http://www.w3.org/2000/svg">
<path fill-rule="evenodd" clip-rule="evenodd" d="M152.277 18.9317C152.277 19.569 152.141 20.1985 151.877 20.819L152.277 18.9317ZM0 18.9317L0.377407 20.7664C0.127801 20.163 0 19.5509 0 18.9317Z" fill="#FF123D"/>
<path fill-rule="evenodd" clip-rule="evenodd" d="M0 18.9317L0.377407 20.7664C0.127801 20.163 0 19.5509 0 18.9317ZM152.277 18.9317C152.277 19.569 152.141 20.1985 151.877 20.819L152.277 18.9317Z" fill="#FF123D"/>
<path d="M76.1384 0.621094C34.0883 0.621094 0 8.81905 0 18.9317L0.377407 20.7664C4.20431 30.0176 36.663 37.2424 76.1384 37.2424C115.539 37.2424 147.949 30.045 151.877 20.819L152.277 18.9317C152.277 8.81905 118.188 0.621094 76.1384 0.621094Z" fill="white"/>
<path d="M76.1384 225.522C118.188 225.522 113.528 210.765 119.815 198.357L151.877 20.819C147.949 30.045 115.539 37.2424 76.1384 37.2424C36.663 37.2424 4.20431 30.0176 0.377407 20.7664L31.8719 198.357C37.4576 208.404 34.0883 225.522 76.1384 225.522Z" fill="#8DD3FA"/>
<path d="M144.548 28.6031C146.433 27.7193 148.113 26.7612 149.504 25.7217L118.411 197.889C117.246 200.235 116.431 202.693 115.664 205.006C115.398 205.808 115.138 206.592 114.871 207.349C113.788 210.418 112.548 213.197 110.316 215.595C105.881 220.361 97.0877 224.058 76.1384 224.058C55.2531 224.058 46.1007 219.796 41.4066 214.714C39.0407 212.152 37.7047 209.278 36.6034 206.328C36.3229 205.577 36.0529 204.803 35.7805 204.023C35.0447 201.915 34.292 199.759 33.2717 197.865L2.73872 25.6962C4.1191 26.7324 5.78505 27.6873 7.65415 28.5681C11.9886 30.6107 17.7548 32.4099 24.5765 33.9039C38.2305 36.8942 56.3227 38.7066 76.1384 38.7066C95.9166 38.7066 113.978 36.9011 127.623 33.9209C134.44 32.432 140.206 30.6388 144.548 28.6031ZM8.90248 25.9191C4.84813 24.0085 2.56592 22.0667 1.78142 20.3247L1.46731 18.7978C1.54309 17.1602 3.01206 15.1782 6.70705 13.0772C10.3885 10.984 15.8129 9.05029 22.6428 7.40777C36.2794 4.12827 55.1937 2.08529 76.1384 2.08529C97.0831 2.08529 115.997 4.12827 129.634 7.40777C136.464 9.05029 141.888 10.984 145.57 13.0772C149.262 15.1765 150.731 17.1572 150.809 18.794L150.477 20.3659C149.669 22.1099 147.366 24.0479 143.305 25.9516C139.234 27.8602 133.699 29.5963 126.998 31.06C113.605 33.985 95.7607 35.7782 76.1384 35.7782C56.4787 35.7782 38.6039 33.9782 25.203 31.0433C18.4972 29.5747 12.9639 27.8331 8.90248 25.9191Z" stroke="white" stroke-width="2.9284"/>
</svg>
