<svg width="64" height="119" viewBox="0 0 64 119" fill="none" xmlns="http://www.w3.org/2000/svg">
<path d="M3.52446 31.2126C3.52507 15.8078 16.3826 3.50679 32.0088 3.50679C47.6354 3.50679 60.4932 15.8084 60.4932 31.2137C60.4932 31.2141 60.4932 31.2144 60.4932 31.2148L3.52446 31.2126ZM3.52446 31.2126C3.52446 31.213 3.52446 31.2133 3.52446 31.2137L3.50679 87.7702M3.52446 31.2126L3.50679 87.7702M3.50679 87.7702C3.50679 87.7751 3.50679 87.7801 3.50679 87.7851C3.50679 87.7855 3.50679 87.7859 3.50679 87.7863C3.50679 103.192 16.3646 115.493 31.9912 115.493C47.6174 115.493 60.4749 103.192 60.4755 87.7874C60.4755 87.787 60.4755 87.7867 60.4755 87.7863L60.4932 31.2307L3.50679 87.7702Z" fill="white" stroke="#1B0C0C" stroke-width="6.98642"/>
<path d="M31.983 46.5054C22.9904 46.5054 15.7005 39.4701 15.7005 30.7915C15.7005 22.113 22.9904 15.0776 31.9831 15.0776C40.9757 15.0776 48.2656 22.113 48.2656 30.7915C48.2656 39.4701 40.9757 46.5054 31.983 46.5054Z" fill="#FF123D"/>
<path d="M31.983 46.5054C22.9904 46.5054 15.7005 39.4701 15.7005 30.7915L15.6892 89.1912C15.6892 80.5126 22.9791 73.4773 31.9717 73.4773C40.9644 73.4773 48.2543 80.5126 48.2543 89.1912L48.2656 30.7915C48.2656 39.4701 40.9757 46.5054 31.983 46.5054Z" fill="#FF123D"/>
<path d="M15.6892 89.1912C15.6892 97.8697 22.9791 104.905 31.9717 104.905C40.9644 104.905 48.2543 97.8697 48.2543 89.1912C48.2543 80.5126 40.9644 73.4773 31.9717 73.4773C22.9791 73.4773 15.6892 80.5126 15.6892 89.1912Z" fill="#FF123D"/>
<path d="M43.198 88.1363C43.198 93.7619 38.4983 98.3224 32.701 98.3224C26.9037 98.3224 22.2041 93.7619 22.2041 88.1363C22.2041 82.5107 26.9037 77.9502 32.701 77.9502C38.4983 77.9502 43.198 82.5107 43.198 88.1363Z" fill="white"/>
<path d="M43.198 33.3423C43.198 38.968 38.4983 43.5284 32.701 43.5284C26.9037 43.5284 22.2041 38.968 22.2041 33.3423C22.2041 27.7167 26.9037 23.1562 32.701 23.1563C38.4983 23.1563 43.198 27.7167 43.198 33.3423Z" fill="white"/>
</svg>
