<svg width="152" height="147" viewBox="0 0 152 147" fill="none" xmlns="http://www.w3.org/2000/svg">
<path d="M62.2856 30.6074H77.4197V0.852295H117.435V30.6074H151.294V69.5968H117.435V84.9874C117.435 103.798 112.048 118.676 101.275 129.62C90.5016 140.564 76.3936 146.037 58.951 146.037C41.6793 146.037 27.5713 140.735 16.6269 130.133C5.8535 119.36 0.466797 105.423 0.466797 88.322C0.466797 71.2214 6.0245 57.3699 17.1399 46.7675C28.2553 35.9941 43.3039 30.6074 62.2856 30.6074ZM77.4197 85.2439V69.5968H62.0291C55.3598 69.5968 50.1441 71.3069 46.382 74.727C42.7909 78.1472 40.9953 82.5933 40.9953 88.0655C40.9953 93.5377 42.7054 97.9839 46.1255 101.404C50.0586 104.482 54.4193 106.192 59.2075 106.534C63.9957 106.876 68.3563 105.081 72.2895 101.148C76.2226 97.0434 77.9327 91.7422 77.4197 85.2439Z" fill="#FF123D"/>
</svg>
