<svg width="166" height="160" viewBox="0 0 166 160" fill="none" xmlns="http://www.w3.org/2000/svg">
<path d="M67.8055 32.6367H84.4051V0H128.296V32.6367H165.434V75.4019H128.296V92.2829C128.296 112.915 122.387 129.234 110.571 141.238C98.754 153.242 83.2797 159.244 64.1479 159.244C45.2036 159.244 29.7294 153.43 17.7251 141.801C5.90836 129.984 0 114.697 0 95.9405C0 77.1838 6.09593 61.9909 18.2878 50.3617C30.4796 38.545 46.9855 32.6367 67.8055 32.6367ZM84.4051 92.5643V75.4019H67.5241C60.209 75.4019 54.4882 77.2776 50.3617 81.0289C46.4228 84.7803 44.4534 89.657 44.4534 95.6591C44.4534 101.661 46.329 106.538 50.0804 110.289C54.3944 113.666 59.1774 115.541 64.4293 115.916C69.6811 116.292 74.4641 114.322 78.7781 110.008C83.0922 105.506 84.9678 99.6918 84.4051 92.5643Z" fill="#FF123D"/>
</svg>
