<svg width="166" height="160" viewBox="0 0 166 160" fill="none" xmlns="http://www.w3.org/2000/svg">
<path d="M68.2766 33.0129H84.8763V0.376221H128.767V33.0129H165.905V75.7781H128.767V92.6592C128.767 113.292 122.859 129.61 111.042 141.614C99.2252 153.618 83.7509 159.621 64.6191 159.621C45.6748 159.621 30.2006 153.806 18.1963 142.177C6.37955 130.36 0.471191 115.073 0.471191 96.3167C0.471191 77.56 6.56712 62.3671 18.759 50.7379C30.9508 38.9212 47.4567 33.0129 68.2766 33.0129ZM84.8763 92.9405V75.7781H67.9953C60.6802 75.7781 54.9594 77.6538 50.8329 81.4051C46.894 85.1565 44.9246 90.0332 44.9246 96.0354C44.9246 102.038 46.8002 106.914 50.5516 110.666C54.8656 114.042 59.6486 115.917 64.9004 116.293C70.1523 116.668 74.9353 114.698 79.2493 110.384C83.5634 105.883 85.439 100.068 84.8763 92.9405Z" fill="#D82163"/>
</svg>
