<svg width="541" height="579" viewBox="0 0 541 579" fill="none" xmlns="http://www.w3.org/2000/svg">
<path fill-rule="evenodd" clip-rule="evenodd" d="M51.1013 70.4223C50.9294 72.2786 49.4336 73.7756 47.5957 74.0875C24.6834 77.9757 -4.35076 119.943 16.807 151.431C17.9238 153.093 17.5373 155.384 16.0381 156.711C0.465382 170.501 0.532934 205.125 21.623 220.852C23.782 222.462 23.8467 226.024 21.8141 227.791C2.69214 244.412 10.2434 280.522 32.8041 286.853C34.6422 287.368 35.9468 289.151 35.7024 291.045C29.3935 339.928 73.4089 353.769 114.352 342.969C116.781 342.328 119.166 344.403 119.181 346.916C119.427 389.35 206.398 397.054 231.978 374.705C233.515 373.362 235.895 373.309 237.388 374.701C258.311 394.197 294.632 394.717 316.45 380.558C317.993 379.557 320.102 379.868 321.237 381.315C425.714 514.591 480.959 545.622 508.599 561.147C517.19 565.972 523.113 569.3 527.02 573.734C462.16 500.117 418.935 424.289 396.095 373.437C395.489 372.086 395.859 370.528 396.927 369.502C399.601 366.934 402.061 364.019 404.266 360.766C405.033 359.634 406.39 359.024 407.742 359.231C439.728 364.114 453.669 355.369 467.837 319.188C468.508 317.476 470.417 316.603 472.211 317.008C501.277 323.568 531.034 280.525 521.39 254.649C520.692 252.779 521.457 250.596 523.099 249.459C542.182 236.248 539.75 186.764 518.09 172.718C515.787 171.224 515.039 167.409 516.525 165.101C528.563 146.404 520.014 101.515 501.885 96.6095C499.211 95.8859 496.517 92.8752 496.793 90.1185C499.024 67.7944 476.953 31.5268 456.329 41.2747C454.111 42.3229 451.178 41.409 450.169 39.1729C439.618 15.782 402.764 7.40399 384.952 21.4295C383.182 22.8228 380.466 22.6049 378.989 20.9043C360.631 -0.238408 310.383 -0.0512616 294.501 19.9747C292.957 21.9212 289.813 22.3131 287.95 20.6698C267.432 2.57247 221.76 4.03037 208.062 20.7183C206.632 22.4604 203.946 23.0127 202.137 21.6687C176.588 2.68802 137.53 9.9825 121.793 36.2743C120.618 38.2383 117.887 38.7531 116.006 37.4494C92.8811 21.4243 53.8673 40.5496 51.1013 70.4223Z" fill="white"/>
<path d="M508.599 561.147L510.979 556.909L510.979 556.909L508.599 561.147ZM523.373 576.947C525.147 578.961 528.219 579.155 530.233 577.381C532.247 575.606 532.442 572.535 530.667 570.52L523.373 576.947ZM121.793 36.2743L125.964 38.7707L121.793 36.2743ZM116.006 37.4494L113.237 41.4446L116.006 37.4494ZM208.062 20.7183L204.305 17.6344L208.062 20.7183ZM294.501 19.9747L290.692 16.9544L294.501 19.9747ZM287.95 20.6698L284.735 24.3152L287.95 20.6698ZM384.952 21.4295L387.959 25.2485L384.952 21.4295ZM378.989 20.9043L382.66 17.7175L378.989 20.9043ZM456.329 41.2747L454.252 36.8801L456.329 41.2747ZM450.169 39.1729L445.738 41.1715L450.169 39.1729ZM501.885 96.6095L503.155 91.9175L501.885 96.6095ZM496.793 90.1185L491.956 89.6351L496.793 90.1185ZM518.09 172.718L520.735 168.64L518.09 172.718ZM516.525 165.101L512.439 162.469L516.525 165.101ZM407.742 359.231L407.009 364.036L407.742 359.231ZM396.095 373.437L400.529 371.446L396.095 373.437ZM396.927 369.502L393.56 365.997L396.927 369.502ZM316.45 380.558L319.096 384.635L316.45 380.558ZM321.237 381.315L317.412 384.314L321.237 381.315ZM231.978 374.705L228.78 371.044L231.978 374.705ZM237.388 374.701L234.075 378.257L237.388 374.701ZM119.181 346.916L114.32 346.944L119.181 346.916ZM32.8041 286.853L31.4909 291.533L32.8041 286.853ZM21.623 220.852L24.5287 216.956L21.623 220.852ZM21.8141 227.791L18.6253 224.122L21.8141 227.791ZM521.39 254.649L516.835 256.347L521.39 254.649ZM523.099 249.459L520.332 245.463L523.099 249.459ZM51.1013 70.4223L46.2613 69.9741L51.1013 70.4223ZM467.837 319.188L463.311 317.416L463.311 317.416L467.837 319.188ZM472.211 317.008L473.282 312.266L473.282 312.266L472.211 317.008ZM16.807 151.431L20.8416 148.72L16.807 151.431ZM16.0381 156.711L19.2605 160.35L16.0381 156.711ZM20.8416 148.72C11.5366 134.872 13.0564 118.477 20.0202 104.588C23.4893 97.6692 28.2296 91.5743 33.3668 87.023C38.5518 82.4293 43.8579 79.652 48.4089 78.8797L46.7824 69.2953C39.8773 70.4671 32.9619 74.3938 26.9202 79.7465C20.8306 85.1417 15.3387 92.2357 11.3299 100.231C3.33803 116.17 0.919632 136.502 12.7725 154.142L20.8416 148.72ZM24.5287 216.956C15.3826 210.135 10.5786 199.027 9.93478 187.777C9.28456 176.416 12.9177 165.967 19.2605 160.35L12.8157 153.072C3.5858 161.245 -0.533645 175.003 0.229233 188.333C0.998509 201.775 6.7733 215.842 18.7173 224.749L24.5287 216.956ZM34.1173 282.173C25.1302 279.651 18.5334 270.95 16.4491 260.251C14.3755 249.608 17.0674 238.357 25.0029 231.459L18.6253 224.122C7.4388 233.846 4.34534 248.961 6.90709 262.11C9.45809 275.204 17.9173 287.724 31.4909 291.533L34.1173 282.173ZM113.112 338.269C93.3815 343.473 73.5048 342.556 59.6044 335.104C52.7331 331.42 47.3276 326.155 43.9462 319.179C40.5566 312.186 39.0422 303.141 40.5231 291.667L30.8817 290.423C29.2081 303.39 30.8298 314.406 35.1982 323.419C39.5748 332.449 46.5492 339.135 55.0109 343.672C71.7767 352.66 94.3789 353.264 115.591 347.669L113.112 338.269ZM228.78 371.044C223.39 375.753 214.22 379.255 202.877 380.951C191.663 382.628 178.916 382.448 166.929 380.318C154.898 378.181 143.989 374.144 136.199 368.392C128.505 362.712 124.092 355.586 124.042 346.887L114.32 346.944C114.393 359.463 120.943 369.213 130.425 376.213C139.81 383.142 152.289 387.591 165.229 389.89C178.213 392.197 192.02 392.404 204.315 390.566C216.481 388.747 227.775 384.831 235.176 378.365L228.78 371.044ZM313.804 376.481C303.891 382.914 290.414 386.147 276.852 385.397C263.305 384.648 250.159 379.957 240.702 371.145L234.075 378.257C245.54 388.941 261.016 394.258 276.315 395.103C291.599 395.948 307.191 392.362 319.096 384.635L313.804 376.481ZM317.412 384.314C422.257 518.059 477.983 549.525 506.218 565.385L510.979 556.909C483.936 541.719 429.172 511.123 325.062 378.317L317.412 384.314ZM506.218 565.385C515.084 570.365 520.136 573.273 523.373 576.947L530.667 570.52C526.091 565.326 519.295 561.58 510.979 556.909L506.218 565.385ZM530.667 570.52C466.169 497.314 423.196 421.912 400.529 371.446L391.661 375.429C414.674 426.666 458.151 502.919 523.373 576.947L530.667 570.52ZM400.242 358.039C398.224 361.017 395.982 363.67 393.56 365.997L400.294 373.008C403.219 370.198 405.899 367.021 408.29 363.493L400.242 358.039ZM463.311 317.416C456.296 335.33 449.723 345.327 441.797 350.55C434.051 355.654 424.056 356.804 408.476 354.426L407.009 364.036C423.415 366.541 436.382 365.76 447.146 358.667C457.729 351.693 465.21 339.227 472.363 320.961L463.311 317.416ZM516.835 256.347C520.843 267.1 516.791 282.574 507.426 295.079C498.054 307.593 485.074 314.928 473.282 312.266L471.141 321.749C488.414 325.648 504.845 314.742 515.208 300.906C525.577 287.06 531.581 268.075 525.944 252.952L516.835 256.347ZM515.446 176.796C524.355 182.574 530.127 196.519 531.021 211.688C531.458 219.095 530.686 226.353 528.777 232.409C526.851 238.518 523.911 242.986 520.332 245.463L525.866 253.456C531.829 249.328 535.74 242.656 538.049 235.332C540.374 227.955 541.219 219.487 540.726 211.116C539.76 194.728 533.485 176.908 520.735 168.64L515.446 176.796ZM500.616 101.301C503.44 102.066 506.511 104.601 509.363 109.281C512.161 113.873 514.387 119.966 515.756 126.657C517.12 133.328 517.587 140.372 517.024 146.775C516.455 153.239 514.87 158.693 512.439 162.469L520.612 167.732C524.199 162.161 526.06 154.992 526.708 147.627C527.361 140.202 526.814 132.212 525.28 124.709C523.75 117.228 521.191 110.01 517.664 104.222C514.19 98.5211 509.394 93.6059 503.155 91.9175L500.616 101.301ZM458.406 45.6693C462.01 43.9656 465.701 44.1761 469.556 46.0336C473.546 47.9568 477.6 51.6279 481.214 56.5476C488.527 66.5001 492.921 79.9762 491.956 89.6351L501.629 90.602C502.895 77.9367 497.37 62.1169 489.049 50.7915C484.846 45.0724 479.654 40.109 473.776 37.276C467.761 34.3773 460.959 33.7099 454.252 36.8801L458.406 45.6693ZM387.959 25.2485C395.283 19.4812 407.222 17.9447 419.078 20.979C430.868 23.9962 441.242 31.2047 445.738 41.1715L454.6 37.1743C448.545 23.7502 435.216 15.0743 421.489 11.5611C407.828 8.06504 392.433 9.35232 381.945 17.6105L387.959 25.2485ZM298.309 22.9951C304.872 14.7196 319.524 9.77227 335.79 9.8619C351.966 9.95104 367.448 15.0259 375.319 24.0911L382.66 17.7175C372.173 5.64001 353.351 0.237085 335.843 0.140612C318.425 0.044632 300.011 5.20387 290.692 16.9544L298.309 22.9951ZM211.819 23.8023C214.463 20.5812 218.961 17.764 224.991 15.7317C230.961 13.719 238.081 12.599 245.507 12.5099C260.546 12.3295 275.719 16.3635 284.735 24.3152L291.165 17.0244C279.662 6.87876 261.741 2.59304 245.39 2.78921C237.121 2.88842 228.972 4.13086 221.885 6.5195C214.857 8.8885 208.51 12.5115 204.305 17.6344L211.819 23.8023ZM125.964 38.7707C140.151 15.0684 175.881 8.21858 199.238 25.5705L205.036 17.7669C177.294 -2.84254 134.91 4.89655 117.623 33.778L125.964 38.7707ZM55.9413 70.8704C57.1336 57.9937 66.2232 47.0224 78.0975 41.0694C90.0089 35.0978 103.552 34.7327 113.237 41.4446L118.775 33.4542C105.335 24.141 87.8089 25.326 73.7407 32.3789C59.6353 39.4504 47.835 52.9781 46.2613 69.9741L55.9413 70.8704ZM117.623 33.778C117.812 33.4616 118.078 33.3472 118.218 33.3195C118.349 33.2935 118.555 33.3018 118.775 33.4542L113.237 41.4446C117.297 44.258 123.263 43.2837 125.964 38.7707L117.623 33.778ZM204.305 17.6344C204.34 17.5917 204.365 17.5764 204.37 17.5736C204.374 17.5714 204.382 17.5666 204.406 17.5625C204.443 17.556 204.717 17.5301 205.036 17.7669L199.238 25.5705C203.482 28.7233 209.038 27.1902 211.819 23.8023L204.305 17.6344ZM290.692 16.9544C290.758 16.872 290.812 16.8403 290.823 16.8345C290.832 16.8302 290.822 16.8359 290.803 16.838C290.785 16.84 290.804 16.8335 290.863 16.8502C290.928 16.8687 291.044 16.9171 291.165 17.0244L284.735 24.3152C288.846 27.9412 295.171 26.9523 298.309 22.9951L290.692 16.9544ZM381.945 17.6105C382.11 17.4799 382.238 17.4809 382.275 17.4841C382.316 17.4876 382.485 17.5169 382.66 17.7175L375.319 24.0911C378.549 27.8107 384.215 28.1964 387.959 25.2485L381.945 17.6105ZM454.252 36.8801C454.285 36.8643 454.312 36.8559 454.33 36.8517C454.347 36.8475 454.356 36.8471 454.357 36.847C454.357 36.847 454.352 36.8472 454.344 36.8461C454.336 36.845 454.33 36.8432 454.326 36.8418C454.313 36.8376 454.34 36.8432 454.393 36.8884C454.452 36.9382 454.536 37.0324 454.6 37.1743L445.738 41.1715C447.986 46.1552 454.007 47.7486 458.406 45.6693L454.252 36.8801ZM503.155 91.9175C503.092 91.9004 502.914 91.8351 502.667 91.6658C502.425 91.5004 502.188 91.284 501.992 91.0455C501.795 90.8041 501.691 90.603 501.647 90.4865C501.604 90.372 501.647 90.42 501.629 90.602L491.956 89.6351C491.648 92.7182 492.996 95.4048 494.473 97.2073C495.973 99.0377 498.139 100.631 500.616 101.301L503.155 91.9175ZM520.735 168.64C520.851 168.715 520.856 168.758 520.807 168.678C520.757 168.597 520.691 168.45 520.651 168.251C520.611 168.053 520.611 167.877 520.629 167.757C520.646 167.636 520.669 167.644 520.612 167.732L512.439 162.469C510.861 164.919 510.643 167.807 511.122 170.179C511.602 172.548 512.937 175.169 515.446 176.796L520.735 168.64ZM408.29 363.493C408.03 363.876 407.554 364.119 407.009 364.036L408.476 354.426C405.227 353.93 402.037 355.391 400.242 358.039L408.29 363.493ZM400.529 371.446C400.84 372.137 400.57 372.743 400.294 373.008L393.56 365.997C391.148 368.313 390.137 372.036 391.661 375.429L400.529 371.446ZM319.096 384.635C318.819 384.815 318.516 384.863 318.253 384.822C317.983 384.78 317.658 384.628 317.412 384.314L325.062 378.317C322.313 374.81 317.373 374.165 313.804 376.481L319.096 384.635ZM235.176 378.365C235.033 378.489 234.878 378.537 234.735 378.538C234.579 378.539 234.316 378.482 234.075 378.257L240.702 371.145C237.239 367.918 232.038 368.197 228.78 371.044L235.176 378.365ZM115.591 347.669C115.078 347.804 114.691 347.603 114.557 347.491C114.445 347.398 114.322 347.226 114.32 346.944L124.042 346.887C124.011 341.65 119.035 336.706 113.112 338.269L115.591 347.669ZM31.4909 291.533C31.3018 291.479 31.1589 291.371 31.0584 291.228C30.9501 291.075 30.8344 290.789 30.8817 290.423L40.5231 291.667C41.1071 287.142 38.0393 283.273 34.1173 282.173L31.4909 291.533ZM18.7173 224.749C18.5673 224.637 18.4882 224.515 18.455 224.444C18.4259 224.383 18.4306 224.362 18.4311 224.381C18.4316 224.4 18.4261 224.398 18.44 224.363C18.4565 224.323 18.5073 224.225 18.6253 224.122L25.0029 231.459C27.2728 229.486 28.2114 226.678 28.1496 224.144C28.0878 221.605 27.0033 218.801 24.5287 216.956L18.7173 224.749ZM525.944 252.952C526.02 253.155 525.987 253.292 525.975 253.325C525.966 253.352 525.945 253.401 525.866 253.456L520.332 245.463C516.995 247.773 515.306 252.245 516.835 256.347L525.944 252.952ZM48.4089 78.8797C52.238 78.2299 55.5499 75.0967 55.9413 70.8704L46.2613 69.9741C46.2854 69.7132 46.3987 69.538 46.4822 69.4518C46.5595 69.3721 46.6572 69.3166 46.7824 69.2953L48.4089 78.8797ZM472.363 320.961C472.215 321.339 471.944 321.571 471.727 321.676C471.528 321.773 471.328 321.791 471.141 321.749L473.282 312.266C469.446 311.401 464.966 313.191 463.311 317.416L472.363 320.961ZM12.7725 154.142C12.5928 153.875 12.5757 153.613 12.5985 153.463C12.6195 153.325 12.6846 153.188 12.8157 153.072L19.2605 160.35C22.4243 157.549 23.4313 152.574 20.8416 148.72L12.7725 154.142Z" fill="#1B0C0C"/>
</svg>
