<svg width="661" height="701" viewBox="0 0 661 701" fill="none" xmlns="http://www.w3.org/2000/svg">
<path fill-rule="evenodd" clip-rule="evenodd" d="M62.3459 85.9605C62.1359 88.2293 60.3077 90.059 58.0613 90.4402C30.0574 95.1924 -5.4287 146.486 20.4308 184.971C21.7958 187.002 21.3233 189.802 19.491 191.425C0.457694 208.279 0.540261 250.597 26.317 269.819C28.9557 271.787 29.0348 276.14 26.5505 278.3C3.17928 298.614 12.4086 342.749 39.9827 350.486C42.2293 351.117 43.8238 353.296 43.5251 355.61C35.8142 415.356 89.6108 432.273 139.652 419.073C142.621 418.289 145.537 420.826 145.554 423.896C145.855 475.761 252.153 485.177 283.417 457.861C285.296 456.219 288.203 456.154 290.029 457.855C295.023 462.509 300.735 466.278 306.893 469.202C307.479 469.48 308.01 469.9 308.414 470.409C430.718 624.383 496.027 661.067 529.065 679.624C539.564 685.521 546.805 689.588 551.579 695.007C476.465 609.751 425.091 522.068 396.159 460.229C395.592 459.016 395.879 457.599 396.797 456.623V456.623C397.898 455.45 399.685 455.197 401.05 456.048C435.178 477.316 473.554 470.974 493.988 440.829C494.926 439.446 496.588 438.696 498.24 438.948C537.334 444.917 554.372 434.229 571.69 390.008C572.509 387.914 574.843 386.848 577.036 387.343C612.56 395.361 648.931 342.753 637.143 311.127C636.29 308.84 637.225 306.172 639.231 304.783C662.555 288.636 659.583 228.156 633.11 210.988C630.294 209.162 629.381 204.5 631.197 201.679C645.91 178.827 635.461 123.963 613.304 117.967C610.035 117.083 606.743 113.403 607.079 110.034C609.807 82.7486 582.831 38.4216 557.624 50.3357C554.913 51.6169 551.328 50.4998 550.095 47.7668C537.199 19.178 492.156 8.93821 470.385 26.0805C468.222 27.7834 464.902 27.5171 463.098 25.4386C440.66 -0.402493 379.245 -0.173759 359.834 24.3024C357.947 26.6814 354.105 27.1604 351.827 25.1519C326.75 3.03302 270.929 4.8149 254.187 25.2113C252.439 27.3405 249.156 28.0156 246.945 26.3728C215.718 3.17425 167.981 12.0897 148.747 44.2242C147.31 46.6246 143.973 47.2538 141.674 45.6603C113.41 26.0741 65.7267 49.4494 62.3459 85.9605Z" fill="white"/>
<path d="M529.065 679.624L526.155 684.803L526.155 684.803L529.065 679.624ZM547.122 698.935C549.291 701.397 553.045 701.634 555.506 699.465C557.968 697.296 558.206 693.542 556.037 691.08L547.122 698.935ZM148.747 44.2242L143.65 41.173L148.747 44.2242ZM141.674 45.6603L138.29 50.5433L141.674 45.6603ZM254.187 25.2113L249.595 21.442L254.187 25.2113ZM359.834 24.3024L355.179 20.6109L359.834 24.3024ZM351.827 25.1519L347.898 29.6074L351.827 25.1519ZM470.385 26.0805L474.06 30.7481L470.385 26.0805ZM463.098 25.4386L458.612 29.3336L463.098 25.4386ZM557.624 50.3357L555.085 44.9646L557.624 50.3357ZM550.095 47.7668L555.51 45.3241L550.095 47.7668ZM613.304 117.967L611.752 123.702L613.304 117.967ZM607.079 110.034L612.991 110.625L607.079 110.034ZM633.11 210.988L629.877 215.973L633.11 210.988ZM631.197 201.679L626.202 198.463L631.197 201.679ZM637.143 311.127L642.709 309.052L637.143 311.127ZM639.231 304.783L635.85 299.899L639.231 304.783ZM401.05 456.048L397.908 461.089L401.05 456.048ZM306.893 469.202L304.344 474.568L306.893 469.202ZM308.414 470.409L313.066 466.713L308.414 470.409ZM283.417 457.861L279.508 453.387L283.417 457.861ZM290.029 457.855L294.079 453.508L290.029 457.855ZM145.554 423.896L139.614 423.931L145.554 423.896ZM39.9827 350.486L41.5877 344.766L39.9827 350.486ZM43.5251 355.61L37.6331 354.85L43.5251 355.61ZM26.317 269.819L22.7655 274.582L26.317 269.819ZM26.5505 278.3L30.4479 282.783L26.5505 278.3ZM571.69 390.008L577.221 392.174L571.69 390.008ZM577.036 387.343L578.344 381.548L577.036 387.343ZM58.0613 90.4402L59.0552 96.2974L58.0613 90.4402ZM493.988 440.829L498.906 444.163L493.988 440.829ZM20.4308 184.971L25.3619 181.658L20.4308 184.971ZM19.491 191.425L15.5526 186.977L19.491 191.425ZM25.3619 181.658C13.9892 164.732 15.8467 144.694 24.358 127.719C28.598 119.262 34.3918 111.813 40.6705 106.25C47.0078 100.636 53.493 97.2413 59.0552 96.2974L57.0674 84.5831C48.6277 86.0153 40.1757 90.8146 32.7913 97.3568C25.3484 103.951 18.6362 112.621 13.7366 122.393C3.96871 141.874 1.01289 166.725 15.4997 188.284L25.3619 181.658ZM29.8684 265.057C18.6899 256.721 12.8183 243.144 12.0314 229.394C11.2367 215.508 15.6772 202.737 23.4295 195.872L15.5526 186.977C4.27153 196.966 -0.763339 213.781 0.169068 230.073C1.1093 246.502 8.16737 263.696 22.7655 274.582L29.8684 265.057ZM41.5877 344.766C30.6035 341.684 22.5409 331.05 19.9934 317.973C17.459 304.965 20.749 291.214 30.4479 282.783L22.6531 273.816C8.98076 285.7 5.19986 304.174 8.33088 320.246C11.4488 336.25 21.7878 351.551 38.3777 356.206L41.5877 344.766ZM138.136 413.328C114.022 419.689 89.728 418.569 72.7386 409.46C64.3404 404.957 57.7336 398.523 53.6009 389.996C49.4581 381.449 47.6072 370.395 49.4171 356.371L37.6331 354.85C35.5876 370.698 37.5697 384.163 42.9089 395.179C48.2581 406.215 56.7823 414.387 67.1244 419.932C87.6158 430.918 115.241 431.656 141.167 424.817L138.136 413.328ZM279.508 453.387C272.921 459.142 261.713 463.423 247.85 465.496C234.143 467.545 218.564 467.325 203.913 464.722C189.208 462.109 175.876 457.175 166.354 450.146C156.951 443.203 151.557 434.493 151.495 423.862L139.614 423.931C139.702 439.232 147.708 451.148 159.297 459.704C170.768 468.174 186.02 473.611 201.835 476.421C217.705 479.24 234.58 479.494 249.607 477.247C264.477 475.023 278.281 470.237 287.326 462.335L279.508 453.387ZM309.441 463.835C303.783 461.149 298.589 457.711 294.079 453.508L285.978 462.201C291.456 467.306 297.686 471.407 304.344 474.568L309.441 463.835ZM303.763 474.104C426.522 628.652 492.414 665.851 526.155 684.803L531.974 674.444C499.639 656.282 434.914 620.114 313.066 466.713L303.763 474.104ZM526.155 684.803C536.991 690.89 543.166 694.445 547.122 698.935L556.037 691.08C550.443 684.732 542.138 680.153 531.974 674.444L526.155 684.803ZM556.037 691.08C481.345 606.304 430.267 519.112 401.54 457.711L390.778 462.747C419.915 525.025 471.585 613.198 547.122 698.935L556.037 691.08ZM489.071 437.496C470.705 464.588 436.052 470.861 404.192 451.006L397.908 461.089C434.305 483.772 476.402 477.359 498.906 444.163L489.071 437.496ZM566.158 387.841C557.583 409.737 549.549 421.955 539.862 428.338C530.395 434.577 518.179 435.983 499.137 433.075L497.344 444.821C517.395 447.882 533.245 446.929 546.4 438.26C559.335 429.736 568.479 414.5 577.221 392.174L566.158 387.841ZM631.576 313.202C636.474 326.344 631.522 345.257 620.076 360.54C608.622 375.835 592.756 384.801 578.344 381.548L575.728 393.138C596.839 397.903 616.922 384.574 629.587 367.663C642.26 350.74 649.599 327.535 642.709 309.052L631.576 313.202ZM629.877 215.973C640.767 223.035 647.821 240.079 648.914 258.618C649.448 267.672 648.505 276.542 646.171 283.944C643.818 291.41 640.223 296.871 635.85 299.899L642.613 309.668C649.901 304.622 654.682 296.468 657.503 287.516C660.345 278.501 661.378 268.15 660.775 257.919C659.595 237.89 651.926 216.11 636.342 206.004L629.877 215.973ZM611.752 123.702C615.204 124.636 618.958 127.735 622.443 133.454C625.863 139.067 628.584 146.514 630.256 154.692C631.924 162.845 632.494 171.455 631.806 179.281C631.111 187.18 629.174 193.846 626.202 198.463L636.192 204.895C640.577 198.085 642.851 189.324 643.642 180.322C644.44 171.246 643.772 161.481 641.897 152.311C640.027 143.168 636.9 134.346 632.589 127.272C628.343 120.303 622.482 114.296 614.855 112.232L611.752 123.702ZM560.162 55.7069C564.568 53.6245 569.079 53.8818 573.79 56.1521C578.667 58.5028 583.621 62.9896 588.039 69.0026C596.977 81.1667 602.348 97.6375 601.168 109.443L612.991 110.625C614.538 95.1448 607.785 75.8095 597.614 61.9674C592.479 54.9773 586.133 48.9109 578.948 45.4485C571.597 41.9056 563.283 41.0898 555.085 44.9646L560.162 55.7069ZM474.06 30.7481C483.012 23.6992 497.604 21.8213 512.095 25.5299C526.505 29.2176 539.185 38.028 544.679 50.2095L555.51 45.3241C548.11 28.9168 531.82 18.313 515.041 14.0191C498.344 9.74616 479.528 11.3195 466.71 21.4128L474.06 30.7481ZM364.489 27.994C372.51 17.8795 390.418 11.8328 410.298 11.9423C430.07 12.0513 448.991 18.2539 458.612 29.3336L467.584 21.5436C454.766 6.78223 431.762 0.178665 410.364 0.0607543C389.075 -0.0565548 366.569 6.24918 355.179 20.6109L364.489 27.994ZM258.779 28.9805C262.01 25.0436 267.508 21.6004 274.877 19.1165C282.175 16.6565 290.876 15.2877 299.952 15.1788C318.334 14.9583 336.879 19.8887 347.898 29.6074L355.757 20.6965C341.698 8.29626 319.794 3.05816 299.81 3.29793C289.703 3.41919 279.743 4.93772 271.082 7.85717C262.492 10.7526 254.734 15.1808 249.595 21.442L258.779 28.9805ZM153.845 47.2753C171.184 18.3059 214.855 9.93381 243.402 31.1417L250.488 21.604C216.581 -3.58531 164.778 5.87357 143.65 41.173L153.845 47.2753ZM68.2615 86.5082C69.7188 70.77 80.8283 57.3606 95.3413 50.0847C109.9 42.7861 126.452 42.3399 138.29 50.5433L145.058 40.7773C128.632 29.3945 107.211 30.8428 90.0163 39.4631C72.7764 48.1061 58.3538 64.6399 56.4304 85.4127L68.2615 86.5082ZM143.65 41.173C143.881 40.7864 144.207 40.6466 144.378 40.6126C144.538 40.581 144.789 40.5911 145.058 40.7773L138.29 50.5433C143.252 53.982 150.543 52.7911 153.845 47.2753L143.65 41.173ZM249.595 21.442C249.638 21.3898 249.669 21.3712 249.675 21.3677C249.679 21.365 249.689 21.3592 249.718 21.3541C249.764 21.3462 250.098 21.3146 250.488 21.604L243.402 31.1417C248.589 34.9951 255.38 33.1213 258.779 28.9805L249.595 21.442ZM355.179 20.6109C355.259 20.5102 355.326 20.4715 355.34 20.4644C355.35 20.4591 355.338 20.4661 355.315 20.4686C355.293 20.4711 355.315 20.4632 355.387 20.4835C355.467 20.5061 355.608 20.5654 355.757 20.6965L347.898 29.6074C352.922 34.0392 360.653 32.8306 364.489 27.994L355.179 20.6109ZM466.71 21.4128C466.912 21.2532 467.068 21.2544 467.114 21.2583C467.164 21.2626 467.371 21.2984 467.584 21.5436L458.612 29.3336C462.559 33.8797 469.484 34.3511 474.06 30.7481L466.71 21.4128ZM555.085 44.9646C555.126 44.9452 555.159 44.935 555.18 44.9298C555.202 44.9247 555.213 44.9242 555.213 44.9241C555.214 44.9241 555.208 44.9243 555.198 44.923C555.189 44.9216 555.18 44.9194 555.175 44.9177C555.16 44.9126 555.193 44.9194 555.258 44.9747C555.329 45.0356 555.432 45.1507 555.51 45.3241L544.679 50.2095C547.427 56.3008 554.785 58.2482 560.162 55.7069L555.085 44.9646ZM614.855 112.232C614.778 112.212 614.561 112.132 614.259 111.925C613.964 111.723 613.673 111.458 613.435 111.167C613.193 110.872 613.066 110.626 613.012 110.483C612.96 110.343 613.013 110.402 612.991 110.625L601.168 109.443C600.791 113.211 602.439 116.495 604.244 118.698C606.078 120.935 608.725 122.883 611.752 123.702L614.855 112.232ZM636.342 206.004C636.485 206.096 636.49 206.149 636.43 206.051C636.369 205.952 636.289 205.772 636.239 205.529C636.19 205.286 636.191 205.071 636.212 204.925C636.234 204.777 636.262 204.787 636.192 204.895L626.202 198.463C624.275 201.456 624.007 204.986 624.593 207.885C625.179 210.781 626.811 213.984 629.877 215.973L636.342 206.004ZM642.709 309.052C642.802 309.3 642.761 309.467 642.747 309.508C642.736 309.542 642.71 309.601 642.613 309.668L635.85 299.899C631.772 302.722 629.707 308.188 631.576 313.202L642.709 309.052ZM401.126 460.691C400.336 461.532 399.006 461.774 397.908 461.089L404.192 451.006C400.364 448.62 395.461 449.369 392.467 452.554L401.126 460.691ZM401.54 457.711C402.098 458.904 401.717 460.063 401.126 460.691L392.467 452.554C390.042 455.135 389.085 459.128 390.778 462.747L401.54 457.711ZM304.344 474.568C304.122 474.463 303.93 474.315 303.763 474.104L313.066 466.713C312.09 465.485 310.836 464.498 309.441 463.835L304.344 474.568ZM287.326 462.335C287.153 462.485 286.964 462.544 286.788 462.545C286.596 462.546 286.274 462.476 285.978 462.201L294.079 453.508C289.844 449.562 283.489 449.909 279.508 453.387L287.326 462.335ZM141.167 424.817C140.539 424.982 140.067 424.737 139.903 424.6C139.766 424.486 139.616 424.276 139.614 423.931L151.495 423.862C151.458 417.46 145.376 411.419 138.136 413.328L141.167 424.817ZM38.3777 356.206C38.1466 356.141 37.9719 356.009 37.8491 355.835C37.7168 355.646 37.5753 355.298 37.6331 354.85L49.4171 356.371C50.1309 350.84 46.3813 346.111 41.5877 344.766L38.3777 356.206ZM22.7655 274.582C22.5823 274.445 22.4855 274.295 22.445 274.21C22.4094 274.134 22.4152 274.109 22.4158 274.132C22.4163 274.156 22.4097 274.152 22.4267 274.11C22.4468 274.061 22.5089 273.941 22.6531 273.816L30.4479 282.783C33.2222 280.372 34.3695 276.94 34.294 273.843C34.2184 270.74 32.8929 267.312 29.8684 265.057L22.7655 274.582ZM577.221 392.174C577.041 392.636 576.708 392.92 576.444 393.048C576.2 393.166 575.956 393.189 575.728 393.138L578.344 381.548C573.656 380.49 568.18 382.677 566.158 387.841L577.221 392.174ZM59.0552 96.2974C63.7353 95.5032 67.7832 91.6737 68.2615 86.5082L56.4304 85.4127C56.4599 85.0939 56.5984 84.8797 56.7004 84.7744C56.7949 84.6769 56.9143 84.6091 57.0674 84.5831L59.0552 96.2974ZM498.906 444.163C498.594 444.623 498.019 444.924 497.344 444.821L499.137 433.075C495.156 432.468 491.259 434.268 489.071 437.496L498.906 444.163ZM15.4997 188.284C15.2801 187.958 15.2591 187.637 15.287 187.455C15.3127 187.286 15.3923 187.119 15.5526 186.977L23.4295 195.872C27.2963 192.448 28.5272 186.368 25.3619 181.658L15.4997 188.284Z" fill="#1B0C0C"/>
</svg>
