<svg width="458" height="320" viewBox="0 0 458 320" fill="none" xmlns="http://www.w3.org/2000/svg">
<path fill-rule="evenodd" clip-rule="evenodd" d="M115.555 125.813C118.135 116.829 122.864 109.887 128.973 110.131C129.744 110.162 130.443 109.398 130.254 108.65C126.299 92.9109 142.927 61.9851 157.802 72.4533C158.38 72.8596 159.232 72.5963 159.444 71.9228C165.286 53.354 192.536 46.619 204.143 58.4028C204.603 58.869 205.398 58.801 205.763 58.258C217.151 41.336 254.144 41.4431 263.39 57.6176C263.747 58.2412 264.65 58.3452 265.124 57.8055C278.17 42.9521 312.081 44.0243 319.959 57.511C320.288 58.075 321.072 58.2243 321.561 57.7905C338.648 42.6138 366.433 48.0345 376.506 68.2301C376.802 68.8236 377.605 68.9666 378.101 68.5256C393.295 55.0011 421.371 69.3079 422.278 91.7104C422.299 92.2312 422.718 92.6533 423.238 92.6922C438.738 93.8512 459.98 125.377 444.168 148.302C443.863 148.744 443.963 149.358 444.388 149.686C456.339 158.903 456.479 186.585 440.088 197.201C439.476 197.598 439.464 198.525 440.06 198.945C455.553 209.869 450.357 238.81 433.809 242.374C433.294 242.485 432.937 242.992 433.016 243.512C438.519 279.828 407.684 289.724 379.845 281.143C379.17 280.935 378.498 281.528 378.565 282.231C381.634 314.646 319.53 320.674 303.729 303.406C303.327 302.966 302.628 302.964 302.227 303.404C286.746 320.42 256.408 318.9 243.446 303.596C243.12 303.211 242.548 303.135 242.134 303.423C223.489 316.354 202.229 312.655 191.171 294.597C190.964 294.259 190.56 294.077 190.169 294.147C168.276 298.055 159.027 291.894 149.288 265.189C149.107 264.691 148.54 264.43 148.036 264.593C128.11 271.047 106.859 238.225 114.912 219.89C115.129 219.397 114.92 218.815 114.45 218.553C106.582 214.18 103.484 200.56 104.918 187.692C36.6076 97.6833 21.8 51.2148 13.7085 25.8222C10.6821 16.325 8.59524 9.77609 5 5C41.451 53.4232 80.3665 94.0219 115.555 125.813Z" fill="white"/>
<path d="M128.973 110.131L128.802 114.407H128.802L128.973 110.131ZM115.555 125.813L112.686 128.989C113.781 129.979 115.31 130.334 116.73 129.929C118.15 129.523 119.261 128.414 119.668 126.995L115.555 125.813ZM130.254 108.65L134.405 107.607V107.607L130.254 108.65ZM157.802 72.4533L155.339 75.9532L155.339 75.9533L157.802 72.4533ZM159.444 71.9228L163.526 73.2073V73.2073L159.444 71.9228ZM204.143 58.4028L207.192 55.3995L207.192 55.3995L204.143 58.4028ZM205.763 58.258L202.213 55.8686V55.8686L205.763 58.258ZM263.39 57.6176L267.106 55.4937L267.106 55.4936L263.39 57.6176ZM265.124 57.8055L261.908 54.9812L261.908 54.9813L265.124 57.8055ZM319.959 57.511L323.654 55.3525L323.654 55.3524L319.959 57.511ZM321.561 57.7905L318.719 54.5907L318.719 54.5907L321.561 57.7905ZM376.506 68.2301L380.336 66.3201L380.335 66.32L376.506 68.2301ZM378.101 68.5256L375.255 65.3288V65.3288L378.101 68.5256ZM422.278 91.7104L418.002 91.8837V91.8839L422.278 91.7104ZM423.238 92.6922L422.919 96.96L423.238 92.6922ZM444.168 148.302L440.645 145.872L440.645 145.872L444.168 148.302ZM444.388 149.686L447.001 146.297V146.297L444.388 149.686ZM440.088 197.201L437.761 193.609L437.761 193.609L440.088 197.201ZM440.06 198.945L437.593 202.443L437.593 202.443L440.06 198.945ZM433.809 242.374L434.71 246.558L434.71 246.558L433.809 242.374ZM433.016 243.512L437.248 242.871V242.871L433.016 243.512ZM379.845 281.143L381.105 277.053H381.105L379.845 281.143ZM378.565 282.231L382.825 281.828L378.565 282.231ZM303.729 303.406L306.887 300.517L306.887 300.517L303.729 303.406ZM302.227 303.404L299.061 300.524L302.227 303.404ZM243.446 303.596L246.712 300.83L246.711 300.83L243.446 303.596ZM242.134 303.423L244.573 306.939L244.573 306.939L242.134 303.423ZM191.171 294.597L187.521 296.832L187.521 296.832L191.171 294.597ZM190.169 294.147L190.921 298.36L190.922 298.36L190.169 294.147ZM149.288 265.189L145.268 266.655L145.268 266.655L149.288 265.189ZM148.036 264.593L149.355 268.664H149.355L148.036 264.593ZM114.912 219.89L118.831 221.611L118.831 221.611L114.912 219.89ZM114.45 218.553L116.529 214.812H116.529L114.45 218.553ZM104.918 187.692L109.171 188.166C109.293 187.075 108.991 185.979 108.327 185.105L104.918 187.692ZM13.7085 25.8222L9.6307 27.1216L13.7085 25.8222ZM8.41929 2.4261C6.99777 0.537671 4.31452 0.159177 2.4261 1.58071C0.537671 3.00223 0.159177 5.68548 1.58071 7.5739L8.41929 2.4261ZM129.144 105.855C124.231 105.658 120.348 108.41 117.602 111.834C114.857 115.256 112.823 119.82 111.441 124.632L119.668 126.995C120.867 122.823 122.488 119.423 124.279 117.189C126.07 114.957 127.606 114.36 128.802 114.407L129.144 105.855ZM126.104 109.693C125.789 108.439 126.272 107.41 126.763 106.852C127.246 106.305 128.068 105.812 129.144 105.855L128.802 114.407C130.649 114.481 132.207 113.621 133.184 112.513C134.17 111.394 134.908 109.609 134.405 107.607L126.104 109.693ZM160.265 68.9533C155.179 65.3741 149.705 65.3409 144.858 67.6005C140.278 69.7357 136.387 73.8194 133.392 78.371C130.356 82.9835 127.993 88.4454 126.646 93.8459C125.312 99.1917 124.883 104.838 126.104 109.693L134.405 107.607C133.647 104.592 133.814 100.471 134.951 95.9185C136.073 91.421 138.055 86.8546 140.542 83.0768C143.068 79.2381 145.877 76.5695 148.475 75.3584C150.806 74.2718 152.988 74.2983 155.339 75.9532L160.265 68.9533ZM155.361 70.6383C156.071 68.3815 158.618 67.7941 160.265 68.9533L155.339 75.9533C158.141 77.9251 162.392 76.811 163.526 73.2073L155.361 70.6383ZM207.192 55.3995C199.912 48.0082 188.357 46.878 178.472 49.6609C168.484 52.4727 158.826 59.6253 155.361 70.6383L163.526 73.2073C165.903 65.6516 172.792 60.1522 180.791 57.9002C188.894 55.6194 196.768 57.0136 201.094 61.4061L207.192 55.3995ZM202.213 55.8686C203.383 54.1299 205.783 53.969 207.192 55.3995L201.094 61.4061C203.422 63.7691 207.413 63.4721 209.314 60.6475L202.213 55.8686ZM267.106 55.4936C264.18 50.376 259.234 46.8107 253.705 44.5524C248.155 42.2855 241.736 41.211 235.356 41.2469C222.867 41.3173 209.041 45.7216 202.213 55.8686L209.314 60.6475C213.873 53.8724 224.238 49.8693 235.404 49.8064C240.852 49.7757 246.126 50.703 250.469 52.4765C254.832 54.2585 257.977 56.772 259.675 59.7416L267.106 55.4936ZM261.908 54.9813C263.434 53.2435 266.051 53.6488 267.106 55.4937L259.675 59.7415C261.442 62.8336 265.865 63.4469 268.34 60.6297L261.908 54.9813ZM323.654 55.3524C321.031 50.8619 316.482 47.7663 311.468 45.7954C306.405 43.8056 300.487 42.8034 294.517 42.7511C282.78 42.6482 269.58 46.2467 261.908 54.9812L268.339 60.6298C273.714 54.5109 283.992 51.2187 294.442 51.3103C299.565 51.3552 304.418 52.2215 308.337 53.7617C312.303 55.3208 314.947 57.4167 316.263 59.6696L323.654 55.3524ZM318.719 54.5907C320.382 53.1129 322.712 53.7398 323.654 55.3525L316.263 59.6695C317.864 62.4103 321.762 63.3357 324.403 60.9904L318.719 54.5907ZM380.335 66.32C368.999 43.5904 337.901 37.5527 318.719 54.5907L324.403 60.9904C339.394 47.675 363.867 52.4787 372.676 70.1402L380.335 66.32ZM375.255 65.3288C376.798 63.9556 379.333 64.3102 380.336 66.3201L372.676 70.1401C374.27 73.337 378.412 73.9776 380.946 71.7225L375.255 65.3288ZM426.555 91.5372C426.027 78.519 417.642 68.0999 407.518 62.8466C397.434 57.6138 384.569 57.0386 375.255 65.3288L380.946 71.7225C386.827 66.4881 395.597 66.304 403.576 70.4442C411.515 74.5638 417.622 82.4993 418.002 91.8837L426.555 91.5372ZM423.557 88.4243C425.143 88.5428 426.485 89.8244 426.555 91.537L418.002 91.8839C418.114 94.6381 420.294 96.7638 422.919 96.96L423.557 88.4243ZM447.691 150.732C456.744 137.606 455 122.254 449.297 110.471C446.432 104.551 442.485 99.3197 438.109 95.4431C433.801 91.6263 428.715 88.8099 423.557 88.4243L422.919 96.96C425.512 97.1539 428.893 98.713 432.433 101.85C435.906 104.927 439.186 109.227 441.593 114.199C446.433 124.2 447.403 136.074 440.645 145.872L447.691 150.732ZM447.001 146.297C448.355 147.341 448.695 149.276 447.691 150.732L440.645 145.872C439.031 148.211 439.571 151.376 441.774 153.075L447.001 146.297ZM442.414 200.793C452.08 194.533 456.568 183.485 457.14 173.155C457.703 162.966 454.508 152.086 447.001 146.297L441.774 153.075C446.219 156.503 449.069 164.072 448.593 172.682C448.125 181.152 444.487 189.253 437.761 193.609L442.414 200.793ZM442.526 195.447C444.367 196.745 444.387 199.516 442.414 200.793L437.761 193.609C434.565 195.679 434.561 200.305 437.593 202.443L442.526 195.447ZM434.71 246.558C445.384 244.259 451.595 234.086 453.177 224.088C454.775 213.985 452.009 202.134 442.526 195.447L437.593 202.443C443.603 206.68 445.986 214.762 444.722 222.751C443.442 230.846 438.782 236.925 432.907 238.191L434.71 246.558ZM437.248 242.871C437.514 244.63 436.362 246.202 434.71 246.558L432.908 238.191C430.226 238.768 428.36 241.354 428.785 244.154L437.248 242.871ZM378.584 285.233C393.214 289.743 409.191 289.594 421.041 282.889C427.039 279.496 431.923 274.44 434.873 267.618C437.81 260.828 438.716 252.559 437.248 242.871L428.785 244.154C430.068 252.623 429.183 259.21 427.016 264.221C424.863 269.201 421.329 272.892 416.826 275.439C407.675 280.616 394.315 281.125 381.105 277.053L378.584 285.233ZM382.825 281.828C383.019 283.873 381.097 286.008 378.584 285.233L381.105 277.053C377.242 275.862 373.977 279.183 374.304 282.635L382.825 281.828ZM300.572 306.295C305.455 311.631 313.404 314.735 321.804 316.16C330.338 317.608 340.012 317.444 349.057 315.647C358.061 313.859 366.801 310.379 373.181 304.886C379.694 299.279 383.744 291.53 382.825 281.828L374.304 282.635C374.92 289.14 372.358 294.3 367.596 298.4C362.7 302.615 355.503 305.64 347.389 307.252C339.317 308.855 330.694 308.987 323.236 307.721C315.644 306.433 309.904 303.815 306.887 300.517L300.572 306.295ZM305.392 306.284C304.079 307.728 301.849 307.691 300.572 306.295L306.887 300.517C304.805 298.242 301.176 298.199 299.061 300.524L305.392 306.284ZM240.18 306.363C247.65 315.182 259.78 319.72 271.828 319.9C283.925 320.08 296.66 315.883 305.392 306.284L299.061 300.524C292.313 307.942 282.139 311.493 271.956 311.341C261.724 311.189 252.204 307.315 246.712 300.83L240.18 306.363ZM244.573 306.939C243.169 307.913 241.273 307.652 240.18 306.363L246.711 300.83C244.967 298.77 241.928 298.357 239.694 299.906L244.573 306.939ZM187.521 296.832C193.648 306.837 202.753 313.058 213.076 314.848C223.366 316.632 234.463 313.951 244.573 306.939L239.694 299.906C231.159 305.826 222.305 307.761 214.539 306.414C206.806 305.073 199.752 300.415 194.82 292.362L187.521 296.832ZM190.922 298.36C189.578 298.6 188.234 297.997 187.521 296.832L194.82 292.362C193.693 290.52 191.541 289.554 189.417 289.934L190.922 298.36ZM145.268 266.655C150.168 280.095 155.282 289.445 162.715 294.653C170.392 300.031 179.603 300.38 190.921 298.36L189.417 289.934C178.843 291.821 172.482 291.044 167.626 287.642C162.527 284.07 158.147 276.988 153.309 263.722L145.268 266.655ZM149.355 268.664C147.774 269.176 145.913 268.424 145.268 266.655L153.309 263.722C152.301 260.957 149.306 259.683 146.717 260.521L149.355 268.664ZM110.994 218.169C106.107 229.295 110.27 243.719 117.478 253.995C124.628 264.189 136.639 272.783 149.355 268.664L146.717 260.521C139.507 262.857 130.93 258.267 124.486 249.08C118.1 239.975 115.664 228.821 118.831 221.611L110.994 218.169ZM112.371 222.294C110.988 221.525 110.287 219.778 110.994 218.169L118.831 221.611C119.971 219.015 118.853 216.104 116.529 214.812L112.371 222.294ZM100.665 187.218C99.8967 194.108 100.324 201.298 102.079 207.477C103.802 213.546 107.014 219.317 112.371 222.294L116.529 214.812C114.017 213.416 111.747 210.19 110.313 205.139C108.91 200.198 108.505 194.144 109.171 188.166L100.665 187.218ZM108.327 185.105C40.339 95.5207 25.7445 49.4971 17.7862 24.5228L9.6307 27.1216C17.8556 52.9326 32.8761 99.8459 101.509 190.28L108.327 185.105ZM17.7862 24.5228C14.8441 15.2899 12.5511 7.91496 8.41929 2.4261L1.58071 7.5739C4.6394 11.6372 6.52014 17.3602 9.6307 27.1216L17.7862 24.5228ZM1.58071 7.5739C38.2167 56.2428 77.3231 97.0401 112.686 128.989L118.424 122.638C83.4099 91.0037 44.6853 50.6036 8.41929 2.4261L1.58071 7.5739Z" fill="#1B0C0C"/>
</svg>
