<svg width="492" height="280" viewBox="0 0 492 280" fill="none" xmlns="http://www.w3.org/2000/svg">
<path fill-rule="evenodd" clip-rule="evenodd" d="M478.483 107.776C478.179 108.218 478.279 108.833 478.703 109.16C490.655 118.377 490.795 146.059 474.403 156.675C473.791 157.072 473.779 157.999 474.375 158.419C489.868 169.343 484.672 198.285 468.124 201.849C467.609 201.959 467.253 202.466 467.331 202.987C472.834 239.302 442 249.199 414.16 240.617C413.485 240.409 412.813 241.002 412.88 241.705C415.949 274.12 353.846 280.148 338.045 262.88C337.642 262.441 336.943 262.438 336.542 262.878C321.061 279.894 290.724 278.375 277.761 263.071C277.435 262.686 276.864 262.609 276.449 262.897C257.804 275.829 236.545 272.129 225.486 254.071C225.279 253.733 224.875 253.551 224.485 253.621C202.592 257.529 193.342 251.368 183.604 224.663C183.422 224.165 182.855 223.904 182.351 224.067C165.587 229.497 147.884 207.126 147.485 188.971C65.5858 139.466 37.1872 106.325 21.1297 87.5865C14.6438 80.0176 10.1714 74.7983 5 71.7993C52.8024 99.5209 99.9588 120.454 141.857 135.74C144.163 129.477 147.805 124.365 152.742 122.044C153.417 121.726 153.598 120.771 153.096 120.22C142.181 108.234 148.916 69.0307 163.288 69.6052C164.06 69.6361 164.758 68.8726 164.57 68.124C160.614 52.3851 177.243 21.4593 192.117 31.9274C192.695 32.3337 193.547 32.0704 193.759 31.397C199.601 12.8282 226.852 6.09312 238.459 17.877C238.918 18.3432 239.713 18.2751 240.079 17.7322C251.467 0.810182 288.459 0.917303 297.706 17.0918C298.062 17.7154 298.965 17.8194 299.439 17.2797C312.485 2.42622 346.397 3.49844 354.274 16.9852C354.604 17.5492 355.388 17.6985 355.876 17.2647C372.963 2.08801 400.748 7.50871 410.821 27.7042C411.117 28.2978 411.92 28.4408 412.416 27.9998C427.61 14.4753 455.686 28.782 456.594 51.1846C456.615 51.7054 457.034 52.1275 457.554 52.1663C473.054 53.3253 494.295 84.8515 478.483 107.776Z" fill="white"/>
<path d="M478.703 109.16L481.317 105.771L481.317 105.771L478.703 109.16ZM478.483 107.776L474.96 105.346L474.96 105.346L478.483 107.776ZM474.403 156.675L472.076 153.083L472.076 153.083L474.403 156.675ZM474.375 158.419L471.909 161.917L471.909 161.917L474.375 158.419ZM468.124 201.849L469.025 206.032L469.025 206.032L468.124 201.849ZM467.331 202.987L471.563 202.345L471.563 202.345L467.331 202.987ZM414.16 240.617L415.421 236.527L415.421 236.527L414.16 240.617ZM412.88 241.705L417.141 241.302L417.141 241.302L412.88 241.705ZM338.045 262.88L341.202 259.991L341.202 259.991L338.045 262.88ZM336.542 262.878L339.708 265.758L339.708 265.758L336.542 262.878ZM277.761 263.071L274.495 265.837L274.495 265.837L277.761 263.071ZM276.449 262.897L274.01 259.38L274.01 259.38L276.449 262.897ZM225.486 254.071L221.836 256.306L221.836 256.306L225.486 254.071ZM224.485 253.621L223.733 249.408L223.733 249.408L224.485 253.621ZM183.604 224.663L179.583 226.129L179.583 226.129L183.604 224.663ZM182.351 224.067L181.032 219.996L181.032 219.996L182.351 224.067ZM147.485 188.971L151.764 188.877C151.732 187.412 150.953 186.066 149.699 185.308L147.485 188.971ZM21.1297 87.5865L17.8799 90.3713L21.1297 87.5865ZM7.14703 68.097C5.10232 66.9113 2.4835 67.6076 1.29773 69.6523C0.111955 71.697 0.808264 74.3158 2.85297 75.5016L7.14703 68.097ZM141.857 135.74L140.39 139.761C142.606 140.569 145.058 139.433 145.873 137.219L141.857 135.74ZM152.742 122.044L150.922 118.171L150.922 118.171L152.742 122.044ZM153.096 120.22L156.26 117.338L156.26 117.338L153.096 120.22ZM163.288 69.6052L163.459 65.3289L163.459 65.3289L163.288 69.6052ZM164.57 68.124L168.72 67.0808L168.72 67.0808L164.57 68.124ZM192.117 31.9274L189.654 35.4274L189.654 35.4274L192.117 31.9274ZM193.759 31.397L197.841 32.6815L197.841 32.6815L193.759 31.397ZM238.459 17.877L241.508 14.8737L241.508 14.8736L238.459 17.877ZM240.079 17.7322L236.528 15.3428L236.528 15.3428L240.079 17.7322ZM297.706 17.0918L301.421 14.9678L301.421 14.9678L297.706 17.0918ZM299.439 17.2797L296.224 14.4554L296.224 14.4555L299.439 17.2797ZM354.274 16.9852L357.97 14.8267L357.97 14.8266L354.274 16.9852ZM355.876 17.2647L353.034 14.0648L353.034 14.0649L355.876 17.2647ZM410.821 27.7042L414.651 25.7943L414.651 25.7941L410.821 27.7042ZM412.416 27.9998L409.57 24.8029L409.57 24.8029L412.416 27.9998ZM456.594 51.1846L452.317 51.3579L452.317 51.358L456.594 51.1846ZM457.554 52.1663L457.234 56.4342L457.234 56.4342L457.554 52.1663ZM481.317 105.771C482.67 106.815 483.01 108.75 482.006 110.206L474.96 105.346C473.347 107.685 473.887 110.85 476.09 112.549L481.317 105.771ZM476.729 160.268C486.395 154.007 490.884 142.959 491.455 132.629C492.019 122.44 488.824 111.56 481.317 105.771L476.09 112.549C480.534 115.977 483.385 123.546 482.908 132.157C482.44 140.626 478.802 148.727 472.076 153.083L476.729 160.268ZM476.841 154.921C478.682 156.219 478.702 158.99 476.73 160.268L472.076 153.083C468.88 155.154 468.877 159.779 471.909 161.917L476.841 154.921ZM469.025 206.032C479.699 203.734 485.911 193.561 487.492 183.563C489.09 173.459 486.325 161.608 476.841 154.921L471.909 161.917C477.919 166.154 480.301 174.236 479.038 182.225C477.757 190.32 473.097 196.4 467.223 197.665L469.025 206.032ZM471.563 202.345C471.83 204.104 470.677 205.677 469.025 206.032L467.223 197.665C464.541 198.242 462.676 200.828 463.1 203.628L471.563 202.345ZM412.899 244.707C427.529 249.217 443.506 249.068 455.357 242.363C461.354 238.97 466.238 233.914 469.188 227.093C472.125 220.302 473.031 212.033 471.563 202.345L463.1 203.628C464.383 212.097 463.499 218.684 461.332 223.695C459.178 228.675 455.645 232.366 451.142 234.913C441.991 240.091 428.63 240.599 415.421 236.527L412.899 244.707ZM417.141 241.302C417.334 243.347 415.413 245.482 412.899 244.707L415.421 236.527C411.557 235.336 408.292 238.657 408.619 242.109L417.141 241.302ZM334.887 265.769C339.77 271.105 347.719 274.209 356.119 275.634C364.654 277.082 374.328 276.918 383.372 275.121C392.376 273.333 401.117 269.853 407.496 264.361C414.009 258.753 418.059 251.004 417.141 241.302L408.619 242.109C409.235 248.615 406.673 253.774 401.911 257.874C397.016 262.089 389.818 265.114 381.705 266.726C373.632 268.33 365.009 268.461 357.551 267.195C349.959 265.907 344.22 263.289 341.202 259.991L334.887 265.769ZM339.708 265.758C338.394 267.202 336.165 267.166 334.887 265.769L341.202 259.991C339.12 257.716 335.492 257.673 333.376 259.998L339.708 265.758ZM274.495 265.837C281.965 274.656 294.095 279.194 306.144 279.374C318.24 279.554 330.975 275.357 339.708 265.758L333.376 259.998C326.628 267.416 316.454 270.967 306.271 270.815C296.039 270.663 286.52 266.789 281.027 260.305L274.495 265.837ZM278.888 266.414C277.484 267.387 275.588 267.127 274.495 265.837L281.027 260.305C279.282 258.244 276.243 257.831 274.01 259.38L278.888 266.414ZM221.836 256.306C227.963 266.311 237.068 272.532 247.391 274.322C257.681 276.107 268.779 273.425 278.888 266.414L274.01 259.38C265.474 265.3 256.62 267.235 248.854 265.888C241.121 264.547 234.068 259.889 229.136 251.836L221.836 256.306ZM225.237 257.834C223.894 258.074 222.55 257.471 221.836 256.306L229.136 251.836C228.008 249.994 225.856 249.029 223.733 249.408L225.237 257.834ZM179.583 226.129C184.484 239.569 189.597 248.92 197.031 254.127C204.708 259.505 213.918 259.855 225.237 257.834L223.733 249.408C213.158 251.295 206.797 250.518 201.942 247.117C196.843 243.544 192.462 236.462 187.625 223.197L179.583 226.129ZM183.67 228.139C182.089 228.651 180.228 227.898 179.583 226.129L187.625 223.197C186.616 220.431 183.621 219.157 181.032 219.996L183.67 228.139ZM143.206 189.065C143.432 199.339 148.469 210.431 155.623 218.252C162.705 225.994 172.972 231.604 183.67 228.139L181.032 219.996C174.966 221.961 167.999 219.1 161.939 212.475C155.951 205.929 151.937 196.757 151.764 188.877L143.206 189.065ZM149.699 185.308C68.2494 136.075 40.1898 103.252 24.3795 84.8017L17.8799 90.3713C34.1846 109.399 62.9223 142.857 145.271 192.633L149.699 185.308ZM24.3795 84.8017C18.0741 77.4434 13.0902 71.5436 7.14703 68.097L2.85297 75.5016C7.25256 78.053 11.2135 82.5917 17.8799 90.3713L24.3795 84.8017ZM2.85297 75.5016C50.8988 103.364 98.2869 124.4 140.39 139.761L143.324 131.72C101.631 116.508 54.7059 95.6774 7.14703 68.097L2.85297 75.5016ZM150.922 118.171C144.544 121.169 140.338 127.481 137.841 134.262L145.873 137.219C147.989 131.473 151.066 127.561 154.563 125.917L150.922 118.171ZM149.932 123.101C149.154 122.247 149.006 121.203 149.158 120.412C149.31 119.617 149.846 118.676 150.922 118.171L154.563 125.917C157.901 124.348 158.66 119.973 156.26 117.338L149.932 123.101ZM163.459 65.3289C157.666 65.0973 153.351 68.923 150.52 73.2377C147.629 77.6418 145.627 83.4506 144.504 89.4098C143.374 95.4054 143.075 101.864 143.817 107.713C144.545 113.452 146.349 119.167 149.932 123.101L156.26 117.338C154.386 115.28 152.938 111.6 152.308 106.635C151.693 101.781 151.929 96.2268 152.915 90.9951C153.908 85.7271 155.602 81.0936 157.676 77.9341C159.808 74.6852 161.725 73.8259 163.118 73.8816L163.459 65.3289ZM160.419 69.1671C160.104 67.9134 160.587 66.8842 161.079 66.3263C161.561 65.7796 162.384 65.2859 163.459 65.3289L163.118 73.8816C164.965 73.9554 166.522 73.0954 167.499 71.9875C168.486 70.8684 169.224 69.0831 168.72 67.0808L160.419 69.1671ZM194.581 28.4275C189.495 24.8483 184.02 24.815 179.173 27.0746C174.593 29.2098 170.703 33.2936 167.707 37.8452C164.671 42.4577 162.309 47.9195 160.961 53.3201C159.627 58.6659 159.199 64.3122 160.419 69.1672L168.72 67.0808C167.963 64.0664 168.13 59.9448 169.266 55.3926C170.388 50.8951 172.371 46.3287 174.857 42.5509C177.384 38.7122 180.192 36.0437 182.79 34.8326C185.121 33.7459 187.303 33.7725 189.654 35.4274L194.581 28.4275ZM189.676 30.1125C190.387 27.8557 192.933 27.2683 194.581 28.4275L189.654 35.4274C192.456 37.3992 196.708 36.2852 197.841 32.6815L189.676 30.1125ZM241.508 14.8736C234.227 7.48231 222.673 6.35216 212.787 9.13507C202.799 11.9469 193.142 19.0994 189.676 30.1125L197.841 32.6815C200.219 25.1257 207.107 19.6263 215.107 17.3744C223.209 15.0935 231.083 16.4878 235.41 20.8803L241.508 14.8736ZM236.528 15.3428C237.698 13.6041 240.099 13.4431 241.508 14.8737L235.41 20.8802C237.737 23.2433 241.729 22.9462 243.629 20.1217L236.528 15.3428ZM301.421 14.9678C298.496 9.85013 293.55 6.28483 288.02 4.02651C282.47 1.75966 276.051 0.68513 269.671 0.721089C257.182 0.79148 243.357 5.19579 236.528 15.3428L243.629 20.1217C248.189 13.3466 258.553 9.34346 269.719 9.28052C275.167 9.24982 280.442 10.1772 284.784 11.9506C289.147 13.7327 292.293 16.2462 293.99 19.2158L301.421 14.9678ZM296.224 14.4555C297.75 12.7177 300.367 13.123 301.421 14.9678L293.99 19.2157C295.758 22.3078 300.181 22.9211 302.655 20.1039L296.224 14.4555ZM357.97 14.8266C355.347 10.3361 350.798 7.24048 345.783 5.26952C340.72 3.27972 334.802 2.27755 328.832 2.22523C317.096 2.12238 303.895 5.72086 296.224 14.4554L302.655 20.1039C308.029 13.985 318.307 10.6929 328.757 10.7845C333.881 10.8294 338.733 11.6957 342.652 13.2359C346.619 14.7949 349.263 16.8909 350.579 19.1437L357.97 14.8266ZM353.034 14.0649C354.698 12.5871 357.028 13.2139 357.97 14.8267L350.579 19.1437C352.179 21.8845 356.078 22.8099 358.718 20.4645L353.034 14.0649ZM414.651 25.7941C403.314 3.06456 372.217 -2.97316 353.034 14.0648L358.718 20.4645C373.71 7.14917 398.182 11.9529 406.991 29.6144L414.651 25.7941ZM409.57 24.8029C411.113 23.4297 413.649 23.7844 414.651 25.7943L406.991 29.6142C408.585 32.8112 412.728 33.4518 415.261 31.1966L409.57 24.8029ZM460.87 51.0114C460.342 37.9932 451.958 27.574 441.834 22.3207C431.749 17.088 418.884 16.5128 409.57 24.8029L415.261 31.1966C421.142 25.9622 429.912 25.7782 437.891 29.9184C445.83 34.038 451.937 41.9735 452.317 51.3579L460.87 51.0114ZM457.873 47.8985C459.458 48.017 460.8 49.2985 460.87 51.0112L452.317 51.358C452.429 54.1123 454.61 56.2379 457.234 56.4342L457.873 47.8985ZM482.006 110.206C491.06 97.0801 489.315 81.728 483.613 69.9447C480.748 64.0248 476.8 58.7939 472.425 54.9172C468.117 51.1004 463.03 48.2841 457.873 47.8985L457.234 56.4342C459.827 56.6281 463.208 58.1871 466.748 61.3238C470.221 64.4007 473.502 68.7014 475.908 73.6735C480.748 83.6743 481.718 95.5477 474.96 105.346L482.006 110.206Z" fill="#1B0C0C"/>
</svg>
