<svg width="383" height="649" viewBox="0 0 383 649" fill="none" xmlns="http://www.w3.org/2000/svg">
<path fill-rule="evenodd" clip-rule="evenodd" d="M348.076 66.34C347.709 69.4489 349.515 72.5298 352.125 74.202C362.764 81.02 369.374 99.7105 363.987 114.522C362.535 118.515 364.488 123.938 367.863 126.431C379.608 135.107 382.431 155.74 373.424 165.995C371.424 168.273 370.432 171.573 371.642 174.317C384.536 203.535 364.106 222.927 338.356 227.563C334.336 228.287 331.788 232.851 332.345 236.893C335.963 263.152 292.667 286.372 270.264 281.866C266.819 281.173 262.781 282.651 260.999 285.724C260.937 285.831 260.874 285.938 260.811 286.044C268.785 327.641 271.639 357.49 272.105 379.347C275.304 381.266 277.934 383.594 279.606 386.189C280.915 388.221 283.676 389.498 285.982 388.706C300.812 383.616 317.782 392.138 323.166 407.21C323.995 409.53 326.776 410.772 329.186 410.21C342.65 407.069 357.926 421.752 356.478 437.725C356.306 439.624 357.392 441.474 358.983 442.491C369.574 449.26 377.586 474.676 364.216 489.284C362.861 490.765 362.654 493.045 363.532 494.824C368.339 504.564 364.336 521.285 353.434 528.118C351.102 529.579 350.063 533.133 351.172 535.623C356.348 547.244 348.844 563.435 337.84 565.377C335.842 565.73 334.007 567.2 333.698 569.211C329.691 595.285 307.144 597.625 288.011 587.447C285.639 586.184 282.502 587.732 281.456 590.244C273.064 610.384 232.296 603.635 220.443 588.972C219.047 587.244 216.478 586.559 214.464 587.55C199.611 594.857 179.505 588.135 171.598 575.164C170.624 573.567 168.684 572.756 166.874 573.28C162.16 574.647 157.572 574.99 153.308 574.403C71.955 630.57 35.3749 637.65 16.9165 641.222C11.08 642.352 7.05538 643.131 4 645C55.3467 613.587 94.272 576.184 116.473 550.121C108.555 546.21 104.94 538.406 103.139 523.307C102.908 521.373 101.175 520.005 99.2556 519.713C84.6033 517.484 75.9696 491.825 82.9814 478.444C83.9091 476.673 83.723 474.397 82.7 472.707C76.4464 462.378 82.8947 439.152 94.1145 432.086C96.5108 430.577 98.4634 426.726 98.0917 423.935C96.5753 412.55 104.08 394.735 112.381 390.477C115.016 389.126 119.262 386.154 120.124 383.319C123.591 371.917 136.131 359.096 144.932 362.83C147.386 363.871 150.937 363.77 152.85 361.864C161.751 352.993 178.251 353.33 186.065 361.387C187.771 363.146 190.838 363.644 193.011 362.45C205.347 355.671 226.995 361.54 234.096 372.926C235.509 375.192 238.905 376.458 241.422 375.497C244.683 374.252 248.378 373.718 252.174 373.775C244.548 347.52 235.872 324.873 227.881 307.137C221.771 307.928 215.713 307.389 210.38 305.363C207.585 304.302 204.261 305.051 202.362 307.409C189.412 323.485 170.541 327.161 154.988 316.576C153.032 315.245 150.461 315.07 148.38 316.254C131.266 325.994 120.543 323.55 104.409 305.038C102.337 302.662 98.694 302.519 95.7847 303.818C79.5106 311.081 54.9844 292.55 52.2227 274.101C51.7553 270.978 49.3742 268.169 46.6262 266.654C34.1624 259.782 25.7639 233.295 31.298 217.614C32.7391 213.531 31.7669 206.892 29.1661 203.493C20.9038 192.696 16.9623 171.212 21.4749 160.367C23.1968 156.228 25.7899 148.727 24.7135 144.411C21.2765 130.632 24.8667 110.426 34.8327 105.975C38.6177 104.284 43.2732 101.022 44.2423 96.9889C47.7853 82.2458 63.1069 70.944 75.9485 71.952C79.7851 72.2531 84.308 70.1283 86.1709 66.7198C94.4275 51.613 117.809 41.8594 132.72 46.3137C136.776 47.5253 142.639 46.0274 145.188 42.5832C154.979 29.3519 175.993 21.4993 188.746 25.0832C192.465 26.1284 197.458 25.1997 199.84 22.0989C211.419 7.02247 232.712 3.01388 248.041 12.7841C251.341 14.8873 256.237 13.9566 259.033 11.1428C270.863 -0.761544 294.43 2.53584 304.057 18.6355C305.644 21.2908 308.918 22.7583 312.022 22.7862C327.408 22.9249 350.938 42.1178 348.076 66.34Z" fill="white"/>
<path d="M352.125 74.202L350.183 77.2321L350.183 77.2321L352.125 74.202ZM348.076 66.34L351.65 66.7623L351.65 66.7623L348.076 66.34ZM363.987 114.522L360.605 113.292L360.605 113.292L363.987 114.522ZM367.863 126.431L365.724 129.326L365.724 129.326L367.863 126.431ZM373.424 165.995L376.129 168.37L376.129 168.37L373.424 165.995ZM371.642 174.317L368.35 175.77L368.35 175.77L371.642 174.317ZM338.356 227.563L338.994 231.105L338.994 231.105L338.356 227.563ZM332.345 236.893L328.78 237.384L328.78 237.384L332.345 236.893ZM270.264 281.866L270.974 278.338L270.974 278.338L270.264 281.866ZM260.999 285.724L264.112 287.53L264.112 287.53L260.999 285.724ZM260.811 286.044L257.716 284.209C257.268 284.965 257.112 285.858 257.277 286.721L260.811 286.044ZM272.105 379.347L268.507 379.423C268.533 380.66 269.192 381.796 270.253 382.432L272.105 379.347ZM279.606 386.189L276.58 388.138L276.58 388.138L279.606 386.189ZM285.982 388.706L284.814 385.302L284.814 385.302L285.982 388.706ZM323.166 407.21L326.555 405.999L326.555 405.999L323.166 407.21ZM329.186 410.21L330.003 413.714L330.003 413.714L329.186 410.21ZM356.478 437.725L360.062 438.05L360.062 438.05L356.478 437.725ZM358.983 442.491L360.921 439.459L360.921 439.459L358.983 442.491ZM364.216 489.284L361.561 486.855L361.561 486.855L364.216 489.284ZM363.532 494.824L366.759 493.231L366.759 493.231L363.532 494.824ZM353.434 528.118L351.522 525.069L351.522 525.069L353.434 528.118ZM351.172 535.623L347.885 537.087L347.885 537.087L351.172 535.623ZM337.84 565.377L338.466 568.921L338.466 568.921L337.84 565.377ZM333.698 569.211L330.14 568.664L330.14 568.664L333.698 569.211ZM288.011 587.447L289.701 584.269L289.701 584.269L288.011 587.447ZM281.456 590.244L284.778 591.628L284.778 591.628L281.456 590.244ZM220.443 588.972L217.644 591.234L217.644 591.234L220.443 588.972ZM214.464 587.55L212.875 584.321L212.875 584.321L214.464 587.55ZM171.598 575.164L168.525 577.037L168.525 577.037L171.598 575.164ZM166.874 573.28L167.876 576.737L167.876 576.737L166.874 573.28ZM153.308 574.403L153.799 570.838C152.908 570.715 152.003 570.93 151.263 571.441L153.308 574.403ZM16.9165 641.222L16.2326 637.689L16.2326 637.689L16.9165 641.222ZM2.1219 641.93C0.426425 642.967 -0.107171 645.183 0.930077 646.878C1.96733 648.574 4.18263 649.107 5.8781 648.07L2.1219 641.93ZM116.473 550.121L119.213 552.455C119.932 551.611 120.222 550.482 119.998 549.395C119.774 548.309 119.061 547.386 118.067 546.895L116.473 550.121ZM103.139 523.307L99.5651 523.733L99.5651 523.733L103.139 523.307ZM99.2556 519.713L98.7143 523.271L98.7143 523.271L99.2556 519.713ZM82.9814 478.444L86.1691 480.114L86.1691 480.114L82.9814 478.444ZM82.7 472.707L85.7786 470.843L85.7786 470.843L82.7 472.707ZM94.1145 432.086L96.0324 435.132L96.0324 435.132L94.1145 432.086ZM98.0917 423.935L94.5243 424.41L94.5243 424.41L98.0917 423.935ZM112.381 390.477L114.023 393.68L114.023 393.68L112.381 390.477ZM120.124 383.319L123.567 384.366L123.567 384.366L120.124 383.319ZM144.932 362.83L146.338 359.517L146.338 359.517L144.932 362.83ZM152.85 361.864L155.39 364.413L155.391 364.413L152.85 361.864ZM186.065 361.387L188.649 358.882L188.649 358.882L186.065 361.387ZM193.011 362.45L194.744 365.604L194.744 365.604L193.011 362.45ZM234.096 372.926L237.15 371.022L237.15 371.022L234.096 372.926ZM241.422 375.497L242.706 378.859L242.706 378.859L241.422 375.497ZM252.174 373.775L252.12 377.373C253.261 377.39 254.343 376.865 255.035 375.957C255.728 375.049 255.948 373.867 255.63 372.771L252.174 373.775ZM227.881 307.137L231.162 305.658C230.511 304.213 228.991 303.364 227.419 303.568L227.881 307.137ZM210.38 305.363L211.658 301.999L211.658 301.999L210.38 305.363ZM202.362 307.409L199.559 305.151L199.559 305.151L202.362 307.409ZM154.988 316.576L152.963 319.552L152.963 319.552L154.988 316.576ZM148.38 316.254L150.16 319.382L150.16 319.382L148.38 316.254ZM104.409 305.038L107.122 302.674L107.122 302.674L104.409 305.038ZM95.7847 303.818L97.2514 307.104L97.2514 307.104L95.7847 303.818ZM52.2227 274.101L48.6636 274.633L48.6636 274.633L52.2227 274.101ZM46.6262 266.654L48.3637 263.502L48.3637 263.502L46.6262 266.654ZM31.298 217.614L34.6917 218.812L34.6917 218.812L31.298 217.614ZM29.1661 203.493L26.3081 205.68L26.3081 205.68L29.1661 203.493ZM21.4749 160.367L18.1522 158.984L18.1522 158.984L21.4749 160.367ZM24.7135 144.411L21.2216 145.282L21.2216 145.282L24.7135 144.411ZM34.8327 105.975L36.3004 109.261L36.3004 109.261L34.8327 105.975ZM44.2423 96.9889L47.7416 97.8298L47.7416 97.8298L44.2423 96.9889ZM75.9485 71.952L75.6669 75.5398L75.6669 75.5398L75.9485 71.952ZM86.1709 66.7198L89.3289 68.4458L86.1709 66.7198ZM132.72 46.3137L133.75 42.8654L133.75 42.8654L132.72 46.3137ZM145.188 42.5832L148.08 44.724L148.08 44.724L145.188 42.5832ZM188.746 25.0832L187.772 28.5479L187.772 28.5479L188.746 25.0832ZM199.84 22.0989L196.986 19.9069L196.986 19.9069L199.84 22.0989ZM248.041 12.7841L246.107 15.819L246.107 15.819L248.041 12.7841ZM259.033 11.1428L256.48 8.60603L259.033 11.1428ZM304.057 18.6355L307.145 16.7886L307.145 16.7886L304.057 18.6355ZM312.022 22.7862L311.99 26.3849L311.99 26.3849L312.022 22.7862ZM354.067 71.172C352.371 70.0855 351.476 68.2347 351.65 66.7623L344.502 65.9177C343.941 70.663 346.659 74.9741 350.183 77.2321L354.067 71.172ZM367.37 115.752C370.382 107.468 369.998 98.2679 367.5 90.2893C365.016 82.3546 360.29 75.1601 354.067 71.172L350.183 77.2321C354.599 80.0619 358.497 85.6216 360.631 92.4395C362.752 99.2136 362.979 106.764 360.605 113.292L367.37 115.752ZM370.001 123.536C369.008 122.803 368.063 121.489 367.526 119.892C366.988 118.291 366.989 116.8 367.37 115.752L360.605 113.292C359.534 116.238 359.785 119.454 360.704 122.186C361.624 124.922 363.342 127.566 365.724 129.326L370.001 123.536ZM376.129 168.37C381.524 162.226 383.134 153.339 381.99 145.124C380.842 136.884 376.829 128.58 370.001 123.536L365.724 129.326C370.641 132.958 373.913 139.309 374.861 146.117C375.813 152.952 374.331 159.509 370.72 163.62L376.129 168.37ZM374.935 172.864C374.466 171.8 374.726 169.967 376.129 168.37L370.72 163.62C368.122 166.579 366.398 171.346 368.35 175.77L374.935 172.864ZM338.994 231.105C352.477 228.678 364.968 222.326 372.384 212.298C379.953 202.063 381.842 188.517 374.935 172.864L368.35 175.77C374.336 189.335 372.457 200.094 366.597 208.018C360.583 216.15 349.985 221.813 337.719 224.022L338.994 231.105ZM335.91 236.402C335.753 235.26 336.038 233.944 336.699 232.872C337.353 231.809 338.198 231.249 338.994 231.105L337.719 224.022C334.494 224.602 332.056 226.685 330.57 229.096C329.091 231.497 328.38 234.484 328.78 237.384L335.91 236.402ZM269.554 285.395C275.892 286.669 283.399 285.945 290.872 283.904C298.39 281.851 306.128 278.396 313.018 273.938C326.493 265.218 338.019 251.709 335.91 236.402L328.78 237.384C330.289 248.335 321.977 259.567 309.107 267.895C302.825 271.96 295.764 275.107 288.976 276.961C282.143 278.827 275.838 279.316 270.974 278.338L269.554 285.395ZM264.112 287.53C265 285.998 267.371 284.955 269.554 285.395L270.974 278.338C266.266 277.391 260.562 279.304 257.886 283.919L264.112 287.53ZM263.907 287.879C263.976 287.763 264.044 287.647 264.112 287.53L257.886 283.919C257.829 284.016 257.773 284.112 257.716 284.209L263.907 287.879ZM257.277 286.721C265.221 328.166 268.046 357.81 268.507 379.423L275.703 379.27C275.232 357.171 272.349 327.117 264.346 285.366L257.277 286.721ZM282.631 384.239C280.577 381.051 277.475 378.372 273.956 376.261L270.253 382.432C273.132 384.16 275.291 386.137 276.58 388.138L282.631 384.239ZM284.814 385.302C284.404 385.443 283.248 385.197 282.631 384.239L276.58 388.138C278.583 391.245 282.948 393.553 287.151 392.11L284.814 385.302ZM326.555 405.999C320.541 389.164 301.598 379.542 284.814 385.302L287.151 392.11C300.026 387.691 315.023 395.112 319.777 408.421L326.555 405.999ZM328.368 406.705C328.011 406.788 327.55 406.744 327.146 406.548C326.749 406.357 326.6 406.124 326.555 405.999L319.777 408.421C321.326 412.758 326.134 414.617 330.003 413.714L328.368 406.705ZM360.062 438.05C360.898 428.826 356.912 420.146 350.957 414.244C345.04 408.377 336.648 404.774 328.368 406.705L330.003 413.714C335.187 412.505 341.166 414.672 345.89 419.356C350.578 424.003 353.506 430.651 352.894 437.4L360.062 438.05ZM360.921 439.459C360.26 439.036 360.032 438.387 360.062 438.05L352.894 437.4C352.58 440.861 354.523 443.912 357.045 445.524L360.921 439.459ZM366.871 491.714C374.555 483.318 375.91 472.033 374.125 462.299C372.364 452.7 367.354 443.571 360.921 439.459L357.045 445.524C361.202 448.181 365.494 455.143 367.045 463.597C368.571 471.915 367.248 480.641 361.561 486.855L366.871 491.714ZM366.759 493.231C366.465 492.634 366.625 491.982 366.871 491.714L361.561 486.855C359.097 489.547 358.844 493.455 360.305 496.416L366.759 493.231ZM355.345 531.168C361.73 527.166 365.896 520.424 367.837 513.538C369.769 506.687 369.661 499.11 366.759 493.231L360.305 496.416C362.21 500.277 362.504 505.931 360.91 511.584C359.326 517.202 356.04 522.238 351.522 525.069L355.345 531.168ZM354.46 534.159C354.321 533.847 354.244 533.243 354.461 532.514C354.678 531.787 355.067 531.342 355.345 531.168L351.522 525.069C349.469 526.356 348.172 528.418 347.564 530.455C346.957 532.491 346.914 534.909 347.885 537.087L354.46 534.159ZM338.466 568.921C345.522 567.676 350.943 562.027 353.851 555.616C356.782 549.151 357.554 541.105 354.46 534.158L347.885 537.087C349.966 541.761 349.573 547.621 347.296 552.643C344.994 557.718 341.162 561.136 337.214 561.833L338.466 568.921ZM337.255 569.757C337.262 569.709 337.301 569.562 337.524 569.365C337.757 569.157 338.1 568.986 338.466 568.921L337.214 561.833C334.131 562.378 330.744 564.736 330.14 568.664L337.255 569.757ZM286.321 590.624C296.401 595.986 307.827 598.306 317.566 595.369C327.64 592.331 335.078 583.926 337.255 569.757L330.14 568.664C328.311 580.57 322.472 586.372 315.488 588.478C308.169 590.685 298.755 589.085 289.701 584.269L286.321 590.624ZM284.778 591.628C284.923 591.279 285.271 590.91 285.708 590.714C286.132 590.524 286.316 590.621 286.321 590.624L289.701 584.269C287.334 583.01 284.763 583.25 282.764 584.146C280.779 585.036 279.035 586.697 278.134 588.86L284.778 591.628ZM217.644 591.234C221.109 595.521 226.459 598.989 232.393 601.502C238.374 604.036 245.223 605.715 251.964 606.247C258.683 606.776 265.502 606.18 271.327 603.968C277.202 601.737 282.212 597.786 284.778 591.628L278.134 588.86C276.504 592.772 273.271 595.53 268.771 597.239C264.221 598.968 258.533 599.544 252.53 599.071C246.549 598.6 240.459 597.102 235.2 594.875C229.895 592.628 225.703 589.754 223.242 586.709L217.644 591.234ZM216.052 590.779C216.423 590.597 217.208 590.694 217.644 591.234L223.242 586.709C220.886 583.794 216.532 582.521 212.875 584.321L216.052 590.779ZM168.525 577.037C173.02 584.411 180.827 589.809 189.381 592.405C197.952 595.006 207.657 594.909 216.052 590.779L212.875 584.321C206.417 587.498 198.643 587.694 191.471 585.517C184.283 583.336 178.083 578.887 174.67 573.291L168.525 577.037ZM167.876 576.737C167.962 576.712 168.071 576.711 168.2 576.763C168.334 576.817 168.45 576.915 168.525 577.037L174.67 573.291C172.895 570.379 169.321 568.824 165.872 569.824L167.876 576.737ZM152.817 577.968C157.619 578.629 162.715 578.233 167.876 576.737L165.872 569.824C161.604 571.061 157.526 571.35 153.799 570.838L152.817 577.968ZM17.6003 644.755C36.5756 641.083 73.6152 633.797 155.353 577.364L151.263 571.441C70.2949 627.343 34.1741 634.216 16.2326 637.689L17.6003 644.755ZM5.8781 648.07C8.25303 646.617 11.5212 645.932 17.6004 644.755L16.2326 637.689C10.6389 638.772 5.85772 639.645 2.1219 641.93L5.8781 648.07ZM113.733 547.788C91.7431 573.602 53.1004 610.743 2.1219 641.93L5.8781 648.07C57.593 616.432 96.8009 578.765 119.213 552.455L113.733 547.788ZM99.5651 523.733C101.392 539.049 105.206 548.57 114.879 553.348L118.067 546.895C111.904 543.851 108.487 537.763 106.712 522.881L99.5651 523.733ZM98.7143 523.271C99.0309 523.319 99.2938 523.455 99.4473 523.591C99.5176 523.653 99.5481 523.7 99.5584 523.718C99.561 523.723 99.5626 523.726 99.5635 523.728C99.5644 523.73 99.5647 523.731 99.5648 523.731C99.5648 523.731 99.5648 523.731 99.5648 523.731C99.5648 523.731 99.5648 523.731 99.5648 523.731C99.5648 523.731 99.5648 523.731 99.5648 523.731C99.5648 523.731 99.5648 523.731 99.5648 523.731C99.5648 523.731 99.5648 523.731 99.5648 523.731C99.5648 523.731 99.5648 523.731 99.5648 523.731C99.5648 523.731 99.5648 523.732 99.5648 523.732C99.5649 523.732 99.565 523.733 99.5651 523.733L106.712 522.881C106.237 518.898 102.829 516.616 99.7968 516.155L98.7143 523.271ZM79.7937 476.773C75.6457 484.689 76.3014 495.594 79.6216 504.515C82.9063 513.341 89.4527 521.862 98.7143 523.271L99.7968 516.155C94.4062 515.335 89.3096 509.911 86.3673 502.005C83.4606 494.194 83.3052 485.579 86.1691 480.114L79.7937 476.773ZM79.6214 474.571C80.072 475.315 80.0683 476.249 79.7937 476.773L86.1691 480.114C87.75 477.097 87.3741 473.478 85.7786 470.843L79.6214 474.571ZM92.1966 429.041C85.5133 433.25 80.7372 441.81 78.389 450.203C76.0611 458.523 75.7219 468.13 79.6214 474.571L85.7786 470.843C83.4245 466.955 83.1826 459.784 85.3205 452.143C87.4379 444.574 91.4958 437.989 96.0324 435.132L92.1966 429.041ZM94.5243 424.41C94.5855 424.87 94.4593 425.795 93.9146 426.897C93.3755 427.988 92.6802 428.737 92.1966 429.041L96.0324 435.132C97.945 433.927 99.4242 431.995 100.368 430.086C101.305 428.188 101.97 425.792 101.659 423.46L94.5243 424.41ZM110.738 387.275C108.004 388.677 105.589 391.045 103.56 393.732C101.506 396.454 99.6978 399.702 98.2425 403.126C95.3698 409.884 93.6518 417.859 94.5243 424.41L101.659 423.46C101.015 418.626 102.291 412.001 104.867 405.941C106.135 402.956 107.666 400.24 109.305 398.068C110.971 395.862 112.607 394.406 114.023 393.68L110.738 387.275ZM116.681 382.272C116.566 382.648 115.979 383.535 114.594 384.705C113.33 385.774 111.844 386.708 110.738 387.275L114.023 393.68C115.552 392.895 117.506 391.668 119.24 390.203C120.852 388.841 122.819 386.824 123.567 384.366L116.681 382.272ZM146.338 359.517C139.889 356.781 133.026 360.348 128.132 364.713C123.014 369.278 118.623 375.886 116.681 382.272L123.567 384.366C125.092 379.35 128.704 373.847 132.923 370.084C137.366 366.121 141.173 365.144 143.527 366.143L146.338 359.517ZM150.31 359.315C150.117 359.507 149.637 359.787 148.761 359.869C147.9 359.949 146.998 359.797 146.338 359.517L143.527 366.143C145.32 366.904 147.421 367.222 149.427 367.035C151.419 366.85 153.671 366.127 155.39 364.413L150.31 359.315ZM188.649 358.882C183.904 353.989 176.794 351.659 169.855 351.679C162.887 351.698 155.559 354.083 150.31 359.315L155.391 364.413C159.042 360.774 164.414 358.892 169.875 358.876C175.365 358.861 180.413 360.728 183.482 363.893L188.649 358.882ZM191.277 359.296C190.555 359.693 189.25 359.501 188.649 358.882L183.482 363.893C186.293 366.791 191.121 367.595 194.744 365.604L191.277 359.296ZM237.15 371.022C232.942 364.274 224.787 359.573 216.424 357.394C208.048 355.211 198.524 355.314 191.277 359.296L194.744 365.604C199.833 362.807 207.302 362.455 214.609 364.359C221.93 366.266 228.149 370.192 231.042 374.831L237.15 371.022ZM240.138 372.135C239.854 372.243 239.281 372.292 238.557 372.033C237.835 371.775 237.352 371.346 237.15 371.022L231.042 374.831C232.253 376.772 234.175 378.11 236.133 378.81C238.09 379.51 240.474 379.711 242.706 378.859L240.138 372.135ZM252.228 370.176C248.077 370.114 243.912 370.694 240.138 372.135L242.706 378.859C245.453 377.81 248.678 377.322 252.12 377.373L252.228 370.176ZM255.63 372.771C247.956 346.351 239.221 323.545 231.162 305.658L224.6 308.615C232.523 326.201 241.141 348.689 248.718 374.779L255.63 372.771ZM209.102 308.728C215.075 310.996 221.743 311.56 228.343 310.706L227.419 303.568C221.799 304.295 216.351 303.781 211.658 301.999L209.102 308.728ZM205.164 309.666C206.001 308.628 207.632 308.17 209.102 308.728L211.658 301.999C207.538 300.434 202.521 301.474 199.559 305.151L205.164 309.666ZM152.963 319.552C161.496 325.359 171.071 327.32 180.336 325.524C189.571 323.733 198.238 318.265 205.164 309.666L199.559 305.151C193.535 312.629 186.292 317.037 178.966 318.458C171.67 319.872 164.033 318.379 157.013 313.601L152.963 319.552ZM150.16 319.382C150.979 318.916 152.076 318.948 152.963 319.552L157.013 313.601C153.989 311.543 149.943 311.224 146.6 313.126L150.16 319.382ZM101.696 307.403C109.871 316.782 117.199 322.745 125.155 324.732C133.297 326.766 141.259 324.448 150.16 319.382L146.6 313.126C138.387 317.8 132.43 319.13 126.899 317.749C121.181 316.321 115.081 311.805 107.122 302.674L101.696 307.403ZM97.2514 307.104C99.3369 306.173 101.05 306.662 101.696 307.403L107.122 302.674C103.624 298.661 98.0511 298.865 94.3179 300.531L97.2514 307.104ZM48.6636 274.633C50.2308 285.104 57.8067 295.125 66.8558 301.538C75.8341 307.9 87.432 311.487 97.2514 307.104L94.318 300.531C87.8632 303.412 79.061 301.365 71.0173 295.665C63.0444 290.015 56.9763 281.547 55.7819 273.568L48.6636 274.633ZM44.8888 269.805C46.9178 270.924 48.4021 272.887 48.6636 274.633L55.7819 273.568C55.1086 269.07 51.8307 265.413 48.3637 263.502L44.8888 269.805ZM27.9043 216.416C24.7863 225.251 25.6792 236.647 28.7795 246.516C31.85 256.29 37.4522 265.706 44.8888 269.805L48.3637 263.502C43.3364 260.73 38.5075 253.467 35.6463 244.359C32.8149 235.346 32.2756 225.657 34.6917 218.812L27.9043 216.416ZM26.3081 205.68C27.1182 206.739 27.8558 208.604 28.1885 210.829C28.5201 213.047 28.3703 215.096 27.9043 216.416L34.6917 218.812C35.6667 216.049 35.7514 212.737 35.307 209.765C34.8637 206.8 33.8149 203.646 32.0242 201.306L26.3081 205.68ZM18.1522 158.984C15.5098 165.335 15.4824 174.223 16.988 182.586C18.5059 191.017 21.7195 199.684 26.3081 205.68L32.0242 201.306C28.3505 196.506 25.4621 189.033 24.0718 181.311C22.6693 173.521 22.9274 166.244 24.7976 161.749L18.1522 158.984ZM21.2216 145.282C21.532 146.526 21.3589 148.739 20.651 151.587C19.9808 154.283 18.9728 157.012 18.1522 158.984L24.7976 161.749C25.6988 159.583 26.8484 156.492 27.6361 153.324C28.3861 150.307 28.9713 146.611 28.2053 143.54L21.2216 145.282ZM33.3649 102.689C26.7748 105.632 23.0208 113.27 21.2426 120.876C19.41 128.715 19.3535 137.792 21.2216 145.282L28.2053 143.54C26.6365 137.25 26.6566 129.336 28.2513 122.514C29.9005 115.46 32.9245 110.769 36.3004 109.261L33.3649 102.689ZM40.7431 96.148C40.5042 97.1423 39.7068 98.3601 38.23 99.6461C36.7951 100.896 35.0058 101.956 33.3649 102.689L36.3004 109.261C38.4446 108.303 40.8755 106.887 42.9569 105.074C44.9964 103.298 47.0113 100.868 47.7416 97.8298L40.7431 96.148ZM76.2301 68.3642C68.7004 67.7731 60.7983 70.7782 54.408 75.716C47.9901 80.6752 42.7362 87.8541 40.7431 96.148L47.7416 97.8298C49.2914 91.3805 53.4698 85.5371 58.8089 81.4115C64.1756 77.2647 70.3551 75.1229 75.6669 75.5398L76.2301 68.3642ZM83.013 64.9938C81.9189 66.9956 78.8485 68.5697 76.2301 68.3642L75.6669 75.5398C80.7218 75.9365 86.6971 73.261 89.3289 68.4458L83.013 64.9938ZM133.75 42.8654C125.217 40.3164 114.74 41.9024 105.525 45.8767C96.2817 49.8632 87.6337 56.5394 83.0129 64.9938L89.3289 68.4458C92.9647 61.7934 100.136 56.0394 108.375 52.486C116.643 48.9204 125.312 47.8567 131.69 49.7619L133.75 42.8654ZM142.295 40.4424C141.627 41.3442 140.311 42.2261 138.532 42.7335C136.766 43.2373 134.999 43.2382 133.75 42.8654L131.69 49.7619C134.498 50.6007 137.69 50.4585 140.506 49.6552C143.31 48.8555 146.199 47.2665 148.08 44.724L142.295 40.4424ZM189.719 21.6186C182.316 19.538 173.026 20.8461 164.541 24.1776C155.998 27.5316 147.683 33.1616 142.295 40.4425L148.08 44.724C152.484 38.7735 159.571 33.8616 167.171 30.8774C174.829 27.8708 182.423 27.0446 187.772 28.5479L189.719 21.6186ZM196.986 19.9069C196.426 20.6357 195.396 21.2957 193.944 21.6489C192.502 21.9997 190.953 21.9653 189.719 21.6186L187.772 28.5479C190.258 29.2464 193.065 29.2702 195.645 28.6427C198.215 28.0177 200.872 26.663 202.694 24.291L196.986 19.9069ZM249.975 9.7493C232.99 -1.07648 209.64 3.42987 196.986 19.9069L202.694 24.291C213.197 10.6151 232.433 7.10424 246.107 15.819L249.975 9.7493ZM256.48 8.60603C254.653 10.4446 251.597 10.7829 249.975 9.7493L246.107 15.819C251.084 18.9916 257.821 17.4686 261.586 13.6795L256.48 8.60603ZM307.145 16.7886C301.713 7.70373 292.414 2.32449 282.93 0.832523C273.473 -0.655178 263.377 1.66597 256.48 8.60603L261.586 13.6795C266.519 8.71525 274.121 6.73294 281.812 7.94277C289.475 9.14834 296.773 13.4676 300.968 20.4824L307.145 16.7886ZM312.055 19.1875C309.876 19.1679 307.937 18.1121 307.145 16.7886L300.968 20.4824C303.352 24.4695 307.96 26.3486 311.99 26.3849L312.055 19.1875ZM351.65 66.7623C353.238 53.3259 347.482 41.4572 339.502 33.0536C331.612 24.7454 321.013 19.2682 312.055 19.1875L311.99 26.3849C318.417 26.4428 327.276 30.6315 334.282 38.0099C341.198 45.293 345.776 55.1319 344.502 65.9177L351.65 66.7623Z" fill="#1B0C0C"/>
</svg>
