<svg width="440" height="745" viewBox="0 0 440 745" fill="none" xmlns="http://www.w3.org/2000/svg">
<path fill-rule="evenodd" clip-rule="evenodd" d="M399.813 76.5329C399.392 80.1002 401.465 83.6354 404.459 85.5543C416.667 93.3776 424.251 114.824 418.071 131.82C416.405 136.402 418.645 142.624 422.518 145.485C435.995 155.441 439.234 179.116 428.9 190.883C426.604 193.497 425.466 197.284 426.855 200.432C441.65 233.959 418.206 256.211 388.66 261.531C384.047 262.362 381.124 267.598 381.763 272.236C385.914 302.367 336.233 329.012 310.527 323.842C306.573 323.046 301.94 324.742 299.895 328.268C299.824 328.39 299.753 328.512 299.681 328.633C308.831 376.366 312.106 410.617 312.64 435.697C316.311 437.899 319.328 440.57 321.247 443.547C322.749 445.88 325.917 447.345 328.564 446.436C345.58 440.596 365.052 450.374 371.231 467.669C372.182 470.33 375.372 471.756 378.138 471.111C393.587 467.507 411.116 484.355 409.455 502.684C409.257 504.863 410.503 506.986 412.329 508.153C424.482 515.92 433.676 545.083 418.334 561.846C416.779 563.545 416.542 566.161 417.549 568.203C423.064 579.378 418.471 598.566 405.961 606.407C403.286 608.083 402.094 612.161 403.366 615.018C409.305 628.352 400.695 646.931 388.068 649.16C385.776 649.565 383.67 651.251 383.315 653.559C378.718 683.478 352.846 686.163 330.892 674.484C328.169 673.035 324.57 674.811 323.369 677.694C313.74 700.803 266.96 693.059 253.36 676.234C251.758 674.252 248.81 673.465 246.498 674.602C229.456 682.987 206.385 675.273 197.311 660.39C196.194 658.558 193.968 657.627 191.891 658.229C186.482 659.796 181.218 660.19 176.325 659.517C82.976 723.966 41.0016 732.09 19.8213 736.189C13.1241 737.485 8.50595 738.379 5 740.524C63.9183 704.479 108.584 661.56 134.058 631.655C124.972 627.167 120.824 618.212 118.757 600.886C118.492 598.666 116.504 597.097 114.301 596.762C97.4884 594.204 87.5815 564.761 95.6273 549.407C96.6918 547.375 96.4783 544.763 95.3044 542.824C88.1286 530.972 95.5278 504.322 108.402 496.213C111.152 494.482 113.392 490.063 112.966 486.86C111.226 473.796 119.837 453.354 129.362 448.469C132.385 446.918 137.258 443.507 138.247 440.255C142.226 427.171 156.614 412.459 166.714 416.744C169.53 417.939 173.604 417.823 175.799 415.636C186.012 405.457 204.946 405.843 213.912 415.089C215.87 417.107 219.389 417.679 221.882 416.309C236.037 408.529 260.878 415.264 269.026 428.329C270.647 430.929 274.544 432.381 277.432 431.279C281.174 429.85 285.414 429.238 289.77 429.303C281.02 399.176 271.065 373.19 261.895 352.838C254.884 353.746 247.932 353.128 241.812 350.803C238.605 349.586 234.79 350.445 232.611 353.15C217.752 371.598 196.098 375.816 178.252 363.67C176.008 362.143 173.057 361.941 170.67 363.3C151.031 374.477 138.728 371.672 120.214 350.43C117.837 347.703 113.656 347.54 110.318 349.03C91.6441 357.364 63.5012 336.1 60.3323 314.931C59.796 311.348 57.0637 308.124 53.9105 306.385C39.6087 298.501 29.9717 268.107 36.322 250.114C37.9755 245.429 36.86 237.811 33.8757 233.911C24.395 221.522 19.8723 196.87 25.0503 184.425C27.0261 179.676 30.0015 171.068 28.7664 166.117C24.8226 150.305 28.9422 127.12 40.3778 122.012C44.721 120.072 50.063 116.329 51.1751 111.701C55.2405 94.7842 72.8215 81.8158 87.5567 82.9724C91.9591 83.318 97.1489 80.8799 99.2866 76.9687C108.761 59.6342 135.591 48.4423 152.7 53.5534C157.355 54.9437 164.081 53.2249 167.006 49.2729C178.241 34.0903 202.354 25.0798 216.987 29.1923C221.255 30.3916 226.985 29.3259 229.718 25.7679C243.004 8.46818 267.437 3.86846 285.026 15.0795C288.813 17.4927 294.431 16.4248 297.64 13.1961C311.214 -0.463697 338.256 3.31993 349.302 21.7937C351.124 24.8405 354.881 26.5244 358.443 26.5565C376.097 26.7156 403.097 48.7388 399.813 76.5329Z" fill="white"/>
<path d="M404.459 85.5543L402.231 89.0312L402.231 89.0312L404.459 85.5543ZM399.813 76.5329L403.914 77.0174L403.914 77.0174L399.813 76.5329ZM418.071 131.82L414.19 130.409L414.19 130.409L418.071 131.82ZM422.518 145.485L420.064 148.807L420.064 148.807L422.518 145.485ZM428.9 190.883L432.002 193.609L432.002 193.609L428.9 190.883ZM426.855 200.432L423.077 202.099L423.077 202.099L426.855 200.432ZM388.66 261.531L389.392 265.595L389.392 265.595L388.66 261.531ZM381.763 272.236L377.672 272.8L377.672 272.8L381.763 272.236ZM310.527 323.842L311.341 319.793L311.341 319.793L310.527 323.842ZM299.895 328.268L303.467 330.34L303.468 330.34L299.895 328.268ZM299.681 328.633L296.129 326.528C295.615 327.395 295.436 328.42 295.626 329.411L299.681 328.633ZM312.64 435.697L308.512 435.785C308.542 437.204 309.298 438.508 310.515 439.238L312.64 435.697ZM321.247 443.547L324.718 441.311L324.718 441.311L321.247 443.547ZM328.564 446.436L327.223 442.53L327.223 442.53L328.564 446.436ZM371.231 467.669L367.342 469.058L367.342 469.058L371.231 467.669ZM378.138 471.111L379.076 475.132L379.076 475.132L378.138 471.111ZM409.455 502.684L413.568 503.057L413.568 503.057L409.455 502.684ZM412.329 508.153L410.105 511.632L410.105 511.632L412.329 508.153ZM418.334 561.846L421.38 564.634L421.38 564.634L418.334 561.846ZM417.549 568.203L413.846 570.03L413.846 570.03L417.549 568.203ZM405.961 606.407L403.768 602.907L403.768 602.907L405.961 606.407ZM403.366 615.018L399.594 616.698L399.594 616.698L403.366 615.018ZM388.068 649.16L388.786 653.227L388.786 653.227L388.068 649.16ZM383.315 653.559L387.397 654.186L387.397 654.186L383.315 653.559ZM330.892 674.484L328.952 678.129L328.952 678.129L330.892 674.484ZM323.369 677.694L319.557 676.105L319.557 676.105L323.369 677.694ZM253.36 676.234L250.148 678.83L250.148 678.83L253.36 676.234ZM246.498 674.602L244.675 670.897L244.675 670.897L246.498 674.602ZM197.311 660.39L193.785 662.539L193.785 662.539L197.311 660.39ZM191.891 658.229L190.742 654.262L190.742 654.262L191.891 658.229ZM176.325 659.517L176.888 655.426C175.866 655.285 174.828 655.532 173.979 656.118L176.325 659.517ZM19.8213 736.189L20.606 740.244L20.606 740.244L19.8213 736.189ZM2.84494 737.002C0.899453 738.192 0.287171 740.734 1.47738 742.679C2.66758 744.625 5.20956 745.237 7.15506 744.047L2.84494 737.002ZM134.058 631.655L137.202 634.333C138.027 633.364 138.36 632.068 138.103 630.821C137.846 629.575 137.028 628.516 135.887 627.952L134.058 631.655ZM118.757 600.886L114.656 601.375L114.656 601.375L118.757 600.886ZM114.301 596.762L114.922 592.679L114.922 592.679L114.301 596.762ZM95.6273 549.407L91.9695 547.49L91.9695 547.49L95.6273 549.407ZM95.3044 542.824L91.7719 544.963L91.7719 544.963L95.3044 542.824ZM108.402 496.213L106.201 492.719L106.201 492.719L108.402 496.213ZM112.966 486.86L108.872 487.405L108.872 487.405L112.966 486.86ZM129.362 448.469L127.477 444.794L127.477 444.794L129.362 448.469ZM138.247 440.255L142.198 441.456L142.198 441.456L138.247 440.255ZM166.714 416.744L165.101 420.546L165.101 420.546L166.714 416.744ZM175.799 415.636L178.714 418.561L178.714 418.561L175.799 415.636ZM213.912 415.089L210.948 417.964L210.948 417.964L213.912 415.089ZM221.882 416.309L219.893 412.69L219.893 412.69L221.882 416.309ZM269.026 428.329L272.53 426.144L272.53 426.144L269.026 428.329ZM277.432 431.279L275.959 427.421L275.959 427.421L277.432 431.279ZM289.77 429.303L289.709 433.432C291.018 433.452 292.26 432.849 293.054 431.807C293.848 430.766 294.101 429.409 293.736 428.151L289.77 429.303ZM261.895 352.838L265.66 351.142C264.913 349.484 263.169 348.509 261.365 348.743L261.895 352.838ZM241.812 350.803L243.278 346.943L243.278 346.943L241.812 350.803ZM232.611 353.15L235.827 355.741L235.827 355.741L232.611 353.15ZM178.252 363.67L175.928 367.084L175.928 367.084L178.252 363.67ZM170.67 363.3L168.627 359.711L168.627 359.711L170.67 363.3ZM120.214 350.43L123.327 347.717L123.327 347.717L120.214 350.43ZM110.318 349.03L112.001 352.801L112.001 352.801L110.318 349.03ZM60.3323 314.931L64.4164 314.319L60.3323 314.931ZM53.9105 306.385L55.9042 302.769L55.9042 302.769L53.9105 306.385ZM36.322 250.114L32.4278 248.74L32.4278 248.74L36.322 250.114ZM33.8757 233.911L37.1552 231.402L37.1552 231.402L33.8757 233.911ZM25.0503 184.425L28.8629 186.011L28.8629 186.011L25.0503 184.425ZM28.7664 166.117L32.7732 165.117L32.7732 165.117L28.7664 166.117ZM40.3778 122.012L38.6936 118.242L38.6936 118.242L40.3778 122.012ZM51.1751 111.701L55.1903 112.666L55.1903 112.666L51.1751 111.701ZM87.5567 82.9724L87.8799 78.8555L87.8799 78.8555L87.5567 82.9724ZM99.2866 76.9687L102.91 78.9492L102.91 78.9492L99.2866 76.9687ZM152.7 53.5534L153.882 49.5966L153.882 49.5966L152.7 53.5534ZM167.006 49.2729L163.687 46.8164L163.687 46.8164L167.006 49.2729ZM216.987 29.1923L215.87 33.1678L215.87 33.1678L216.987 29.1923ZM229.718 25.7679L232.993 28.2832L232.993 28.2832L229.718 25.7679ZM285.026 15.0795L287.246 11.5971L287.246 11.5971L285.026 15.0795ZM297.64 13.1961L300.569 16.1069L300.569 16.1069L297.64 13.1961ZM349.302 21.7937L352.847 19.6745L352.847 19.6745L349.302 21.7937ZM358.443 26.5565L358.406 30.6859L358.406 30.6859L358.443 26.5565ZM406.687 82.0774C404.742 80.8307 403.714 78.707 403.914 77.0174L395.712 76.0483C395.069 81.4934 398.188 86.4402 402.231 89.0312L406.687 82.0774ZM421.952 133.231C425.408 123.726 424.968 113.169 422.102 104.014C419.252 94.909 413.828 86.6536 406.687 82.0774L402.231 89.0312C407.298 92.2783 411.771 98.6579 414.22 106.481C416.653 114.254 416.914 122.918 414.19 130.409L421.952 133.231ZM424.971 142.164C423.832 141.322 422.747 139.814 422.131 137.982C421.514 136.145 421.515 134.433 421.952 133.231L414.19 130.409C412.961 133.789 413.249 137.48 414.303 140.614C415.359 143.754 417.331 146.788 420.064 148.807L424.971 142.164ZM432.002 193.609C438.194 186.559 440.041 176.361 438.728 166.935C437.411 157.479 432.806 147.951 424.971 142.164L420.064 148.807C425.706 152.974 429.46 160.262 430.548 168.075C431.64 175.917 429.94 183.441 425.797 188.158L432.002 193.609ZM430.633 198.765C430.094 197.545 430.393 195.441 432.002 193.609L425.797 188.158C422.815 191.553 420.837 197.024 423.077 202.099L430.633 198.765ZM389.392 265.595C404.863 262.809 419.197 255.521 427.706 244.014C436.391 232.27 438.559 216.726 430.633 198.765L423.077 202.099C429.946 217.665 427.79 230.011 421.065 239.104C414.165 248.435 402.004 254.932 387.928 257.467L389.392 265.595ZM385.854 271.672C385.673 270.363 386 268.852 386.758 267.622C387.509 266.403 388.479 265.76 389.392 265.595L387.928 257.467C384.229 258.133 381.431 260.523 379.726 263.29C378.029 266.045 377.213 269.471 377.672 272.8L385.854 271.672ZM309.712 327.89C316.984 329.353 325.599 328.522 334.174 326.18C342.8 323.824 351.679 319.86 359.585 314.744C375.047 304.738 388.274 289.237 385.854 271.672L377.672 272.8C379.403 285.366 369.865 298.253 355.098 307.81C347.889 312.475 339.788 316.085 331.998 318.213C324.158 320.354 316.922 320.916 311.341 319.793L309.712 327.89ZM303.468 330.34C304.486 328.583 307.207 327.386 309.712 327.89L311.341 319.793C305.94 318.707 299.394 320.901 296.323 326.197L303.468 330.34ZM303.234 330.739C303.313 330.606 303.39 330.473 303.467 330.34L296.323 326.196C296.259 326.308 296.194 326.418 296.129 326.528L303.234 330.739ZM295.626 329.411C304.741 376.968 307.983 410.984 308.512 435.785L316.769 435.609C316.228 410.251 312.92 375.765 303.737 327.856L295.626 329.411ZM324.718 441.311C322.361 437.652 318.803 434.579 314.765 432.156L310.515 439.238C313.819 441.22 316.296 443.488 317.775 445.784L324.718 441.311ZM327.223 442.53C326.753 442.692 325.426 442.41 324.718 441.311L317.775 445.784C320.073 449.35 325.081 451.997 329.904 450.342L327.223 442.53ZM375.119 466.279C368.218 446.962 346.482 435.92 327.223 442.53L329.904 450.342C344.678 445.271 361.886 453.787 367.342 469.058L375.119 466.279ZM377.2 467.089C376.789 467.185 376.261 467.134 375.797 466.91C375.342 466.69 375.171 466.423 375.119 466.279L367.342 469.058C369.12 474.035 374.636 476.168 379.076 475.132L377.2 467.089ZM413.568 503.057C414.527 492.472 409.952 482.513 403.12 475.74C396.329 469.008 386.701 464.873 377.2 467.089L379.076 475.132C385.024 473.745 391.885 476.232 397.306 481.605C402.685 486.938 406.044 494.567 405.342 502.311L413.568 503.057ZM414.553 504.673C413.795 504.188 413.533 503.443 413.568 503.057L405.342 502.311C404.982 506.282 407.212 509.783 410.105 511.632L414.553 504.673ZM421.38 564.634C430.197 555 431.753 542.051 429.704 530.881C427.683 519.867 421.935 509.391 414.553 504.673L410.105 511.632C414.876 514.681 419.801 522.671 421.58 532.371C423.331 541.915 421.812 551.928 415.287 559.058L421.38 564.634ZM421.252 566.375C420.914 565.69 421.098 564.942 421.38 564.634L415.288 559.058C412.46 562.147 412.169 566.632 413.846 570.03L421.252 566.375ZM408.154 609.906C415.481 605.314 420.261 597.578 422.489 589.676C424.705 581.815 424.581 573.121 421.252 566.375L413.846 570.03C416.032 574.46 416.369 580.947 414.54 587.435C412.723 593.88 408.952 599.659 403.768 602.907L408.154 609.906ZM407.139 613.338C406.979 612.98 406.891 612.287 407.141 611.451C407.39 610.616 407.836 610.105 408.154 609.906L403.768 602.907C401.412 604.384 399.924 606.751 399.226 609.088C398.529 611.425 398.481 614.198 399.594 616.698L407.139 613.338ZM388.786 653.227C396.883 651.797 403.104 645.316 406.44 637.959C409.804 630.541 410.689 621.309 407.139 613.338L399.594 616.698C401.983 622.061 401.532 628.785 398.918 634.548C396.278 640.371 391.88 644.294 387.35 645.094L388.786 653.227ZM387.397 654.186C387.405 654.13 387.45 653.962 387.705 653.735C387.973 653.498 388.367 653.301 388.786 653.227L387.35 645.094C383.812 645.718 379.926 648.424 379.233 652.931L387.397 654.186ZM328.952 678.129C340.518 684.282 353.629 686.944 364.805 683.574C376.364 680.088 384.899 670.444 387.397 654.186L379.233 652.931C377.134 666.593 370.434 673.25 362.42 675.667C354.022 678.199 343.219 676.364 332.831 670.838L328.952 678.129ZM327.181 679.282C327.348 678.881 327.747 678.458 328.249 678.233C328.735 678.015 328.946 678.126 328.952 678.129L332.831 670.838C330.115 669.393 327.165 669.668 324.871 670.697C322.593 671.718 320.591 673.624 319.557 676.105L327.181 679.282ZM250.148 678.83C254.124 683.749 260.262 687.728 267.072 690.612C273.935 693.519 281.793 695.446 289.529 696.056C297.239 696.664 305.064 695.98 311.747 693.441C318.488 690.881 324.237 686.348 327.181 679.282L319.557 676.105C317.687 680.594 313.977 683.759 308.814 685.721C303.593 687.704 297.067 688.365 290.178 687.822C283.315 687.282 276.327 685.563 270.293 683.007C264.205 680.429 259.395 677.131 256.571 673.638L250.148 678.83ZM248.321 678.308C248.747 678.098 249.647 678.21 250.148 678.83L256.571 673.638C253.868 670.293 248.872 668.832 244.675 670.897L248.321 678.308ZM193.785 662.539C198.944 671.001 207.902 677.195 217.717 680.173C227.552 683.157 238.688 683.047 248.321 678.308L244.675 670.897C237.266 674.542 228.345 674.767 220.115 672.27C211.867 669.767 204.752 664.662 200.837 658.24L193.785 662.539ZM193.041 662.195C193.139 662.166 193.265 662.165 193.413 662.225C193.566 662.287 193.7 662.399 193.785 662.539L200.837 658.24C198.8 654.899 194.698 653.116 190.742 654.262L193.041 662.195ZM175.763 663.608C181.272 664.365 187.119 663.911 193.041 662.195L190.742 654.262C185.845 655.682 181.165 656.014 176.888 655.426L175.763 663.608ZM20.606 740.244C42.3795 736.029 84.881 727.669 178.672 662.915L173.979 656.118C81.071 720.263 39.6238 728.15 19.0366 732.135L20.606 740.244ZM7.15504 744.047C9.8802 742.38 13.6303 741.594 20.606 740.244L19.0366 732.135C12.6179 733.377 7.13169 734.379 2.84496 737.002L7.15504 744.047ZM130.915 628.977C105.682 658.598 61.3407 701.215 2.84494 737.002L7.15506 744.047C66.4958 707.744 111.485 664.522 137.202 634.333L130.915 628.977ZM114.656 601.375C116.753 618.949 121.129 629.874 132.23 635.357L135.887 627.952C128.815 624.459 124.894 617.474 122.857 600.397L114.656 601.375ZM113.68 600.844C114.043 600.899 114.345 601.056 114.521 601.212C114.602 601.283 114.637 601.336 114.649 601.358C114.652 601.363 114.654 601.367 114.655 601.369C114.656 601.371 114.656 601.373 114.656 601.373C114.656 601.373 114.656 601.373 114.656 601.373C114.656 601.373 114.656 601.373 114.656 601.373C114.656 601.373 114.656 601.373 114.656 601.373C114.656 601.373 114.656 601.373 114.656 601.373C114.656 601.373 114.656 601.373 114.656 601.373C114.656 601.373 114.656 601.373 114.656 601.373C114.656 601.373 114.656 601.373 114.656 601.373C114.656 601.374 114.656 601.374 114.656 601.375L122.857 600.397C122.312 595.826 118.401 593.208 114.922 592.679L113.68 600.844ZM91.9695 547.49C87.2099 556.573 87.9622 569.086 91.7721 579.323C95.5411 589.451 103.053 599.227 113.68 600.844L114.922 592.679C108.737 591.738 102.889 585.514 99.5125 576.442C96.1771 567.48 95.9989 557.595 99.285 551.324L91.9695 547.49ZM91.7719 544.963C92.2889 545.817 92.2846 546.889 91.9695 547.49L99.285 551.324C101.099 547.862 100.668 543.709 98.837 540.685L91.7719 544.963ZM106.201 492.719C98.5326 497.549 93.0522 507.371 90.3577 517.002C87.6866 526.549 87.2973 537.572 91.7719 544.963L98.837 540.685C96.1358 536.224 95.8582 527.995 98.3113 519.227C100.741 510.543 105.397 502.986 110.603 499.708L106.201 492.719ZM108.872 487.405C108.943 487.932 108.798 488.994 108.173 490.259C107.554 491.511 106.756 492.37 106.201 492.719L110.603 499.708C112.798 498.326 114.495 496.109 115.577 493.918C116.653 491.74 117.416 488.991 117.059 486.315L108.872 487.405ZM127.477 444.794C124.34 446.403 121.569 449.12 119.241 452.203C116.883 455.326 114.809 459.053 113.139 462.982C109.843 470.737 107.871 479.888 108.872 487.405L117.059 486.315C116.32 480.768 117.785 473.166 120.74 466.213C122.196 462.787 123.951 459.671 125.833 457.179C127.744 454.647 129.621 452.976 131.246 452.143L127.477 444.794ZM134.296 439.053C134.165 439.485 133.491 440.503 131.902 441.846C130.451 443.071 128.747 444.143 127.477 444.794L131.246 452.143C133.001 451.243 135.244 449.835 137.232 448.154C139.082 446.591 141.34 444.277 142.198 441.456L134.296 439.053ZM168.326 412.942C160.927 409.803 153.051 413.896 147.436 418.904C141.563 424.143 136.524 431.725 134.296 439.053L142.198 441.456C143.948 435.701 148.093 429.386 152.934 425.068C158.032 420.521 162.4 419.4 165.101 420.546L168.326 412.942ZM172.884 412.711C172.663 412.931 172.112 413.253 171.107 413.346C170.12 413.438 169.085 413.264 168.326 412.942L165.101 420.546C167.159 421.419 169.569 421.784 171.872 421.57C174.157 421.357 176.741 420.527 178.714 418.561L172.884 412.711ZM216.877 412.214C211.432 406.6 203.274 403.926 195.311 403.949C187.316 403.971 178.907 406.708 172.884 412.711L178.714 418.561C182.904 414.385 189.068 412.225 195.335 412.208C201.634 412.19 207.426 414.332 210.948 417.964L216.877 412.214ZM219.893 412.69C219.064 413.145 217.566 412.925 216.877 412.214L210.948 417.964C214.173 421.289 219.714 422.212 223.871 419.928L219.893 412.69ZM272.53 426.144C267.701 418.402 258.344 413.006 248.748 410.506C239.136 408.002 228.208 408.12 219.893 412.69L223.871 419.928C229.711 416.718 238.28 416.314 246.665 418.498C255.065 420.687 262.202 425.192 265.522 430.515L272.53 426.144ZM275.959 427.421C275.633 427.546 274.975 427.601 274.145 427.304C273.316 427.008 272.762 426.516 272.53 426.144L265.522 430.515C266.911 432.743 269.116 434.277 271.363 435.081C273.609 435.884 276.344 436.115 278.905 435.137L275.959 427.421ZM289.832 425.174C285.07 425.103 280.29 425.768 275.959 427.421L278.905 435.137C282.058 433.933 285.758 433.373 289.709 433.432L289.832 425.174ZM293.736 428.151C284.931 397.835 274.908 371.666 265.66 351.142L258.13 354.535C267.222 374.713 277.11 400.518 285.805 430.455L293.736 428.151ZM240.346 354.664C247.2 357.267 254.852 357.914 262.426 356.934L261.365 348.743C254.915 349.578 248.663 348.988 243.278 346.943L240.346 354.664ZM235.827 355.741C236.787 354.549 238.659 354.023 240.346 354.664L243.278 346.943C238.551 345.148 232.794 346.341 229.395 350.56L235.827 355.741ZM175.928 367.084C185.719 373.747 196.707 375.998 207.338 373.937C217.934 371.882 227.88 365.607 235.827 355.741L229.395 350.56C222.483 359.141 214.172 364.199 205.766 365.829C197.393 367.452 188.631 365.738 180.575 360.256L175.928 367.084ZM172.712 366.889C173.652 366.354 174.91 366.391 175.928 367.084L180.575 360.256C177.105 357.894 172.463 357.528 168.627 359.711L172.712 366.889ZM117.101 353.144C126.482 363.906 134.89 370.748 144.019 373.028C153.362 375.362 162.498 372.702 172.712 366.889L168.627 359.711C159.203 365.074 152.367 366.601 146.021 365.015C139.46 363.377 132.46 358.196 123.327 347.717L117.101 353.144ZM112.001 352.801C114.394 351.733 116.36 352.294 117.101 353.144L123.327 347.717C119.314 343.113 112.919 343.347 108.635 345.259L112.001 352.801ZM56.2483 315.542C58.0467 327.556 66.7396 339.056 77.1232 346.414C87.4255 353.714 100.734 357.83 112.001 352.801L108.635 345.259C101.228 348.564 91.1282 346.215 81.8983 339.675C72.7497 333.192 65.7868 323.475 64.4164 314.319L56.2483 315.542ZM51.9168 310.002C54.245 311.285 55.9483 313.538 56.2483 315.542L64.4164 314.319C63.6437 309.158 59.8825 304.962 55.9042 302.769L51.9168 310.002ZM32.4278 248.74C28.8499 258.877 29.8745 271.954 33.432 283.278C36.9553 294.494 43.3837 305.298 51.9168 310.002L55.9042 302.769C50.1356 299.589 44.5946 291.254 41.3114 280.803C38.0625 270.461 37.4437 259.344 40.2161 251.488L32.4278 248.74ZM30.5962 236.421C31.5257 237.636 32.3721 239.776 32.7539 242.329C33.1344 244.874 32.9625 247.225 32.4278 248.74L40.2161 251.488C41.3349 248.318 41.4321 244.518 40.9222 241.107C40.4135 237.705 39.21 234.087 37.1552 231.402L30.5962 236.421ZM21.2376 182.839C18.2056 190.126 18.1741 200.325 19.9018 209.921C21.6435 219.595 25.3309 229.54 30.5962 236.421L37.1552 231.402C32.9398 225.893 29.6255 217.318 28.0302 208.457C26.4208 199.519 26.717 191.169 28.8629 186.011L21.2376 182.839ZM24.7596 167.116C25.1158 168.544 24.9172 171.083 24.1049 174.351C23.3358 177.444 22.1792 180.575 21.2376 182.839L28.8629 186.011C29.8971 183.526 31.2162 179.979 32.12 176.343C32.9806 172.882 33.6522 168.641 32.7732 165.117L24.7596 167.116ZM38.6936 118.242C31.1317 121.62 26.8241 130.383 24.7837 139.111C22.6808 148.106 22.616 158.522 24.7596 167.116L32.7732 165.117C30.973 157.9 30.9961 148.818 32.8259 140.991C34.7183 132.896 38.1883 127.513 42.062 125.783L38.6936 118.242ZM47.1598 110.736C46.8856 111.877 45.9707 113.275 44.2762 114.75C42.6297 116.184 40.5764 117.401 38.6936 118.242L42.062 125.783C44.5224 124.684 47.3117 123.059 49.7 120.979C52.0403 118.941 54.3524 116.153 55.1903 112.666L47.1598 110.736ZM87.8799 78.8555C79.2397 78.1774 70.1724 81.6256 62.8398 87.2916C55.4755 92.982 49.4469 101.22 47.1598 110.736L55.1903 112.666C56.9687 105.266 61.7633 98.5608 67.8897 93.8269C74.0477 89.0686 81.1385 86.6109 87.2336 87.0893L87.8799 78.8555ZM95.6629 74.9882C94.4075 77.2852 90.8843 79.0914 87.8799 78.8555L87.2336 87.0893C93.0339 87.5446 99.8903 84.4745 102.91 78.9492L95.6629 74.9882ZM153.882 49.5966C144.091 46.6717 132.069 48.4916 121.495 53.052C110.888 57.6263 100.965 65.287 95.6629 74.9882L102.91 78.9492C107.082 71.3159 115.311 64.7134 124.765 60.6359C134.252 56.5445 144.2 55.324 151.518 57.5101L153.882 49.5966ZM163.687 46.8164C162.921 47.8511 161.41 48.8631 159.369 49.4453C157.343 50.0233 155.315 50.0244 153.882 49.5966L151.518 57.5101C154.74 58.4726 158.403 58.3095 161.635 57.3877C164.851 56.4701 168.167 54.6467 170.326 51.7293L163.687 46.8164ZM218.105 25.2167C209.609 22.8292 198.95 24.3302 189.213 28.1531C179.411 32.0016 169.869 38.4619 163.687 46.8164L170.326 51.7293C175.378 44.9013 183.51 39.2651 192.232 35.8408C201.018 32.3909 209.732 31.4428 215.87 33.1678L218.105 25.2167ZM226.442 23.2525C225.8 24.0889 224.618 24.8462 222.952 25.2515C221.297 25.654 219.52 25.6145 218.105 25.2167L215.87 33.1678C218.722 33.9693 221.944 33.9967 224.904 33.2766C227.853 32.5594 230.902 31.0049 232.993 28.2832L226.442 23.2525ZM287.246 11.5971C267.756 -0.825081 240.963 4.34579 226.442 23.2526L232.993 28.2832C245.045 12.5906 267.118 8.562 282.807 18.5618L287.246 11.5971ZM294.711 10.2852C292.614 12.3949 289.107 12.7831 287.246 11.5971L282.807 18.5618C288.519 22.2024 296.248 20.4548 300.569 16.1069L294.711 10.2852ZM352.847 19.6745C346.613 9.24989 335.943 3.07742 325.061 1.36543C314.209 -0.341648 302.624 2.32179 294.711 10.2853L300.569 16.1069C306.23 10.4106 314.953 8.13595 323.777 9.52419C332.571 10.9075 340.945 15.8638 345.758 23.913L352.847 19.6745ZM358.48 22.4271C355.98 22.4046 353.755 21.1931 352.847 19.6745L345.758 23.913C348.494 28.488 353.782 30.6442 358.406 30.6859L358.48 22.4271ZM403.914 77.0174C405.736 61.5997 399.131 47.9808 389.974 38.338C380.922 28.8046 368.76 22.5198 358.48 22.4271L358.406 30.6859C365.781 30.7523 375.946 35.5586 383.985 44.0251C391.921 52.3822 397.174 63.672 395.712 76.0483L403.914 77.0174Z" fill="#1B0C0C"/>
</svg>
