<svg width="349" height="581" viewBox="0 0 349 581" fill="none" xmlns="http://www.w3.org/2000/svg">
<path d="M188.778 495.692C198.95 537.737 128.171 540.285 151.905 567.041C175.639 593.796 321.858 564.492 331.606 530.092C341.354 495.692 272.271 519.05 261.675 480.403C239.837 502.159 224.29 506.491 188.778 495.692Z" fill="white"/>
<path d="M188.778 495.692C224.29 506.491 239.837 502.159 261.675 480.403V160.097C261.675 155.37 256.574 152.386 252.398 154.602C189.763 187.852 147.001 194.644 73.3241 190.151C68.7312 189.871 65.3717 194.48 67.1162 198.738L188.778 495.692Z" fill="#1B0C0C"/>
<path d="M188.778 495.692C198.95 537.737 128.171 540.285 151.905 567.041C175.639 593.796 321.858 564.492 331.606 530.092C341.354 495.692 272.271 519.05 261.675 480.403M188.778 495.692C224.29 506.491 239.837 502.159 261.675 480.403M188.778 495.692L67.1162 198.738C65.3717 194.48 68.7312 189.871 73.3241 190.151C147.001 194.644 189.763 187.852 252.398 154.602C256.574 152.386 261.675 155.37 261.675 160.097V480.403" stroke="#1B0C0C" stroke-width="6.50288"/>
<path d="M10 44.2196L49.6627 14.4725C53.1267 11.8746 58.1192 13.5353 59.3368 17.6905L97.789 148.916" stroke="#1B0C0C" stroke-width="18.2081" stroke-linecap="round"/>
<path d="M69.8811 196.435C58.0341 191.917 53.8206 166.573 72.1028 160.648C80.9122 157.793 55.804 150.867 56.5384 139.67C57.4325 126.037 83.5155 139.076 82.5825 125.487C81.9886 116.837 70.9049 117.901 70.52 109.229C69.9843 97.1553 86.56 102.68 91.7488 92.3052C97.5299 80.7465 84.4609 66.0936 93.1673 57.7886C100.783 50.5244 92.9599 63.4387 123.095 59.0186C149.16 55.1954 150.231 14.7758 149.814 5.48597C149.639 4.55625 149.562 3.91971 149.599 3.66921C149.647 3.34361 149.749 4.03518 149.814 5.48597C151.324 13.5031 160.151 43.3201 166.365 35.3741C173.301 26.5067 177.696 44.7516 186.058 45.8441C193.515 46.8184 201.941 33.6883 205.104 42.0507C209.648 54.0633 229.352 85.4864 244.891 73.1763C260.431 60.8662 231.439 90.4603 237.602 90.6727C247.418 91.0111 252.97 94.3555 255.674 98.8865C259.169 104.741 267.255 133.121 265.641 139.745C265.122 141.871 264.282 144.193 263.063 146.707C262.611 147.639 261.878 148.44 261.014 149.011C198.025 190.713 155.566 200.058 71.4142 196.719C70.8953 196.699 70.3663 196.62 69.8811 196.435Z" fill="white"/>
<path d="M72.1028 160.648C53.8206 166.573 58.0341 191.917 69.8811 196.435C70.3663 196.62 70.8953 196.699 71.4142 196.719C155.566 200.058 198.025 190.713 261.014 149.011C261.878 148.44 262.611 147.639 263.063 146.707C264.282 144.193 265.122 141.871 265.641 139.745C267.255 133.121 259.169 104.741 255.674 98.8865C252.97 94.3555 247.418 91.0111 237.602 90.6727C231.439 90.4603 260.431 60.8662 244.891 73.1763C229.352 85.4864 209.648 54.0633 205.104 42.0507C201.941 33.6883 193.515 46.8184 186.058 45.8441C177.696 44.7516 173.301 26.5067 166.365 35.3741C159.43 44.2416 149.242 6.07977 149.599 3.66921C149.956 1.25865 153.231 54.5984 123.095 59.0186C92.9599 63.4387 100.783 50.5244 93.1673 57.7886C84.4609 66.0936 97.5299 80.7465 91.7488 92.3053C86.56 102.68 69.9843 97.1553 70.52 109.229C70.9049 117.901 81.9886 116.837 82.5825 125.487C83.5155 139.076 57.4325 126.037 56.5384 139.67C55.804 150.867 80.9122 157.793 72.1028 160.648Z" stroke="#1B0C0C" stroke-width="6.50288"/>
<path d="M93.2373 61.777C111.445 85.8377 137.734 99.0375 163.468 77.3839C189.203 55.7304 163.468 36.4158 163.468 36.4158" stroke="#1B0C0C" stroke-width="6.50288" stroke-linecap="round"/>
<path d="M90.6363 98.1936C115.99 121.117 159.826 107.613 197.934 89.7397C236.042 71.8663 185.578 46.1705 185.578 46.1705" stroke="#1B0C0C" stroke-width="6.50288" stroke-linecap="round"/>
<path d="M129.629 112.374C145.465 142.665 178.426 134.61 194.032 112.374C209.639 90.1391 237.602 90.3901 237.602 90.3901" stroke="#1B0C0C" stroke-width="6.50288" stroke-linecap="round"/>
<path d="M78.9316 119.003C114.047 135.26 123.608 109.904 139.133 139.036C154.659 168.168 261.213 119.003 261.213 119.003" stroke="#1B0C0C" stroke-width="6.50288" stroke-linecap="round"/>
<path d="M61.372 148.916C91.9355 170.376 99.9394 145.144 125.991 171.196C152.043 197.247 263.072 145.144 263.072 145.144" stroke="#1B0C0C" stroke-width="6.50288" stroke-linecap="round"/>
<path d="M192.528 485.631L87.4301 223.948C86.2001 220.885 88.3504 217.522 91.6466 217.353L125.494 215.619C127.737 215.504 129.761 216.958 130.369 219.12L204.751 483.626C205.803 487.368 202.212 490.747 198.542 489.47L195.41 488.381C194.097 487.924 193.046 486.921 192.528 485.631Z" stroke="white" stroke-width="4.0074" stroke-linecap="round"/>
<path d="M253.306 473.226L257.118 187.939C257.162 184.615 253.901 182.249 250.755 183.324L216.789 194.923C214.677 195.644 213.339 197.723 213.557 199.944L240.684 476.192C241.063 480.05 245.616 481.897 248.576 479.394L251.603 476.833C252.666 475.934 253.287 474.618 253.306 473.226Z" stroke="white" stroke-width="4.0074" stroke-linecap="round"/>
<path d="M232.631 483.925L196.277 206.689C195.91 203.887 193.217 202.005 190.46 202.621L171.66 206.824L152.593 211.087C149.934 211.681 148.3 214.364 148.991 216.999L219.76 486.978C220.472 489.694 223.351 491.225 226.001 490.297L229.452 489.088C231.6 488.336 232.927 486.181 232.631 483.925Z" stroke="white" stroke-width="4.0074" stroke-linecap="round"/>
</svg>
