<svg width="91" height="120" viewBox="0 0 91 120" fill="none" xmlns="http://www.w3.org/2000/svg">
<path fill-rule="evenodd" clip-rule="evenodd" d="M3.69644 68.9776C0.632191 68.9776 -0.947149 72.6417 1.15686 74.8694L42.7549 118.914C44.1356 120.376 46.4624 120.373 47.8396 118.908L89.2433 74.8634C91.3394 72.6336 89.7584 68.9776 86.6981 68.9776L73.9868 68.9776C71.7755 68.9776 70.1206 66.9489 70.5648 64.7827L82.9867 4.20627C83.4309 2.04003 81.776 0.0113279 79.5647 0.0113282L11.5532 0.0113354C9.37044 0.0113356 7.72232 1.99078 8.11774 4.13738L19.3018 64.8516C19.6973 66.9982 18.0491 68.9776 15.8664 68.9776L3.69644 68.9776Z" fill="#8DD3FA"/>
</svg>
