<svg width="120" height="155" viewBox="0 0 120 155" fill="none" xmlns="http://www.w3.org/2000/svg">
<mask id="path-1-inside-1_433_410" fill="white">
<path fill-rule="evenodd" clip-rule="evenodd" d="M115.518 66.1891C118.586 66.1891 120.164 62.5184 118.053 60.2924L61.9228 1.09219C60.5429 -0.363135 58.2238 -0.360425 56.8473 1.09812L0.979135 60.2983C-1.12354 62.5264 0.456078 66.1891 3.51967 66.1891L23.5435 66.1891C25.7559 66.1891 27.411 68.2197 26.9649 70.3867L10.4098 150.805C9.9637 152.972 11.6189 155.002 13.8313 155.002L104.232 155.002C106.416 155.002 108.064 153.021 107.667 150.874L92.7699 70.3175C92.3728 68.1702 94.0212 66.1891 96.2049 66.1891L115.518 66.1891Z"/>
</mask>
<path fill-rule="evenodd" clip-rule="evenodd" d="M115.518 66.1891C118.586 66.1891 120.164 62.5184 118.053 60.2924L61.9228 1.09219C60.5429 -0.363135 58.2238 -0.360425 56.8473 1.09812L0.979135 60.2983C-1.12354 62.5264 0.456078 66.1891 3.51967 66.1891L23.5435 66.1891C25.7559 66.1891 27.411 68.2197 26.9649 70.3867L10.4098 150.805C9.9637 152.972 11.6189 155.002 13.8313 155.002L104.232 155.002C106.416 155.002 108.064 153.021 107.667 150.874L92.7699 70.3175C92.3728 68.1702 94.0212 66.1891 96.2049 66.1891L115.518 66.1891Z" fill="white"/>
<path d="M92.7699 70.3175L85.2214 71.7135L92.7699 70.3175ZM107.667 150.874L115.215 149.478L107.667 150.874ZM26.9649 70.3867L19.4462 68.8388L26.9649 70.3867ZM118.053 60.2924L112.483 65.5741L118.053 60.2924ZM61.9228 1.09219L56.3522 6.3739L56.3522 6.3739L61.9228 1.09219ZM56.8473 1.09812L51.2644 -4.17056L56.8473 1.09812ZM56.3522 6.3739L112.483 65.5741L123.624 55.0107L67.4934 -4.18952L56.3522 6.3739ZM6.56204 65.567L62.4302 6.36679L51.2644 -4.17056L-4.60377 55.0297L6.56204 65.567ZM23.5435 58.5126L3.51968 58.5126L3.51967 73.8655L23.5435 73.8655L23.5435 58.5126ZM17.9286 152.353L34.4837 71.9345L19.4462 68.8388L2.89103 149.257L17.9286 152.353ZM104.232 147.326L13.8313 147.326L13.8313 162.679L104.232 162.679L104.232 147.326ZM85.2214 71.7135L100.119 152.27L115.215 149.478L100.318 68.9216L85.2214 71.7135ZM115.518 58.5127L96.2049 58.5127L96.2049 73.8655L115.518 73.8656L115.518 58.5127ZM100.318 68.9216C100.794 71.4931 98.8199 73.8655 96.2049 73.8655L96.2049 58.5127C89.2224 58.5127 83.9517 64.8474 85.2214 71.7135L100.318 68.9216ZM104.232 162.679C111.214 162.679 116.485 156.344 115.215 149.478L100.119 152.27C99.643 149.698 101.617 147.326 104.232 147.326L104.232 162.679ZM2.89103 149.257C1.46461 156.186 6.75704 162.679 13.8313 162.679L13.8313 147.326C16.4807 147.326 18.4628 149.758 17.9286 152.353L2.89103 149.257ZM23.5435 73.8655C20.8941 73.8655 18.912 71.4338 19.4462 68.8388L34.4837 71.9345C35.9101 65.0055 30.6177 58.5126 23.5435 58.5126L23.5435 73.8655ZM-4.60377 55.0297C-11.3272 62.154 -6.27625 73.8655 3.51967 73.8655L3.51968 58.5126C7.1884 58.5126 9.08008 62.8988 6.56204 65.567L-4.60377 55.0297ZM112.483 65.5741C109.955 62.9085 111.845 58.5127 115.518 58.5127L115.518 73.8656C125.327 73.8656 130.372 62.1284 123.624 55.0107L112.483 65.5741ZM67.4934 -4.18952C63.0812 -8.84296 55.6657 -8.8343 51.2644 -4.17056L62.4302 6.36679C60.7819 8.11345 58.0046 8.11669 56.3522 6.3739L67.4934 -4.18952Z" fill="#1B0C0C" mask="url(#path-1-inside-1_433_410)"/>
</svg>
