<svg width="162" height="70" viewBox="0 0 162 70" fill="none" xmlns="http://www.w3.org/2000/svg">
<mask id="path-1-outside-1_441_520" maskUnits="userSpaceOnUse" x="0" y="0" width="162" height="70" fill="black">
<rect fill="white" width="162" height="70"/>
<path fill-rule="evenodd" clip-rule="evenodd" d="M35.0296 6L122.385 6C123.621 6 124.765 6.653 125.393 7.7172L155.513 58.7308C156.888 61.0594 155.209 64 152.505 64L35.0296 64H31.501C31.4344 64 31.3805 63.946 31.3805 63.8795V63.8795C31.3805 63.8187 31.3348 63.7674 31.2745 63.7596C17.0158 61.9199 6 49.7451 6 35C6 20.2549 17.0158 8.08007 31.2745 6.24038C31.3348 6.23261 31.3805 6.18131 31.3805 6.12054V6.12054C31.3805 6.05397 31.4344 6 31.501 6L35.0296 6Z"/>
</mask>
<path fill-rule="evenodd" clip-rule="evenodd" d="M35.0296 6L122.385 6C123.621 6 124.765 6.653 125.393 7.7172L155.513 58.7308C156.888 61.0594 155.209 64 152.505 64L35.0296 64H31.501C31.4344 64 31.3805 63.946 31.3805 63.8795V63.8795C31.3805 63.8187 31.3348 63.7674 31.2745 63.7596C17.0158 61.9199 6 49.7451 6 35C6 20.2549 17.0158 8.08007 31.2745 6.24038C31.3348 6.23261 31.3805 6.18131 31.3805 6.12054V6.12054C31.3805 6.05397 31.4344 6 31.501 6L35.0296 6Z" fill="#FF123D"/>
<path d="M31.2745 63.7596L31.9897 58.2164L31.2745 63.7596ZM31.2745 6.24038L31.9897 11.7836L31.2745 6.24038ZM155.513 58.7308L160.326 55.8892L155.513 58.7308ZM125.393 7.7172L120.58 10.5588L125.393 7.7172ZM35.0296 11.5891L122.385 11.5891V0.410861L35.0296 0.410861V11.5891ZM120.58 10.5588L150.7 61.5724L160.326 55.8892L130.206 4.87558L120.58 10.5588ZM152.505 58.4109L35.0296 58.4109V69.5891L152.505 69.5891L152.505 58.4109ZM35.0296 58.4109H31.501L31.501 69.5891H35.0296V58.4109ZM31.9897 58.2164C20.4778 56.7311 11.5891 46.8943 11.5891 35H0.410861C0.410861 52.5959 13.5537 67.1087 30.5593 69.3028L31.9897 58.2164ZM11.5891 35C11.5891 23.1057 20.4778 13.2689 31.9897 11.7836L30.5593 0.697192C13.5537 2.89128 0.410861 17.4041 0.410861 35H11.5891ZM31.501 11.5891H35.0296V0.410861L31.501 0.410861V11.5891ZM36.9696 6.12054C36.9696 9.14076 34.5212 11.5891 31.501 11.5891V0.410861C28.3476 0.410861 25.7913 2.96717 25.7913 6.12054L36.9696 6.12054ZM36.9696 63.8795C36.9696 60.9726 34.8016 58.5792 31.9897 58.2164L30.5593 69.3028C27.868 68.9556 25.7913 66.6647 25.7913 63.8795H36.9696ZM31.501 58.4109C34.5212 58.4109 36.9696 60.8592 36.9696 63.8795H25.7913C25.7913 67.0328 28.3476 69.5891 31.501 69.5891L31.501 58.4109ZM31.9897 11.7836C34.8017 11.4208 36.9696 9.02728 36.9696 6.12054L25.7913 6.12054C25.7913 3.33534 27.8679 1.04444 30.5593 0.697192L31.9897 11.7836ZM150.7 61.5724C149.875 60.1752 150.882 58.4109 152.505 58.4109L152.505 69.5891C159.536 69.5891 163.9 61.9436 160.326 55.8892L150.7 61.5724ZM122.385 11.5891C121.644 11.5891 120.957 11.1973 120.58 10.5588L130.206 4.87558C128.572 2.10866 125.598 0.410861 122.385 0.410861V11.5891Z" fill="#1B0C0C" mask="url(#path-1-outside-1_441_520)"/>
</svg>
