<svg width="120" height="91" viewBox="0 0 120 91" fill="none" xmlns="http://www.w3.org/2000/svg">
<path fill-rule="evenodd" clip-rule="evenodd" d="M51.0213 3.87688C51.0213 0.81261 47.3573 -0.766731 45.1295 1.3373L1.08586 42.9354C-0.376021 44.3161 -0.373302 46.6429 1.0918 48.0202L45.1355 89.4239C47.3653 91.5201 51.0213 89.9391 51.0213 86.8788L51.0213 74.1684C51.0213 71.9571 53.05 70.3022 55.2163 70.7464L115.794 83.1688C117.96 83.613 119.989 81.9581 119.989 79.7468L119.989 11.7349C119.989 9.55217 118.009 7.90405 115.863 8.29948L55.1474 19.484C53.0008 19.8794 51.0213 18.2313 51.0213 16.0486L51.0213 3.87688Z" fill="#FF123D"/>
</svg>
