<svg width="399" height="301" viewBox="0 0 399 301" fill="none" xmlns="http://www.w3.org/2000/svg">
<path fill-rule="evenodd" clip-rule="evenodd" d="M173.302 11.7614C173.302 1.51361 161.09 -3.81344 153.579 3.1576L3.75325 142.205C-1.25906 146.856 -1.2498 154.791 3.77336 159.431L153.599 297.828C161.117 304.773 173.302 299.441 173.302 289.206L173.302 247.508C173.302 240.073 180.125 234.511 187.407 236.011L384.697 276.635C391.978 278.135 398.802 272.573 398.802 265.138L398.802 38.2504C398.802 30.9124 392.145 25.3734 384.929 26.7081L187.175 63.2873C179.959 64.622 173.302 59.083 173.302 51.745L173.302 11.7614Z" fill="#FF123D"/>
<circle cx="162" cy="17" r="8.84615" fill="white" stroke="white" stroke-width="2.30769"/>
<circle cx="128" cy="47" r="8.84615" fill="white" stroke="white" stroke-width="2.30769"/>
<circle cx="96" cy="77" r="8.84615" fill="white" stroke="white" stroke-width="2.30769"/>
<circle cx="64" cy="106" r="8.84615" fill="white" stroke="white" stroke-width="2.30769"/>
<circle cx="33" cy="136" r="8.84615" fill="white" stroke="white" stroke-width="2.30769"/>
<circle cx="31" cy="165" r="8.84615" fill="white" stroke="white" stroke-width="2.30769"/>
<circle cx="62" cy="194" r="8.84615" fill="white" stroke="white" stroke-width="2.30769"/>
<circle cx="96" cy="225" r="8.84615" fill="white" stroke="white" stroke-width="2.30769"/>
<circle cx="128" cy="254" r="8.84615" fill="white" stroke="white" stroke-width="2.30769"/>
<circle cx="162" cy="286" r="8.84615" fill="white" stroke="white" stroke-width="2.30769"/>
<circle cx="164" cy="244" r="8.84615" fill="white" stroke="white" stroke-width="2.30769"/>
<circle cx="196.527" cy="225.171" r="8.84615" transform="rotate(-1.26626 196.527 225.171)" fill="white" stroke="white" stroke-width="2.30769"/>
<circle cx="238.737" cy="234.24" r="8.84615" transform="rotate(-1.26626 238.737 234.24)" fill="white" stroke="white" stroke-width="2.30769"/>
<circle cx="282.948" cy="243.266" r="8.84615" transform="rotate(-1.26626 282.948 243.266)" fill="white" stroke="white" stroke-width="2.30769"/>
<circle cx="327.158" cy="252.291" r="8.84615" transform="rotate(-1.26626 327.158 252.291)" fill="white" stroke="white" stroke-width="2.30769"/>
<circle cx="367.219" cy="262.218" r="8.84615" transform="rotate(-1.26626 367.219 262.218)" fill="white" stroke="white" stroke-width="2.30769"/>
<circle cx="388.219" cy="241.218" r="8.84615" transform="rotate(-1.26626 388.219 241.218)" fill="white" stroke="white" stroke-width="2.30769"/>
<circle cx="388.219" cy="196.218" r="8.84615" transform="rotate(-1.26626 388.219 196.218)" fill="white" stroke="white" stroke-width="2.30769"/>
<circle cx="388.219" cy="150.218" r="8.84615" transform="rotate(-1.26626 388.219 150.218)" fill="white" stroke="white" stroke-width="2.30769"/>
<circle cx="388.219" cy="104.218" r="8.84615" transform="rotate(-1.26626 388.219 104.218)" fill="white" stroke="white" stroke-width="2.30769"/>
<circle cx="388.219" cy="67.218" r="8.84615" transform="rotate(-1.26626 388.219 67.218)" fill="white" stroke="white" stroke-width="2.30769"/>
<circle cx="368.219" cy="43.218" r="8.84615" transform="rotate(-1.26626 368.219 43.218)" fill="white" stroke="white" stroke-width="2.30769"/>
<circle cx="327.219" cy="51.218" r="8.84615" transform="rotate(-1.26626 327.219 51.218)" fill="white" stroke="white" stroke-width="2.30769"/>
<circle cx="281.219" cy="61.218" r="8.84615" transform="rotate(-1.26626 281.219 61.218)" fill="white" stroke="white" stroke-width="2.30769"/>
<circle cx="235.219" cy="71.218" r="8.84615" transform="rotate(-1.26626 235.219 71.218)" fill="white" stroke="white" stroke-width="2.30769"/>
<circle cx="189.219" cy="81.218" r="8.84615" transform="rotate(-1.26626 189.219 81.218)" fill="white" stroke="white" stroke-width="2.30769"/>
<circle cx="162.219" cy="61.218" r="8.84615" transform="rotate(-1.26626 162.219 61.218)" fill="white" stroke="white" stroke-width="2.30769"/>
</svg>
