<svg width="385" height="435" viewBox="0 0 385 435" fill="none" xmlns="http://www.w3.org/2000/svg">
<path d="M64.5008 132.394C64.5556 133.055 64.8543 133.668 65.3405 134.12L72.0661 140.368C98.7359 152.182 152.066 162.974 134.364 52.2152C134.318 51.9242 134.316 51.6127 134.371 51.3231C135.904 43.2181 140.814 34.2786 145.115 26.4491C150.109 17.3564 154.281 9.76099 151.386 6.70881C151.354 6.67546 151.322 6.64265 151.288 6.61039L110.199 65.7577C109.943 66.1262 109.583 66.4306 109.182 66.6307C60.3897 90.9407 63.0306 114.656 64.5008 132.394Z" fill="white"/>
<path d="M327.715 336.104C327.83 336.164 327.95 336.217 328.073 336.259C354.338 345.256 393.831 298.209 373.847 286.719C333.506 291.662 307.037 257.481 290.272 235.832C283.4 226.958 278.159 220.189 274.261 219.084C230.135 206.569 229.35 260.042 234.301 285.798L280.998 311.377L327.715 336.104Z" fill="white"/>
<path d="M358.648 267.112C300.867 214.638 262.531 111.377 263.01 73.0824L248.596 78.8876C247.579 79.2972 246.915 80.2507 246.951 81.3465C248.59 130.674 288.568 235.125 373.847 286.719C358.61 277.959 390.731 300.201 358.648 267.112Z" fill="#8DD3FA"/>
<path fill-rule="evenodd" clip-rule="evenodd" d="M72.0661 140.368C102.327 165.157 134.133 180.768 173.825 188.756C192.15 183.906 189.252 200.442 199.177 225.982C207.856 248.313 218.942 274.986 234.301 285.798C229.35 260.042 230.135 206.569 274.261 219.084C278.159 220.189 283.4 226.958 290.272 235.832C307.037 257.481 333.506 291.662 373.847 286.719C288.568 235.125 248.59 130.674 246.951 81.3465C246.915 80.2507 247.579 79.2972 248.596 78.8876L263.01 73.0824C217.773 64.4515 169.816 25.3036 151.386 6.70881C151.354 6.67546 151.322 6.64265 151.288 6.61039C151.321 6.64313 151.353 6.67594 151.386 6.70881C154.281 9.76099 150.109 17.3564 145.115 26.4491C140.814 34.2786 135.904 43.2181 134.371 51.3231C134.316 51.6127 134.318 51.9242 134.364 52.2152C152.066 162.974 98.7359 152.182 72.0661 140.368Z" fill="#8DD3FA"/>
<path d="M72.0661 140.368L54.2494 184.502C53.7461 185.749 54.2554 187.175 55.4346 187.821L134.925 231.363C136.029 231.968 137.407 231.713 138.222 230.752L173.825 188.756C134.133 180.768 102.327 165.157 72.0661 140.368Z" fill="white"/>
<path d="M72.0661 140.368L54.2494 184.502C53.7461 185.749 54.2554 187.175 55.4346 187.821L134.925 231.363C136.029 231.968 137.407 231.713 138.222 230.752L173.825 188.756M72.0661 140.368L65.3405 134.12C64.8543 133.668 64.5556 133.055 64.5008 132.394C63.0306 114.656 60.3897 90.9407 109.182 66.6307C109.583 66.4306 109.943 66.1262 110.199 65.7577L151.288 6.61039M72.0661 140.368C98.7359 152.182 152.066 162.974 134.364 52.2152C134.318 51.9242 134.316 51.6127 134.371 51.3231C135.904 43.2181 140.814 34.2786 145.115 26.4491C150.109 17.3564 154.281 9.76099 151.386 6.70881M72.0661 140.368C102.327 165.157 134.133 180.768 173.825 188.756M151.288 6.61039C151.322 6.64265 151.354 6.67546 151.386 6.70881M151.288 6.61039C151.321 6.64313 151.353 6.67594 151.386 6.70881M263.01 73.0824C262.531 111.377 300.867 214.638 358.648 267.112C390.731 300.201 358.61 277.959 373.847 286.719M263.01 73.0824L248.596 78.8876C247.579 79.2972 246.915 80.2507 246.951 81.3465C248.59 130.674 288.568 235.125 373.847 286.719M263.01 73.0824C217.773 64.4515 169.816 25.3036 151.386 6.70881M373.847 286.719C393.831 298.209 354.338 345.256 328.073 336.259C327.95 336.217 327.83 336.164 327.715 336.104L280.998 311.377L234.301 285.798M373.847 286.719C333.506 291.662 307.037 257.481 290.272 235.832C283.4 226.958 278.159 220.189 274.261 219.084C230.135 206.569 229.35 260.042 234.301 285.798M234.301 285.798C218.942 274.986 207.856 248.313 199.177 225.982C189.252 200.442 192.15 183.906 173.825 188.756" stroke="#1B0C0C" stroke-width="8.60769"/>
<path d="M72.0661 140.368L54.2494 184.502C53.7461 185.749 54.2554 187.175 55.4346 187.821L134.925 231.363C136.029 231.968 137.407 231.713 138.222 230.752L173.825 188.756M72.0661 140.368L65.3405 134.12C64.8543 133.668 64.5556 133.055 64.5008 132.394C63.0306 114.656 60.3897 90.9407 109.182 66.6307C109.583 66.4306 109.943 66.1262 110.199 65.7577L151.288 6.61039M72.0661 140.368C98.7359 152.182 152.066 162.974 134.364 52.2152C134.318 51.9242 134.316 51.6127 134.371 51.3231C135.904 43.2181 140.814 34.2786 145.115 26.4491C150.109 17.3564 154.281 9.76099 151.386 6.70881M72.0661 140.368C102.327 165.157 134.133 180.768 173.825 188.756M151.288 6.61039C151.322 6.64265 151.354 6.67546 151.386 6.70881M151.288 6.61039C151.321 6.64313 151.353 6.67594 151.386 6.70881M263.01 73.0824C262.531 111.377 300.867 214.638 358.648 267.112C390.731 300.201 358.61 277.959 373.847 286.719M263.01 73.0824L248.596 78.8876C247.579 79.2972 246.915 80.2507 246.951 81.3465C248.59 130.674 288.568 235.125 373.847 286.719M263.01 73.0824C217.773 64.4515 169.816 25.3036 151.386 6.70881M373.847 286.719C393.831 298.209 354.338 345.256 328.073 336.259C327.95 336.217 327.83 336.164 327.715 336.104L280.998 311.377L234.301 285.798M373.847 286.719C333.506 291.662 307.037 257.481 290.272 235.832C283.4 226.958 278.159 220.189 274.261 219.084C230.135 206.569 229.35 260.042 234.301 285.798M234.301 285.798C218.942 274.986 207.856 248.313 199.177 225.982C189.252 200.442 192.15 183.906 173.825 188.756" stroke="#1B0C0C" stroke-width="8.60769"/>
<path d="M247.616 106.559L271.547 99.5034" stroke="#1B0C0C" stroke-width="8.60769" stroke-linecap="round"/>
<path d="M247.616 106.559L271.547 99.5034" stroke="white" stroke-width="8.60769" stroke-linecap="round"/>
<path d="M247.616 106.559L271.547 99.5034" stroke="white" stroke-width="8.60769" stroke-linecap="round"/>
<path d="M247.616 106.559L271.547 99.5034" stroke="white" stroke-width="8.60769" stroke-linecap="round"/>
<path d="M251.933 126.295L275.864 119.239" stroke="#1B0C0C" stroke-width="8.60769" stroke-linecap="round"/>
<path d="M251.933 126.295L275.864 119.239" stroke="white" stroke-width="8.60769" stroke-linecap="round"/>
<path d="M251.933 126.295L275.864 119.239" stroke="white" stroke-width="8.60769" stroke-linecap="round"/>
<path d="M251.933 126.295L275.864 119.239" stroke="white" stroke-width="8.60769" stroke-linecap="round"/>
<path d="M258.175 147.464L282.105 140.409" stroke="#1B0C0C" stroke-width="8.60769" stroke-linecap="round"/>
<path d="M258.175 147.464L282.105 140.409" stroke="white" stroke-width="8.60769" stroke-linecap="round"/>
<path d="M258.175 147.464L282.105 140.409" stroke="white" stroke-width="8.60769" stroke-linecap="round"/>
<path d="M258.175 147.464L282.105 140.409" stroke="white" stroke-width="8.60769" stroke-linecap="round"/>
<path d="M268.64 169.388L292.57 162.333" stroke="#1B0C0C" stroke-width="8.60769" stroke-linecap="round"/>
<path d="M268.64 169.388L292.57 162.333" stroke="white" stroke-width="8.60769" stroke-linecap="round"/>
<path d="M268.64 169.388L292.57 162.333" stroke="white" stroke-width="8.60769" stroke-linecap="round"/>
<path d="M268.64 169.388L292.57 162.333" stroke="white" stroke-width="8.60769" stroke-linecap="round"/>
<path d="M279.105 191.313L303.036 184.258" stroke="#1B0C0C" stroke-width="8.60769" stroke-linecap="round"/>
<path d="M279.105 191.313L303.036 184.258" stroke="white" stroke-width="8.60769" stroke-linecap="round"/>
<path d="M279.105 191.313L303.036 184.258" stroke="white" stroke-width="8.60769" stroke-linecap="round"/>
<path d="M279.105 191.313L303.036 184.258" stroke="white" stroke-width="8.60769" stroke-linecap="round"/>
<path d="M292.007 213.02L315.937 205.965" stroke="#1B0C0C" stroke-width="8.60769" stroke-linecap="round"/>
<path d="M292.007 213.02L315.937 205.965" stroke="white" stroke-width="8.60769" stroke-linecap="round"/>
<path d="M292.007 213.02L315.937 205.965" stroke="white" stroke-width="8.60769" stroke-linecap="round"/>
<path d="M292.007 213.02L315.937 205.965" stroke="white" stroke-width="8.60769" stroke-linecap="round"/>
<path d="M309.729 235.806L333.66 228.751" stroke="#1B0C0C" stroke-width="8.60769" stroke-linecap="round"/>
<path d="M309.729 235.806L333.66 228.751" stroke="white" stroke-width="8.60769" stroke-linecap="round"/>
<path d="M309.729 235.806L333.66 228.751" stroke="white" stroke-width="8.60769" stroke-linecap="round"/>
<path d="M309.729 235.806L333.66 228.751" stroke="white" stroke-width="8.60769" stroke-linecap="round"/>
<circle cx="197.057" cy="348.474" r="37.5949" transform="rotate(42.89 197.057 348.474)" fill="white" stroke="#1B0C0C" stroke-width="8.19452"/>
<path d="M214.083 364.18C204.853 374.117 189.772 374.787 180.41 366.091C171.049 357.395 170.608 342.306 179.838 332.369C189.068 322.433 204.149 321.762 213.511 330.458C222.872 339.154 223.313 354.244 214.083 364.18Z" stroke="#1B0C0C" stroke-width="8.19452"/>
<path d="M193.44 335.211L193.263 335.101C192.387 334.557 191.233 334.975 190.909 335.953C190.664 336.692 189.921 337.146 189.152 337.027L188.882 336.985C187.815 336.82 186.823 337.568 186.687 338.64L186.676 338.724C186.571 339.555 185.959 340.233 185.144 340.422L184.776 340.507C183.791 340.736 183.17 341.712 183.382 342.702L183.4 342.785C183.561 343.537 183.209 344.306 182.535 344.675C181.6 345.187 181.341 346.411 181.988 347.258L182.091 347.392C182.597 348.054 182.553 348.985 181.986 349.595C181.343 350.287 181.383 351.369 182.075 352.012L182.541 352.445C183.099 352.964 183.32 353.75 183.115 354.483L183.065 354.661C182.792 355.635 183.353 356.647 184.324 356.931C185.075 357.151 185.606 357.82 185.649 358.601L185.655 358.712C185.713 359.761 186.571 360.587 187.621 360.605L187.837 360.609C188.652 360.623 189.39 361.094 189.745 361.828L189.867 362.078C190.3 362.972 191.357 363.371 192.272 362.986C192.949 362.701 193.73 362.839 194.268 363.339L194.433 363.492C195.184 364.19 196.342 364.206 197.113 363.53L197.318 363.35C197.911 362.829 198.797 362.804 199.426 363.279C200.265 363.911 201.488 363.614 201.923 362.658C202.234 361.975 202.968 361.59 203.706 361.722L203.842 361.746C204.699 361.899 205.545 361.423 205.859 360.61L206.303 359.46C206.536 358.856 207.062 358.414 207.697 358.288L207.85 358.258C208.867 358.056 209.486 357.018 209.18 356.028C208.94 355.249 209.27 354.407 209.976 353.999L210.177 353.882C211.121 353.337 211.469 352.147 210.969 351.179L210.756 350.769C210.415 350.108 210.482 349.31 210.93 348.717L211.103 348.488C211.718 347.673 211.472 346.504 210.581 346.006C209.873 345.61 209.548 344.764 209.81 343.995L209.933 343.632C210.259 342.676 209.714 341.643 208.742 341.371C207.958 341.152 207.426 340.424 207.457 339.611L207.461 339.51C207.5 338.478 206.702 337.607 205.67 337.555L205.245 337.534C204.476 337.495 203.793 337.033 203.471 336.333C203.011 335.333 201.848 334.869 200.825 335.278L200.428 335.437C199.697 335.729 198.863 335.573 198.287 335.038L198.062 334.829C197.363 334.179 196.269 334.22 195.619 334.919C195.056 335.525 194.143 335.648 193.44 335.211Z" fill="#1B0C0C"/>
<circle cx="274.982" cy="392.344" r="37.5949" transform="rotate(42.89 274.982 392.344)" fill="white" stroke="#1B0C0C" stroke-width="8.19452"/>
<path d="M292.008 408.05C282.777 417.986 267.696 418.657 258.335 409.961C248.974 401.264 248.532 386.175 257.763 376.238C266.993 366.302 282.074 365.632 291.435 374.328C300.797 383.024 301.238 398.113 292.008 408.05Z" stroke="#1B0C0C" stroke-width="8.19452"/>
<path d="M271.366 379.081L271.188 378.971C270.313 378.427 269.159 378.845 268.835 379.823C268.59 380.562 267.847 381.016 267.078 380.897L266.808 380.855C265.741 380.69 264.748 381.438 264.613 382.509L264.602 382.594C264.497 383.425 263.885 384.102 263.069 384.292L262.702 384.377C261.717 384.605 261.096 385.582 261.308 386.571L261.326 386.655C261.487 387.407 261.135 388.175 260.46 388.545C259.525 389.056 259.266 390.281 259.914 391.127L260.017 391.262C260.523 391.924 260.479 392.854 259.911 393.465C259.269 394.157 259.309 395.239 260 395.882L260.467 396.315C261.025 396.833 261.246 397.62 261.041 398.353L260.991 398.531C260.718 399.505 261.279 400.517 262.25 400.801C263.001 401.02 263.532 401.689 263.575 402.47L263.581 402.582C263.639 403.631 264.497 404.457 265.547 404.475L265.763 404.478C266.578 404.492 267.316 404.964 267.671 405.697L267.793 405.948C268.226 406.842 269.283 407.241 270.198 406.855C270.875 406.571 271.656 406.709 272.194 407.208L272.359 407.362C273.11 408.06 274.268 408.076 275.039 407.4L275.244 407.219C275.837 406.699 276.722 406.673 277.352 407.148C278.191 407.781 279.413 407.484 279.849 406.527C280.16 405.845 280.893 405.459 281.632 405.591L281.768 405.615C282.625 405.769 283.471 405.292 283.785 404.48L284.229 403.33C284.462 402.726 284.988 402.284 285.623 402.158L285.776 402.127C286.793 401.925 287.412 400.888 287.106 399.897C286.865 399.118 287.195 398.276 287.901 397.869L288.103 397.752C289.046 397.207 289.395 396.016 288.894 395.049L288.682 394.638C288.341 393.978 288.408 393.18 288.856 392.586L289.029 392.357C289.644 391.543 289.398 390.373 288.507 389.876C287.798 389.479 287.474 388.633 287.736 387.865L287.859 387.502C288.185 386.546 287.64 385.513 286.667 385.241C285.883 385.022 285.352 384.294 285.383 383.48L285.387 383.38C285.425 382.348 284.627 381.476 283.596 381.425L283.171 381.403C282.402 381.365 281.718 380.902 281.397 380.203C280.936 379.203 279.773 378.739 278.751 379.147L278.353 379.306C277.623 379.598 276.789 379.443 276.213 378.907L275.988 378.699C275.288 378.049 274.194 378.089 273.545 378.789C272.982 379.395 272.069 379.517 271.366 379.081Z" fill="#1B0C0C"/>
<circle cx="120.915" cy="306.766" r="37.5949" transform="rotate(42.89 120.915 306.766)" fill="white" stroke="#1B0C0C" stroke-width="8.19452"/>
<path d="M137.939 322.471C128.709 332.408 113.628 333.078 104.267 324.382C94.9051 315.686 94.464 300.597 103.694 290.66C112.925 280.724 128.006 280.053 137.367 288.749C146.729 297.445 147.17 312.535 137.939 322.471Z" stroke="#1B0C0C" stroke-width="8.19452"/>
<path d="M117.298 293.502L117.12 293.392C116.244 292.848 115.091 293.266 114.766 294.244C114.521 294.983 113.779 295.437 113.01 295.318L112.739 295.276C111.673 295.111 110.68 295.859 110.544 296.93L110.534 297.015C110.429 297.846 109.817 298.524 109.001 298.713L108.634 298.798C107.648 299.027 107.028 300.003 107.24 300.992L107.258 301.076C107.419 301.828 107.067 302.597 106.392 302.966C105.457 303.478 105.198 304.702 105.845 305.549L105.948 305.683C106.455 306.345 106.41 307.276 105.843 307.886C105.2 308.578 105.24 309.66 105.932 310.303L106.398 310.736C106.956 311.254 107.178 312.041 106.972 312.774L106.922 312.952C106.649 313.926 107.211 314.938 108.181 315.222C108.932 315.442 109.463 316.111 109.506 316.892L109.512 317.003C109.57 318.052 110.428 318.878 111.479 318.896L111.695 318.9C112.51 318.914 113.248 319.385 113.603 320.119L113.724 320.369C114.157 321.263 115.214 321.662 116.13 321.277C116.806 320.992 117.587 321.13 118.125 321.63L118.29 321.783C119.042 322.481 120.199 322.497 120.97 321.821L121.176 321.641C121.769 321.12 122.654 321.095 123.284 321.57C124.123 322.202 125.345 321.905 125.78 320.949C126.091 320.266 126.825 319.881 127.564 320.013L127.699 320.037C128.557 320.19 129.403 319.714 129.716 318.901L130.16 317.751C130.393 317.147 130.919 316.705 131.554 316.579L131.708 316.548C132.724 316.347 133.343 315.309 133.037 314.319C132.797 313.54 133.127 312.698 133.833 312.29L134.035 312.173C134.978 311.628 135.326 310.438 134.826 309.47L134.614 309.06C134.272 308.399 134.34 307.601 134.788 307.008L134.961 306.779C135.575 305.964 135.329 304.795 134.439 304.297C133.73 303.901 133.405 303.055 133.667 302.286L133.791 301.923C134.116 300.967 133.572 299.934 132.599 299.662C131.815 299.443 131.284 298.715 131.314 297.902L131.318 297.801C131.357 296.769 130.559 295.898 129.528 295.846L129.103 295.825C128.334 295.786 127.65 295.323 127.328 294.624C126.868 293.624 125.705 293.16 124.683 293.568L124.285 293.727C123.554 294.02 122.721 293.864 122.144 293.329L121.92 293.12C121.22 292.47 120.126 292.51 119.476 293.21C118.913 293.816 118 293.938 117.298 293.502Z" fill="#1B0C0C"/>
<circle cx="42.9551" cy="263.986" r="37.5949" transform="rotate(42.89 42.9551 263.986)" fill="white" stroke="#1B0C0C" stroke-width="8.19452"/>
<path d="M59.9784 279.693C50.7481 289.63 35.667 290.3 26.3056 281.604C16.9442 272.908 16.503 257.818 25.7334 247.882C34.9637 237.945 50.0448 237.275 59.4062 245.971C68.7676 254.667 69.2088 269.757 59.9784 279.693Z" stroke="#1B0C0C" stroke-width="8.19452"/>
<path d="M39.3376 250.724L39.1601 250.614C38.2844 250.07 37.1307 250.488 36.8062 251.466C36.5613 252.205 35.8188 252.659 35.0498 252.54L34.7795 252.498C33.7126 252.333 32.72 253.081 32.5844 254.152L32.5737 254.237C32.4686 255.068 31.857 255.745 31.0411 255.935L30.6737 256.02C29.6882 256.249 29.0679 257.225 29.2798 258.214L29.2977 258.298C29.4588 259.05 29.1067 259.819 28.432 260.188C27.4971 260.7 27.238 261.924 27.8855 262.77L27.9885 262.905C28.4948 263.567 28.4503 264.497 27.8831 265.108C27.2403 265.8 27.2802 266.882 27.9722 267.525L28.4385 267.958C28.9964 268.476 29.2179 269.263 29.0123 269.996L28.9624 270.174C28.6894 271.148 29.2509 272.16 30.2215 272.444C30.9724 272.663 31.5032 273.332 31.5463 274.114L31.5525 274.225C31.6104 275.274 32.4685 276.1 33.5187 276.118L33.7348 276.122C34.5498 276.136 35.2876 276.607 35.6429 277.34L35.7643 277.591C36.1972 278.485 37.2542 278.884 38.1697 278.498C38.8465 278.214 39.6274 278.352 40.1654 278.851L40.3302 279.005C41.0816 279.703 42.2393 279.719 43.0102 279.043L43.2158 278.862C43.8087 278.342 44.6941 278.316 45.3239 278.791C46.1628 279.424 47.3851 279.127 47.8204 278.171C48.1312 277.488 48.8652 277.102 49.6037 277.234L49.7392 277.259C50.5968 277.412 51.4426 276.935 51.7564 276.123L52.2003 274.973C52.4334 274.369 52.9595 273.927 53.5944 273.801L53.7477 273.77C54.7645 273.568 55.3832 272.531 55.0775 271.54C54.837 270.761 55.1671 269.92 55.873 269.512L56.0747 269.395C57.0181 268.85 57.3665 267.66 56.866 266.692L56.6538 266.281C56.3123 265.621 56.38 264.823 56.8278 264.23L57.0008 264C57.6154 263.186 57.3694 262.016 56.4788 261.519C55.77 261.122 55.4454 260.276 55.7073 259.508L55.8308 259.145C56.1565 258.189 55.6119 257.156 54.639 256.884C53.8551 256.665 53.3239 255.937 53.3545 255.123L53.3583 255.023C53.3972 253.991 52.5991 253.12 51.5677 253.068L51.1428 253.046C50.3739 253.008 49.6901 252.545 49.3683 251.846C48.9082 250.846 47.7451 250.382 46.7229 250.79L46.3252 250.949C45.5945 251.241 44.7608 251.086 44.1843 250.551L43.9596 250.342C43.2601 249.692 42.1661 249.732 41.5163 250.432C40.9534 251.038 40.0402 251.16 39.3376 250.724Z" fill="#1B0C0C"/>
<path d="M43.9007 203.043C46.7154 197.904 53.1625 196.021 58.3009 198.835L322.748 343.691C327.886 346.505 329.77 352.952 326.955 358.091L319.085 372.459C317.885 374.649 315.952 376.346 313.624 377.25L286.021 387.98C279.691 390.44 272.741 386.369 271.447 379.702C263.37 338.069 249.418 324.325 205.116 342.388C198.578 345.053 191.088 341.106 188.922 334.386C177.302 298.334 148.659 297.525 130.637 301.091C123.096 302.583 114.645 297.191 113.264 289.629C109.225 267.504 95.8926 232.88 51.9383 253.637C44.6065 257.099 35.4159 252.693 34.8094 244.608L33.3973 225.78C33.2439 223.735 33.6867 221.689 34.672 219.891L43.9007 203.043Z" fill="#1B0C0C" stroke="white" stroke-width="5.30408"/>
</svg>
