<svg width="858" height="516" viewBox="0 0 858 516" fill="none" xmlns="http://www.w3.org/2000/svg">
<path fill-rule="evenodd" clip-rule="evenodd" d="M794.968 91.7246C795.152 93.9957 796.984 95.8214 799.226 96.2279C827.313 101.32 862.933 156.476 836.59 197.644C835.326 199.619 835.773 202.273 837.496 203.863C856.94 221.802 856.862 267.855 830.452 288.304C827.932 290.255 827.855 294.382 830.229 296.508C854.25 318.028 845.041 365.881 817.207 374.127C815.001 374.781 813.432 376.926 813.715 379.209C821.671 443.33 767.81 461.509 717.699 447.398C714.727 446.56 711.751 449.065 711.761 452.153C711.956 507.846 605.529 518.065 574.056 488.941C572.144 487.173 569.064 487.109 567.215 488.942C538.286 517.608 485.442 514.691 461.271 488.265C459.782 486.638 457.313 486.272 455.463 487.475C421.564 509.507 383.678 502.568 363.426 470.627C362.499 469.163 360.775 468.366 359.064 468.644C320.049 474.983 303.034 463.525 285.732 416.27C284.935 414.094 282.511 412.987 280.255 413.519C244.627 421.926 208.22 365.27 220.486 331.578C221.291 329.365 220.393 326.821 218.482 325.446C196.309 309.488 197.54 251.076 219.829 228.835C221.939 226.729 221.805 222.975 219.289 221.375C84.1809 135.432 44.9346 83.0162 24.1923 55.3135C16.9744 45.6735 11.9971 39.0261 6.00098 34.9998C83.7602 87.2127 161.048 123.217 222.261 145.801C224.363 146.577 226.669 145.508 227.603 143.472C231.808 134.297 237.477 127.533 244.23 125.62C247.477 124.7 250.798 121.114 250.435 117.759C247.288 88.7357 274.301 40.8111 299.615 53.2744C302.383 54.6376 306.132 53.5024 307.33 50.6581C320.176 20.158 365.051 9.18415 386.878 27.3316C389.078 29.1606 392.585 28.8834 394.396 26.6689C416.87 -0.80925 478.024 -0.565247 497.479 25.4675C499.359 27.9829 503.405 28.4683 505.699 26.3246C530.817 2.85939 586.353 4.77319 603.114 26.4667C604.86 28.7264 608.315 29.415 610.556 27.6462C641.761 3.02488 689.324 12.5543 708.54 46.7916C709.959 49.32 713.469 49.9681 715.808 48.2551C744.153 27.4989 791.802 52.6261 794.968 91.7246Z" fill="white"/>
<path d="M24.1923 55.3135L28.9478 51.7527V51.7528L24.1923 55.3135ZM2.68921 39.932C-0.034729 38.1029 -0.760193 34.412 1.06885 31.6881C2.89789 28.9641 6.58881 28.2386 9.31274 30.0677L2.68921 39.932ZM708.54 46.7916L703.359 49.6992L708.54 46.7916ZM715.808 48.2551L719.318 53.0482L715.808 48.2551ZM603.114 26.4667L607.815 22.8345L603.114 26.4667ZM505.699 26.3246L501.644 21.9834L505.699 26.3246ZM386.878 27.3316L390.676 22.7634L386.878 27.3316ZM394.396 26.6689L398.995 30.43L394.396 26.6689ZM299.615 53.2744L302.239 47.9445L299.615 53.2744ZM307.33 50.6581L312.805 52.9641L307.33 50.6581ZM244.23 125.62L245.85 131.336L244.23 125.62ZM250.435 117.759L244.528 118.399L250.435 117.759ZM222.261 145.801L224.317 140.228L222.261 145.801ZM219.829 228.835L224.025 233.04L219.829 228.835ZM219.289 221.375L216.101 226.387L219.289 221.375ZM220.486 331.578L214.903 329.546L220.486 331.578ZM218.482 325.446L221.952 320.624L218.482 325.446ZM285.732 416.27L280.153 418.312L285.732 416.27ZM280.255 413.519L278.891 407.737L280.255 413.519ZM363.426 470.627L368.444 467.445L363.426 470.627ZM359.064 468.644L360.017 474.508L359.064 468.644ZM461.271 488.265L456.887 492.275L461.271 488.265ZM455.463 487.475L458.701 492.456L455.463 487.475ZM574.056 488.941L570.021 493.302L574.056 488.941ZM567.215 488.942L563.033 484.722L567.215 488.942ZM717.699 447.398L719.31 441.679L717.699 447.398ZM711.761 452.153L717.702 452.133L711.761 452.153ZM817.207 374.127L815.52 368.431L817.207 374.127ZM813.715 379.209L819.611 378.477L813.715 379.209ZM830.452 288.304L834.089 293.001L830.452 288.304ZM799.226 96.2279L798.166 102.073L799.226 96.2279ZM836.59 197.644L841.594 200.846L836.59 197.644ZM837.496 203.863L833.468 208.23L837.496 203.863ZM831.586 194.442C843.328 176.091 841.496 154.284 832.935 135.917C828.672 126.772 822.837 118.733 816.527 112.741C810.147 106.684 803.661 103.07 798.166 102.073L800.285 90.3823C808.834 91.9321 817.333 97.1221 824.708 104.125C832.153 111.194 838.844 120.471 843.704 130.897C853.388 151.673 856.194 178.029 841.594 200.846L831.586 194.442ZM826.815 283.606C838.305 274.71 844.414 259.909 845.237 244.818C846.068 229.589 841.455 215.599 833.468 208.23L841.524 199.497C852.981 210.066 858.051 228.071 857.101 245.466C856.144 262.999 849.009 281.449 834.089 293.001L826.815 283.606ZM815.52 368.431C826.499 365.178 834.762 353.659 837.314 339.259C839.846 324.968 836.321 309.942 826.265 300.933L834.193 292.083C848.158 304.594 852.039 324.254 849.013 341.331C846.007 358.299 835.749 374.83 818.895 379.823L815.52 368.431ZM719.31 441.679C743.394 448.461 767.607 447.237 784.516 437.493C800.859 428.076 811.552 410.023 807.819 379.941L819.611 378.477C823.834 412.516 811.575 435.614 790.448 447.788C769.888 459.636 742.116 460.446 716.089 453.116L719.31 441.679ZM578.09 484.581C584.735 490.729 595.962 495.264 609.801 497.443C623.499 499.6 639.054 499.332 653.661 496.52C668.316 493.698 681.588 488.399 691.047 480.849C700.372 473.406 705.862 463.93 705.821 452.174L717.702 452.133C717.758 468.223 710.018 480.909 698.459 490.135C687.034 499.255 671.769 505.133 655.907 508.187C639.998 511.251 623.057 511.558 607.953 509.18C592.992 506.825 579.113 501.716 570.021 493.302L578.09 484.581ZM465.655 484.256C476.404 496.008 493.968 502.902 512.593 503.324C531.164 503.744 549.932 497.704 563.033 484.722L571.396 493.162C555.569 508.846 533.451 515.681 512.324 515.202C491.252 514.725 470.308 506.948 456.887 492.275L465.655 484.256ZM368.444 467.445C377.74 482.108 390.889 490.791 405.397 493.447C419.947 496.111 436.37 492.799 452.226 482.493L458.701 492.456C440.658 504.183 421.189 508.417 403.257 505.135C385.285 501.844 369.365 491.087 358.409 473.808L368.444 467.445ZM291.311 414.227C299.902 437.693 307.974 450.842 317.684 457.703C327.081 464.342 339.169 465.858 358.112 462.78L360.017 474.508C339.944 477.769 324.017 476.725 310.828 467.407C297.951 458.309 288.864 442.102 280.153 418.312L291.311 414.227ZM226.068 333.611C220.856 347.929 225.849 368.46 237.291 384.949C248.818 401.56 264.682 411.09 278.891 407.737L281.62 419.301C260.2 424.355 240.047 409.76 227.53 391.723C214.927 373.562 207.85 348.919 214.903 329.546L226.068 333.611ZM224.025 233.04C214.432 242.613 208.732 260.963 208.422 279.595C208.27 288.761 209.44 297.573 211.847 304.889C214.277 312.275 217.792 317.63 221.952 320.624L215.012 330.268C208.085 325.283 203.44 317.353 200.561 308.603C197.659 299.783 196.373 289.61 196.542 279.398C196.877 259.275 202.938 237.298 215.633 224.629L224.025 233.04ZM216.101 226.387C80.366 140.047 40.5944 87.1318 19.4367 58.8742L28.9478 51.7528C49.2747 78.9007 87.9958 130.818 222.478 216.362L216.101 226.387ZM19.4367 58.8742C11.988 48.926 7.65723 43.2678 2.68921 39.932L9.31274 30.0677C16.337 34.7843 21.9607 42.421 28.9478 51.7527L19.4367 58.8742ZM9.31274 30.0677C86.6252 81.9806 163.48 117.782 224.317 140.228L220.205 151.375C158.616 128.652 80.8952 92.4448 2.68921 39.932L9.31274 30.0677ZM245.85 131.336C241.683 132.516 237.004 137.219 233.003 145.947L222.202 140.996C226.612 131.375 233.272 122.55 242.61 119.904L245.85 131.336ZM296.99 58.6043C292.683 56.4836 288.278 56.7827 283.584 59.2632C278.697 61.8464 273.71 66.7416 269.27 73.2925C260.312 86.5077 254.957 104.357 256.341 117.119L244.528 118.399C242.765 102.137 249.344 81.5131 259.434 66.626C264.518 59.1257 270.834 52.5626 278.032 48.7583C285.425 44.8513 293.889 43.8335 302.239 47.9445L296.99 58.6043ZM383.08 31.8999C374.129 24.4576 359.669 22.5224 345.315 26.4793C331.065 30.4077 318.358 39.7798 312.805 52.9641L301.855 48.3521C309.148 31.0363 325.302 19.6714 342.157 15.0248C358.91 10.4066 377.8 12.0582 390.676 22.7634L383.08 31.8999ZM492.72 29.0239C484.633 18.2027 466.808 11.8275 447.104 11.9424C427.502 12.0566 408.669 18.6019 398.995 30.43L389.798 22.9078C402.597 7.25778 425.578 0.185918 447.035 0.0608368C468.39 -0.063653 490.87 6.69951 502.238 21.9111L492.72 29.0239ZM598.413 30.099C595.137 25.8595 589.639 22.2086 582.342 19.5826C575.1 16.9761 566.469 15.5225 557.461 15.4015C539.233 15.1565 520.799 20.3486 509.755 30.6659L501.644 21.9834C515.718 8.83545 537.61 3.25183 557.62 3.5208C567.731 3.65671 577.696 5.28259 586.366 8.40291C594.981 11.5037 602.71 16.2272 607.815 22.8345L598.413 30.099ZM703.359 49.6992C685.937 18.6576 642.586 9.94135 614.236 32.31L606.876 22.9823C640.936 -3.89159 692.711 6.45114 713.72 43.8839L703.359 49.6992ZM789.047 92.2042C787.654 75.0074 776.418 60.5672 762.003 52.7697C747.528 44.9393 731.115 44.41 719.318 53.0482L712.298 43.4619C728.846 31.344 750.43 33.0002 767.657 42.319C784.944 51.6706 799.116 69.3433 800.89 91.245L789.047 92.2042ZM713.72 43.8839C713.482 43.4588 713.132 43.3153 712.971 43.2838C712.824 43.2551 712.573 43.2612 712.298 43.4619L719.318 53.0482C714.299 56.7235 706.64 55.5446 703.359 49.6992L713.72 43.8839ZM607.815 22.8345C607.762 22.7654 607.718 22.7372 607.705 22.7292C607.693 22.7225 607.681 22.7164 607.653 22.7117C607.614 22.7051 607.27 22.6714 606.876 22.9823L614.236 32.31C608.992 36.448 601.846 34.5426 598.413 30.099L607.815 22.8345ZM502.238 21.9111C502.148 21.7911 502.068 21.7429 502.05 21.7329C502.036 21.7252 502.05 21.7343 502.08 21.7376C502.111 21.741 502.094 21.7318 502.024 21.7526C501.945 21.776 501.797 21.8398 501.644 21.9834L509.755 30.6659C504.701 35.3874 496.573 34.1795 492.72 29.0239L502.238 21.9111ZM390.676 22.7634C390.463 22.5863 390.305 22.5949 390.278 22.5972C390.246 22.5999 390.024 22.6315 389.798 22.9078L398.995 30.43C395.018 35.2922 387.724 35.7605 383.08 31.8999L390.676 22.7634ZM302.239 47.9445C302.161 47.9062 302.122 47.9075 302.139 47.9084C302.158 47.9094 302.189 47.9059 302.214 47.8978C302.238 47.8898 302.204 47.8949 302.131 47.9573C302.051 48.0267 301.937 48.1577 301.855 48.3521L312.805 52.9641C310.1 59.3873 302.392 61.264 296.99 58.6043L302.239 47.9445ZM242.61 119.904C242.724 119.872 242.966 119.776 243.281 119.561C243.591 119.351 243.884 119.085 244.12 118.802C244.359 118.515 244.475 118.287 244.518 118.172C244.56 118.062 244.502 118.152 244.528 118.399L256.341 117.119C256.755 120.935 255.066 124.224 253.252 126.403C251.407 128.62 248.783 130.504 245.85 131.336L242.61 119.904ZM224.317 140.228C223.262 139.838 222.451 140.452 222.202 140.996L233.003 145.947C230.887 150.564 225.464 153.315 220.205 151.375L224.317 140.228ZM215.633 224.629C215.397 224.865 215.353 225.1 215.364 225.272C215.376 225.48 215.519 226.018 216.101 226.387L222.478 216.362C228.714 220.329 228.382 228.693 224.025 233.04L215.633 224.629ZM214.903 329.546C214.806 329.814 214.845 330.011 214.869 330.082C214.889 330.144 214.925 330.206 215.012 330.268L221.952 320.624C225.828 323.413 227.864 328.679 226.068 333.611L214.903 329.546ZM280.153 418.312C280.331 418.799 280.675 419.091 280.934 419.217C281.169 419.332 281.402 419.352 281.62 419.301L278.891 407.737C283.654 406.613 289.338 408.84 291.311 414.227L280.153 418.312ZM358.409 473.808C358.724 474.304 359.323 474.621 360.017 474.508L358.112 462.78C362.226 462.112 366.273 464.022 368.444 467.445L358.409 473.808ZM456.887 492.275C457.275 492.699 458.011 492.904 458.701 492.456L452.226 482.493C456.615 479.641 462.289 480.577 465.655 484.256L456.887 492.275ZM570.021 493.302C570.206 493.474 570.405 493.531 570.574 493.532C570.759 493.533 571.094 493.462 571.396 493.162L563.033 484.722C567.322 480.472 574.035 480.828 578.09 484.581L570.021 493.302ZM716.089 453.116C716.702 453.289 717.18 453.059 717.363 452.91C717.524 452.779 717.704 452.527 717.702 452.133L705.821 452.174C705.798 445.587 712.119 439.654 719.31 441.679L716.089 453.116ZM818.895 379.823C819.11 379.76 819.274 379.636 819.393 379.465C819.523 379.281 819.667 378.931 819.611 378.477L807.819 379.941C807.139 374.456 810.846 369.816 815.52 368.431L818.895 379.823ZM834.089 293.001C834.261 292.869 834.357 292.722 834.403 292.625C834.444 292.537 834.444 292.49 834.445 292.485C834.445 292.48 834.446 292.452 834.422 292.393C834.396 292.327 834.33 292.206 834.193 292.083L826.265 300.933C821.233 296.426 821.25 287.915 826.815 283.606L834.089 293.001ZM798.166 102.073C793.574 101.241 789.472 97.4512 789.047 92.2042L800.89 91.245C800.861 90.8965 800.71 90.6642 800.606 90.5566C800.513 90.4597 800.409 90.4047 800.285 90.3823L798.166 102.073ZM841.594 200.846C841.802 200.521 841.826 200.201 841.796 200.003C841.768 199.818 841.682 199.642 841.524 199.497L833.468 208.23C829.805 204.851 828.643 199.041 831.586 194.442L841.594 200.846Z" fill="#1B0C0C"/>
</svg>
