<svg width="518" height="559" viewBox="0 0 518 559" fill="none" xmlns="http://www.w3.org/2000/svg">
<path fill-rule="evenodd" clip-rule="evenodd" d="M179.442 157.836C180.478 159.719 179.402 162.057 177.339 162.658C168.409 165.257 160.503 169.734 155.273 176.13C153.854 177.863 151.109 178.081 149.386 176.649C132.296 162.44 97.1609 171.032 87.1028 194.912C86.1648 197.139 83.2297 198.028 81.0618 196.961C61.2419 187.202 40.0923 224.726 42.5557 247.45C42.8405 250.077 40.2319 252.885 37.6904 253.607C20.1486 258.59 11.9508 305.381 23.9589 324.186C25.3325 326.337 24.6383 329.776 22.5127 331.189C1.36696 345.244 -1.04154 396.69 17.5383 410.061C19.0349 411.138 19.7376 413.13 19.1069 414.862C9.50338 441.242 38.0089 485.601 65.9042 479.019C67.6701 478.602 69.5683 479.469 70.1922 481.173C83.7392 518.172 97.0613 527.143 127.609 522.18C128.948 521.962 130.298 522.586 131.024 523.732C146.881 548.741 176.544 554.174 203.086 536.923C204.534 535.982 206.467 536.268 207.633 537.543C226.558 558.233 267.933 560.517 290.583 538.073C292.031 536.637 294.442 536.687 295.939 538.072C320.582 560.875 403.91 552.873 403.758 509.268C403.749 506.85 406.079 504.889 408.407 505.545C447.641 516.594 489.813 502.36 483.583 452.155C483.361 450.368 484.59 448.688 486.318 448.177C508.11 441.72 515.321 404.253 496.513 387.404C494.654 385.739 494.715 382.508 496.688 380.98C517.366 364.969 517.427 328.911 502.203 314.866C500.854 313.621 500.504 311.543 501.494 309.997C522.119 277.763 494.23 234.579 472.239 230.592C470.483 230.273 469.049 228.844 468.905 227.066C466.426 196.453 429.119 176.78 406.926 193.031C405.094 194.372 402.346 193.865 401.235 191.885C386.19 165.078 348.95 157.617 324.518 176.895C322.762 178.28 320.06 177.744 318.693 175.974C308.273 162.483 278.7 158.76 257.116 167.003C255.778 167.514 254.224 167.127 253.305 166.029C162.002 56.9012 113.016 30.3749 87.8127 16.727C79.5214 12.2371 73.8039 9.14101 70.0004 4.9563C118.602 58.4293 154.963 113.345 179.442 157.836Z" fill="white"/>
<path d="M87.8127 16.727L85.5978 20.8172L85.5978 20.8172L87.8127 16.727ZM66.5582 8.08487C64.8304 6.18383 64.9708 3.24202 66.8718 1.51416C68.7728 -0.213701 71.7146 -0.0733127 73.4425 1.82773L66.5582 8.08487ZM257.116 167.003L255.457 162.657L257.116 167.003ZM253.305 166.029L256.873 163.044L253.305 166.029ZM324.518 176.895L327.399 180.546L324.518 176.895ZM318.693 175.974L315.012 178.818L318.693 175.974ZM406.926 193.031L409.674 196.784L406.926 193.031ZM401.235 191.885L405.291 189.608L401.235 191.885ZM472.239 230.592L473.068 226.015L472.239 230.592ZM502.203 314.866L499.049 318.285L502.203 314.866ZM501.494 309.997L497.576 307.49L501.494 309.997ZM496.513 387.404L499.617 383.939L496.513 387.404ZM496.688 380.98L493.84 377.302L496.688 380.98ZM483.583 452.155L488.199 451.583L483.583 452.155ZM486.318 448.177L487.639 452.636L486.318 448.177ZM403.758 509.268L408.409 509.252L403.758 509.268ZM408.407 505.545L409.668 501.067L408.407 505.545ZM290.583 538.073L293.857 541.377L290.583 538.073ZM295.939 538.072L299.098 534.658L295.939 538.072ZM203.086 536.923L200.551 533.023L203.086 536.923ZM207.633 537.543L211.065 534.403L207.633 537.543ZM127.609 522.18L128.355 526.771L127.609 522.18ZM131.024 523.732L134.953 521.241L131.024 523.732ZM65.9042 479.019L66.9724 483.546L65.9042 479.019ZM70.1922 481.173L65.8243 482.772L70.1922 481.173ZM17.5383 410.061L20.2554 406.286L17.5383 410.061ZM19.1069 414.862L23.4777 416.454L19.1069 414.862ZM23.9589 324.186L27.8792 321.683L23.9589 324.186ZM22.5127 331.189L19.9379 327.315L22.5127 331.189ZM42.5557 247.45L37.9314 247.951L37.9314 247.951L42.5557 247.45ZM37.6904 253.607L38.9615 258.081L37.6904 253.607ZM87.1028 194.912L91.3895 196.718L87.1028 194.912ZM81.0618 196.961L83.1164 192.788L81.0618 196.961ZM155.273 176.13L158.873 179.074L155.273 176.13ZM149.386 176.649L152.36 173.072L149.386 176.649ZM179.442 157.836L175.366 160.079L179.442 157.836ZM178.639 167.124C170.314 169.547 163.338 173.616 158.873 179.074L151.672 173.185C157.668 165.853 166.505 160.967 176.039 158.192L178.639 167.124ZM146.412 180.225C139.404 174.398 128.082 172.883 116.844 175.981C105.686 179.057 95.7374 186.395 91.3895 196.718L82.816 193.107C88.5263 179.549 101.174 170.651 114.371 167.013C127.488 163.397 142.278 164.69 152.36 173.072L146.412 180.225ZM79.0071 201.134C75.6348 199.473 72.1855 199.708 68.5107 201.65C64.6838 203.672 60.7794 207.505 57.3029 212.634C50.2896 222.981 46.097 236.957 47.1801 246.949L37.9314 247.951C36.5511 235.219 41.7016 219.071 49.6022 207.415C53.5826 201.542 58.5279 196.403 64.1638 193.425C69.9519 190.366 76.5788 189.569 83.1164 192.788L79.0071 201.134ZM38.9615 258.081C36.2968 258.838 33.301 261.445 30.5032 266.385C27.7742 271.203 25.62 277.587 24.3158 284.567C23.0156 291.526 22.6006 298.863 23.2041 305.505C23.8137 312.213 25.4282 317.844 27.8792 321.683L20.0385 326.69C16.4855 321.125 14.6217 313.856 13.9393 306.346C13.2508 298.77 13.7301 290.571 15.1711 282.859C16.6081 275.168 19.0419 267.744 22.4084 261.8C25.7061 255.977 30.3131 250.867 36.4194 249.132L38.9615 258.081ZM25.0876 335.063C20.8275 337.895 17.1944 342.849 14.4979 349.345C11.8197 355.798 10.2091 363.438 9.77245 371.145C9.33555 378.857 10.0856 386.43 11.9625 392.748C13.8607 399.138 16.7631 403.772 20.2554 406.286L14.8213 413.837C9.02357 409.664 5.25963 402.854 3.04468 395.397C0.808388 387.87 -0.00158584 379.196 0.48438 370.619C0.970608 362.036 2.76569 353.344 5.90573 345.779C9.02748 338.258 13.6251 331.511 19.9379 327.315L25.0876 335.063ZM23.4777 416.454C19.3964 427.664 23.3064 443.74 32.265 456.649C41.2902 469.655 53.7113 477.117 64.8359 474.492L66.9724 483.546C50.2017 487.503 34.4224 476.076 24.622 461.953C14.7548 447.734 9.21384 428.44 14.736 413.271L23.4777 416.454ZM74.5601 479.573C81.2871 497.946 87.6067 508.242 95.2094 513.613C102.567 518.811 112.032 519.998 126.863 517.588L128.355 526.771C112.639 529.324 100.168 528.507 89.8413 521.211C79.7592 514.088 72.6443 501.398 65.8243 482.772L74.5601 479.573ZM134.953 521.241C142.231 532.721 152.526 539.52 163.886 541.6C175.277 543.685 188.136 541.092 200.551 533.023L205.62 540.823C191.493 550.005 176.25 553.321 162.21 550.75C148.139 548.174 135.674 539.752 127.096 526.223L134.953 521.241ZM211.065 534.403C219.482 543.605 233.233 549.003 247.816 549.333C262.356 549.662 277.051 544.933 287.309 534.768L293.857 541.377C281.464 553.657 264.147 559.008 247.606 558.633C231.107 558.26 214.709 552.17 204.201 540.682L211.065 534.403ZM299.098 534.658C304.3 539.472 313.091 543.022 323.927 544.728C334.651 546.417 346.83 546.208 358.267 544.005C369.741 541.796 380.133 537.647 387.539 531.736C394.84 525.908 399.138 518.489 399.106 509.284L408.409 509.252C408.453 521.85 402.393 531.783 393.342 539.007C384.397 546.147 372.445 550.749 360.026 553.141C347.569 555.539 334.305 555.78 322.48 553.918C310.766 552.074 299.899 548.074 292.78 541.486L299.098 534.658ZM409.668 501.067C428.524 506.378 447.483 505.419 460.722 497.79C473.517 490.416 481.89 476.282 478.967 452.728L488.199 451.583C491.506 478.234 481.908 496.318 465.367 505.85C449.268 515.127 427.524 515.761 407.146 510.022L409.668 501.067ZM484.996 443.717C493.593 441.17 500.063 432.151 502.06 420.876C504.043 409.687 501.283 397.922 493.409 390.868L499.617 383.939C510.551 393.734 513.59 409.128 511.221 422.499C508.867 435.783 500.835 448.727 487.639 452.636L484.996 443.717ZM493.84 377.302C502.836 370.337 507.619 358.748 508.264 346.933C508.915 335.009 505.303 324.055 499.049 318.285L505.357 311.447C514.327 319.723 518.297 333.82 517.553 347.44C516.804 361.167 511.218 375.613 499.536 384.658L493.84 377.302ZM497.576 307.49C506.77 293.122 505.335 276.048 498.632 261.667C495.294 254.507 490.726 248.212 485.785 243.521C480.79 238.778 475.711 235.949 471.409 235.169L473.068 226.015C479.762 227.228 486.416 231.292 492.191 236.775C498.02 242.309 503.258 249.573 507.064 257.737C514.646 274.004 516.843 294.639 505.412 312.504L497.576 307.49ZM464.269 227.441C463.178 213.977 454.381 202.671 443.095 196.566C431.761 190.435 418.91 190.02 409.674 196.784L404.178 189.278C417.134 179.79 434.033 181.087 447.521 188.383C461.057 195.705 472.153 209.542 473.542 226.69L464.269 227.441ZM397.179 194.162C383.538 169.857 349.596 163.033 327.399 180.546L321.636 173.243C348.303 152.202 388.842 160.3 405.291 189.608L397.179 194.162ZM315.012 178.818C310.88 173.468 302.319 169.459 291.449 167.945C280.747 166.455 268.758 167.536 258.776 171.348L255.457 162.657C267.058 158.227 280.648 157.048 292.732 158.731C304.65 160.391 316.086 164.989 322.374 173.131L315.012 178.818ZM249.738 169.013C158.805 60.3294 110.276 34.1809 85.5978 20.8172L90.0277 12.6367C115.756 26.5688 165.199 53.4731 256.873 163.044L249.738 169.013ZM85.5978 20.8172C77.5716 16.4709 71.0139 12.9871 66.5582 8.08487L73.4425 1.82773C76.5938 5.29489 81.4712 8.00325 90.0277 12.6367L85.5978 20.8172ZM73.4425 1.82772C122.324 55.6083 158.889 110.832 183.517 155.594L175.366 160.079C151.036 115.858 114.881 61.2503 66.5582 8.08488L73.4425 1.82772ZM258.776 171.348C255.629 172.55 251.961 171.671 249.738 169.013L256.873 163.044C256.488 162.584 255.928 162.477 255.457 162.657L258.776 171.348ZM327.399 180.546C323.297 183.783 317.703 182.303 315.012 178.818L322.374 173.131C322.332 173.077 322.298 173.054 322.286 173.047C322.276 173.041 322.265 173.036 322.243 173.032C322.211 173.027 321.943 173.002 321.636 173.243L327.399 180.546ZM409.674 196.784C405.745 199.661 399.747 198.738 397.179 194.162L405.291 189.608C405.104 189.276 404.831 189.163 404.705 189.139C404.59 189.116 404.393 189.121 404.178 189.278L409.674 196.784ZM471.409 235.169C467.814 234.517 464.602 231.55 464.269 227.441L473.542 226.69C473.519 226.417 473.401 226.236 473.32 226.151C473.247 226.076 473.165 226.032 473.068 226.015L471.409 235.169ZM499.049 318.285C496.181 315.639 495.272 311.09 497.576 307.49L505.412 312.504C505.574 312.249 505.593 311.999 505.57 311.844C505.548 311.699 505.481 311.561 505.357 311.447L499.049 318.285ZM493.409 390.868C489.47 387.339 489.483 380.676 493.84 377.302L499.536 384.658C499.67 384.554 499.746 384.439 499.781 384.363C499.813 384.295 499.814 384.258 499.814 384.254C499.814 384.25 499.815 384.228 499.796 384.182C499.776 384.13 499.724 384.035 499.617 383.939L493.409 390.868ZM478.967 452.728C478.434 448.434 481.337 444.801 484.996 443.717L487.639 452.636C487.807 452.587 487.936 452.489 488.029 452.356C488.131 452.212 488.243 451.938 488.199 451.583L478.967 452.728ZM399.106 509.284C399.088 504.127 404.037 499.482 409.668 501.067L407.146 510.022C407.626 510.157 408 509.977 408.144 509.86C408.269 509.758 408.41 509.56 408.409 509.252L399.106 509.284ZM287.309 534.768C290.667 531.44 295.923 531.719 299.098 534.658L292.78 541.486C292.925 541.62 293.081 541.665 293.213 541.666C293.358 541.667 293.62 541.611 293.857 541.377L287.309 534.768ZM200.551 533.023C203.987 530.79 208.43 531.522 211.065 534.403L204.201 540.682C204.504 541.014 205.08 541.175 205.62 540.823L200.551 533.023ZM126.863 517.588C130.085 517.065 133.253 518.561 134.953 521.241L127.096 526.223C127.342 526.611 127.811 526.859 128.355 526.771L126.863 517.588ZM64.8359 474.492C68.5653 473.612 73.0156 475.355 74.5601 479.573L65.8243 482.772C65.9637 483.153 66.233 483.381 66.4355 483.48C66.6198 483.57 66.8017 483.586 66.9724 483.546L64.8359 474.492ZM20.2554 406.286C23.2903 408.47 24.8833 412.593 23.4777 416.454L14.736 413.271C14.6598 413.481 14.6902 413.635 14.7089 413.691C14.7251 413.739 14.7537 413.788 14.8213 413.837L20.2554 406.286ZM27.8792 321.683C29.3457 323.979 29.5625 326.665 29.1047 328.899C28.647 331.131 27.3857 333.536 25.0876 335.063L19.9379 327.315C19.8411 327.38 19.8341 327.417 19.8708 327.358C19.9084 327.297 19.9598 327.184 19.9912 327.031C20.0226 326.877 20.0211 326.747 20.009 326.664C19.997 326.582 19.984 326.604 20.0385 326.69L27.8792 321.683ZM47.1801 246.949C47.5045 249.941 46.1761 252.517 44.7556 254.221C43.3093 255.956 41.2551 257.429 38.9615 258.081L36.4194 249.132C36.5094 249.106 36.7009 249.03 36.9494 248.861C37.1932 248.696 37.4246 248.487 37.6102 248.264C37.7986 248.038 37.8897 247.859 37.9239 247.769C37.9564 247.683 37.9101 247.755 37.9314 247.951L47.1801 246.949ZM91.3895 196.718C89.2713 201.747 83.2368 203.216 79.0071 201.134L83.1164 192.788C83.0554 192.758 83.0254 192.759 83.038 192.759C83.053 192.76 83.0775 192.757 83.0968 192.751C83.1161 192.745 83.089 192.749 83.0323 192.798C82.9692 192.852 82.8801 192.955 82.816 193.107L91.3895 196.718ZM158.873 179.074C155.76 182.881 150.048 183.248 146.412 180.225L152.36 173.072C152.193 172.933 152.069 172.94 152.048 172.942C152.023 172.944 151.849 172.968 151.672 173.185L158.873 179.074ZM176.039 158.192C175.7 158.29 175.436 158.536 175.301 158.84C175.157 159.164 175.128 159.645 175.366 160.079L183.517 155.594C186.109 160.306 183.315 165.763 178.639 167.124L176.039 158.192Z" fill="#1B0C0C"/>
</svg>
