<svg width="313" height="30" viewBox="0 0 313 30" fill="none" xmlns="http://www.w3.org/2000/svg">
<path d="M0.585786 13.5858C-0.195262 14.3668 -0.195262 15.6332 0.585786 16.4142L13.3137 29.1421C14.0948 29.9232 15.3611 29.9232 16.1421 29.1421C16.9232 28.3611 16.9232 27.0948 16.1421 26.3137L4.82843 15L16.1421 3.68629C16.9232 2.90524 16.9232 1.63891 16.1421 0.857864C15.3611 0.0768156 14.0948 0.0768156 13.3137 0.857864L0.585786 13.5858ZM312.414 16.4142C313.195 15.6332 313.195 14.3668 312.414 13.5858L299.686 0.857864C298.905 0.0768156 297.639 0.0768156 296.858 0.857864C296.077 1.63891 296.077 2.90524 296.858 3.68629L308.172 15L296.858 26.3137C296.077 27.0948 296.077 28.3611 296.858 29.1421C297.639 29.9232 298.905 29.9232 299.686 29.1421L312.414 16.4142ZM2 17H311V13H2V17Z" fill="white"/>
</svg>
