<svg width="282" height="30" viewBox="0 0 282 30" fill="none" xmlns="http://www.w3.org/2000/svg">
<path d="M0.585786 13.5858C-0.195262 14.3668 -0.195262 15.6332 0.585786 16.4142L13.3137 29.1421C14.0948 29.9232 15.3611 29.9232 16.1421 29.1421C16.9232 28.3611 16.9232 27.0948 16.1421 26.3137L4.82843 15L16.1421 3.68629C16.9232 2.90524 16.9232 1.63891 16.1421 0.857864C15.3611 0.0768158 14.0948 0.0768158 13.3137 0.857864L0.585786 13.5858ZM281.414 16.4142C282.195 15.6332 282.195 14.3668 281.414 13.5858L268.686 0.857864C267.905 0.0768158 266.639 0.0768158 265.858 0.857864C265.077 1.63891 265.077 2.90524 265.858 3.68629L277.172 15L265.858 26.3137C265.077 27.0948 265.077 28.3611 265.858 29.1421C266.639 29.9232 267.905 29.9232 268.686 29.1421L281.414 16.4142ZM2 17H280V13H2V17Z" fill="white"/>
</svg>
