<svg width="371" height="328" viewBox="0 0 371 328" fill="none" xmlns="http://www.w3.org/2000/svg">
<path fill-rule="evenodd" clip-rule="evenodd" d="M357.922 97.617C357.618 98.061 357.719 98.6771 358.143 99.0088C368.796 107.346 368.918 132.052 354.33 141.658C353.719 142.061 353.706 142.991 354.3 143.418C368.061 153.31 363.411 179.132 348.629 182.422C348.113 182.537 347.756 183.044 347.834 183.567C352.711 216.135 325.086 225.054 300.072 217.414C299.394 217.207 298.72 217.799 298.782 218.505C301.326 247.513 245.77 252.93 231.434 237.509C231.027 237.072 230.324 237.067 229.92 237.508C215.975 252.718 188.796 251.359 177.108 237.665C176.78 237.279 176.207 237.203 175.79 237.49C159.033 249.063 139.95 245.738 129.993 229.545C129.784 229.206 129.38 229.024 128.988 229.094C109.34 232.585 101.013 227.039 92.2628 203.089C92.0803 202.589 91.5128 202.328 91.0058 202.489C83.9078 204.739 76.6306 201.471 70.8794 195.68C48.3589 230.401 24.5069 273.831 4.69531 323.548C6.58933 318.795 6.83882 312.917 7.20062 304.394C8.2185 280.415 10.1253 235.494 52.0393 135.756C52.6222 125.899 56.1426 116.053 62.4703 111.682C62.9994 110.495 63.5337 109.302 64.0731 108.101C55.2505 96.5163 61.2271 63.1495 73.7365 63.3095C74.5108 63.3194 75.2169 62.5507 75.0374 61.7974C71.6576 47.6091 86.4621 20.1571 99.772 29.2857C100.356 29.6863 101.207 29.4195 101.424 28.7454C106.77 12.1831 131.068 6.16982 141.547 16.6187C142.012 17.0823 142.81 17.0136 143.18 16.4717C153.494 1.39176 186.491 1.47414 194.933 15.8673C195.298 16.4889 196.206 16.5929 196.686 16.0553C208.477 2.84712 238.7 3.79449 245.903 15.7941C246.241 16.356 247.028 16.5068 247.519 16.0738C262.885 2.54615 287.744 7.39395 296.85 25.443C297.149 26.0371 297.954 26.181 298.455 25.7423C312.144 13.7369 337.25 26.5501 338.142 46.624C338.165 47.1464 338.587 47.5692 339.108 47.6128C353.043 48.7788 372.025 77.0203 357.922 97.617Z" fill="white"/>
<path d="M358.143 99.0088L360.781 95.6385L358.143 99.0088ZM357.922 97.617L354.391 95.1991L354.391 95.1992L357.922 97.617ZM354.33 141.658L356.683 145.233L356.683 145.233L354.33 141.658ZM354.3 143.418L351.802 146.893L351.802 146.893L354.3 143.418ZM348.629 182.422L349.558 186.6L349.558 186.6L348.629 182.422ZM347.834 183.567L352.067 182.933V182.933L347.834 183.567ZM300.072 217.414L298.822 221.507H298.822L300.072 217.414ZM298.782 218.505L303.045 218.132L298.782 218.505ZM231.434 237.509L228.299 240.424L231.434 237.509ZM229.92 237.508L233.075 240.4L233.075 240.4L229.92 237.508ZM177.108 237.665L180.364 234.886L180.364 234.886L177.108 237.665ZM175.79 237.49L173.358 233.969L173.358 233.969L175.79 237.49ZM129.993 229.545L126.347 231.786L126.347 231.786L129.993 229.545ZM128.988 229.094L128.24 224.88H128.24L128.988 229.094ZM92.2628 203.089L88.2428 204.557L88.2428 204.557L92.2628 203.089ZM91.0058 202.489L92.2989 206.569L91.0058 202.489ZM70.8794 195.68L73.9162 192.664C73.0042 191.746 71.7256 191.289 70.4382 191.423C69.1509 191.556 67.993 192.265 67.2887 193.351L70.8794 195.68ZM0.719563 321.964C-0.155416 324.159 0.915277 326.649 3.11102 327.524C5.30677 328.399 7.79608 327.328 8.67106 325.132L0.719563 321.964ZM7.20062 304.394L2.92469 304.212L7.20062 304.394ZM52.0393 135.756L55.9849 137.414C56.1725 136.967 56.283 136.492 56.3116 136.009L52.0393 135.756ZM62.4703 111.682L64.9025 115.204C65.5486 114.758 66.0596 114.142 66.3793 113.425L62.4703 111.682ZM64.0731 108.101L67.977 109.855C68.6199 108.424 68.4284 106.756 67.4779 105.508L64.0731 108.101ZM73.7365 63.3095L73.6817 67.589H73.6818L73.7365 63.3095ZM75.0374 61.7974L79.2007 60.8057L79.2007 60.8056L75.0374 61.7974ZM99.772 29.2857L97.3514 32.8151L97.3514 32.8152L99.772 29.2857ZM101.424 28.7454L105.497 30.06V30.06L101.424 28.7454ZM141.547 16.6187L144.569 13.5882V13.5882L141.547 16.6187ZM143.18 16.4717L139.648 14.0556L139.648 14.0556L143.18 16.4717ZM194.933 15.8673L191.242 18.0326V18.0326L194.933 15.8673ZM196.686 16.0553L193.493 13.205L193.493 13.205L196.686 16.0553ZM245.903 15.7941L249.573 13.5915L249.573 13.5915L245.903 15.7941ZM247.519 16.0738L250.348 19.2861L250.348 19.286L247.519 16.0738ZM296.85 25.443L300.671 23.5154L300.671 23.5153L296.85 25.443ZM298.455 25.7423L301.276 28.96L301.276 28.96L298.455 25.7423ZM338.142 46.624L342.418 46.4342V46.434L338.142 46.624ZM339.108 47.6128L339.465 43.3479V43.3479L339.108 47.6128ZM360.781 95.6385C362.1 96.6708 362.45 98.5791 361.454 100.035L354.391 95.1992C352.786 97.5429 353.339 100.683 355.505 102.379L360.781 95.6385ZM356.683 145.233C365.427 139.475 369.463 129.437 369.975 120.092C370.48 110.884 367.614 100.986 360.781 95.6385L355.505 102.379C359.325 105.369 361.847 111.993 361.429 119.624C361.018 127.117 357.821 134.235 351.976 138.084L356.683 145.233ZM356.799 139.943C358.6 141.238 358.619 143.958 356.683 145.233L351.976 138.084C348.818 140.163 348.813 144.744 351.802 146.893L356.799 139.943ZM349.558 186.6C359.326 184.426 364.953 175.122 366.395 166.069C367.852 156.913 365.388 146.118 356.798 139.943L351.802 146.893C356.973 150.61 359.064 157.672 357.942 164.723C356.803 171.877 352.714 177.129 347.699 178.245L349.558 186.6ZM352.067 182.933C352.33 184.69 351.179 186.239 349.558 186.6L347.699 178.245C345.048 178.835 343.182 181.398 343.601 184.201L352.067 182.933ZM298.822 221.507C312.038 225.544 326.504 225.401 337.274 219.291C342.731 216.195 347.181 211.585 349.873 205.371C352.553 199.187 353.377 191.684 352.067 182.933L343.601 184.2C344.729 191.733 343.93 197.559 342.019 201.968C340.122 206.347 337.017 209.596 333.05 211.846C324.974 216.428 313.12 216.924 301.322 213.321L298.822 221.507ZM303.045 218.132C303.224 220.163 301.314 222.268 298.822 221.507L301.323 213.321C297.475 212.146 294.217 215.435 294.519 218.879L303.045 218.132ZM228.299 240.424C232.813 245.278 240.065 248.07 247.654 249.345C255.374 250.643 264.106 250.488 272.272 248.866C280.398 247.251 288.319 244.11 294.132 239.131C300.076 234.041 303.821 226.98 303.045 218.132L294.519 218.879C295.015 224.535 292.769 229.029 288.564 232.63C284.228 236.344 277.841 239.032 270.604 240.47C263.407 241.9 255.722 242.021 249.072 240.904C242.292 239.765 237.223 237.451 234.568 234.595L228.299 240.424ZM233.075 240.4C231.757 241.838 229.559 241.779 228.299 240.424L234.568 234.595C232.494 232.365 228.892 232.297 226.766 234.616L233.075 240.4ZM173.853 240.443C180.684 248.447 191.699 252.541 202.603 252.705C213.556 252.869 225.111 249.086 233.075 240.4L226.766 234.616C220.784 241.14 211.777 244.282 202.732 244.146C193.639 244.009 185.22 240.577 180.364 234.886L173.853 240.443ZM178.222 241.012C176.819 241.981 174.938 241.715 173.853 240.443L180.364 234.886C178.621 232.844 175.594 232.424 173.358 233.969L178.222 241.012ZM126.347 231.786C131.924 240.856 140.207 246.513 149.609 248.146C158.977 249.774 169.057 247.342 178.222 241.012L173.358 233.969C165.766 239.212 157.926 240.903 151.074 239.713C144.255 238.529 138.019 234.427 133.638 227.303L126.347 231.786ZM129.737 233.307C128.395 233.546 127.058 232.943 126.347 231.786L133.639 227.303C132.511 225.469 130.365 224.502 128.24 224.88L129.737 233.307ZM88.2428 204.557C92.6505 216.622 97.2866 225.128 104.084 229.888C111.123 234.817 119.538 235.12 129.737 233.307L128.24 224.88C118.791 226.559 113.218 225.834 108.994 222.876C104.527 219.749 100.625 213.506 96.2827 201.62L88.2428 204.557ZM92.2989 206.569C90.7423 207.062 88.8895 206.327 88.2428 204.557L96.2827 201.62C95.2711 198.851 92.2832 197.594 89.7127 198.409L92.2989 206.569ZM67.8426 198.696C74.1523 205.049 83.0286 209.507 92.2989 206.569L89.7127 198.409C84.7869 199.97 79.1088 197.893 73.9162 192.664L67.8426 198.696ZM8.67106 325.132C28.3654 275.71 52.0806 232.528 74.47 198.009L67.2887 193.351C44.6372 228.274 20.6484 271.952 0.719563 321.964L8.67106 325.132ZM2.92469 304.212C2.55112 313.013 2.28332 318.039 0.719563 321.964L8.67106 325.132C10.8953 319.55 11.1265 312.822 11.4766 304.575L2.92469 304.212ZM48.0938 134.098C5.97252 234.329 3.96297 279.753 2.92469 304.212L11.4766 304.575C12.474 281.077 14.2781 236.659 55.9849 137.414L48.0938 134.098ZM60.0381 108.161C55.9691 110.971 53.0785 115.327 51.1425 120.034C49.191 124.778 48.0818 130.18 47.767 135.503L56.3116 136.009C56.5797 131.475 57.5222 127.025 59.0586 123.29C60.6104 119.517 62.6438 116.764 64.9025 115.204L60.0381 108.161ZM60.1692 106.347C59.6281 107.551 59.0921 108.749 58.5613 109.94L66.3793 113.425C66.9067 112.242 67.4393 111.052 67.977 109.855L60.1692 106.347ZM73.7912 59.0301C68.5473 58.963 64.6752 62.4296 62.1428 66.2447C59.5558 70.1421 57.7542 75.2367 56.7087 80.4612C55.6558 85.7228 55.3117 91.4055 55.8441 96.6266C56.3676 101.759 57.7865 106.91 60.6684 110.694L67.4779 105.508C65.9484 103.499 64.8059 100.135 64.3595 95.7582C63.9222 91.4699 64.1998 86.6489 65.1019 82.1407C66.0114 77.5954 67.498 73.6544 69.2743 70.9784C71.105 68.2203 72.671 67.576 73.6817 67.589L73.7912 59.0301ZM70.8741 62.7891C70.5764 61.5392 71.0685 60.5388 71.5316 60.0125C71.9856 59.4965 72.7582 59.0169 73.7912 59.0301L73.6818 67.589C75.4892 67.6121 77.0019 66.753 77.9576 65.6669C78.9225 64.5704 79.6779 62.8089 79.2007 60.8057L70.8741 62.7891ZM102.193 25.7563C97.4868 22.5287 92.4321 22.5551 87.992 24.648C83.8073 26.6206 80.2788 30.3384 77.5731 34.4418C74.8283 38.6044 72.6894 43.5248 71.4557 48.3977C70.2351 53.2188 69.8143 58.3401 70.8741 62.7892L79.2007 60.8056C78.5706 58.1605 78.7329 54.5297 79.7535 50.4984C80.761 46.5188 82.5214 42.4865 84.719 39.1537C86.9557 35.7616 89.4127 33.4412 91.6416 32.3905C93.6152 31.4603 95.4023 31.4783 97.3514 32.8151L102.193 25.7563ZM97.3516 27.4309C98.0622 25.2291 100.549 24.6292 102.193 25.7563L97.3514 32.8152C100.163 34.7434 104.352 33.6098 105.497 30.06L97.3516 27.4309ZM144.569 13.5882C137.856 6.8939 127.343 5.91531 118.401 8.43329C109.359 10.9794 100.576 17.4411 97.3516 27.4309L105.497 30.06C107.619 23.4874 113.658 18.6613 120.721 16.6724C127.884 14.6554 134.76 15.8947 138.525 19.6493L144.569 13.5882ZM139.648 14.0556C140.814 12.3509 143.169 12.1925 144.569 13.5882L138.525 19.6493C140.854 21.9722 144.806 21.6763 146.713 18.8877L139.648 14.0556ZM198.625 13.7019C195.896 9.0498 191.36 5.83114 186.34 3.80132C181.299 1.76288 175.493 0.801889 169.732 0.837374C158.476 0.906709 145.939 4.85667 139.648 14.0556L146.713 18.8878C150.735 13.0068 159.854 9.45796 169.785 9.39678C174.618 9.36701 179.289 10.1828 183.131 11.7367C186.995 13.2991 189.749 15.4882 191.242 18.0326L198.625 13.7019ZM193.493 13.205C195.011 11.5041 197.571 11.9049 198.625 13.7019L191.242 18.0326C193.025 21.0729 197.4 21.6816 199.878 18.9055L193.493 13.205ZM249.573 13.5915C247.115 9.49721 242.936 6.69952 238.386 4.92723C233.788 3.13649 228.438 2.23868 223.052 2.19215C212.478 2.10081 200.533 5.31895 193.493 13.205L199.878 18.9055C204.63 13.5834 213.692 10.6712 222.978 10.7514C227.522 10.7907 231.816 11.5541 235.279 12.9032C238.79 14.2706 241.09 16.0913 242.234 17.9968L249.573 13.5915ZM244.691 12.8615C246.359 11.3937 248.642 12.0402 249.573 13.5915L242.234 17.9968C243.84 20.6719 247.697 21.62 250.348 19.2861L244.691 12.8615ZM300.671 23.5153C290.297 2.9526 262.149 -2.50799 244.691 12.8615L250.348 19.286C263.621 7.60029 285.191 11.8353 293.029 27.3707L300.671 23.5153ZM295.633 22.5245C297.166 21.18 299.668 21.5287 300.671 23.5154L293.029 27.3707C294.63 30.5456 298.743 31.182 301.276 28.96L295.633 22.5245ZM342.418 46.434C341.891 34.5905 334.259 25.134 325.072 20.3564C315.925 15.5997 304.194 15.0163 295.633 22.5245L301.276 28.96C306.405 24.4629 314.071 24.2835 321.123 27.9505C328.134 31.5966 333.501 38.5837 333.867 46.814L342.418 46.434ZM339.465 43.3479C341.006 43.4768 342.342 44.7238 342.418 46.4342L333.867 46.8139C333.989 49.5691 336.168 51.6615 338.751 51.8776L339.465 43.3479ZM361.454 100.035C369.641 88.0767 368.037 74.1367 362.883 63.4669C360.292 58.1038 356.723 53.3574 352.756 49.8252C348.855 46.3519 344.215 43.7454 339.465 43.3479L338.751 51.8776C340.969 52.0632 343.927 53.4242 347.064 56.2177C350.135 58.9524 353.042 62.7723 355.175 67.1899C359.47 76.0815 360.306 86.5606 354.391 95.1991L361.454 100.035Z" fill="#1B0C0C"/>
</svg>
