<svg width="371" height="328" viewBox="0 0 371 328" fill="none" xmlns="http://www.w3.org/2000/svg">
<path fill-rule="evenodd" clip-rule="evenodd" d="M358.227 97.5008C357.923 97.9448 358.024 98.5609 358.448 98.8925C369.101 107.23 369.223 131.936 354.634 141.542C354.024 141.944 354.011 142.875 354.605 143.302C368.365 153.194 363.716 179.016 348.933 182.306C348.418 182.421 348.06 182.928 348.139 183.45C353.016 216.019 325.391 224.938 300.377 217.298C299.699 217.091 299.025 217.683 299.087 218.389C301.631 247.397 246.075 252.813 231.738 237.393C231.331 236.955 230.629 236.951 230.225 237.392C216.28 252.602 189.101 251.243 177.413 237.548C177.084 237.163 176.512 237.086 176.095 237.374C159.337 248.947 140.254 245.622 130.297 229.428C130.089 229.09 129.685 228.908 129.293 228.977C109.645 232.469 101.317 226.923 92.5675 202.972C92.385 202.473 91.8174 202.212 91.3105 202.373C84.2124 204.622 76.9352 201.355 71.1841 195.564C48.6636 230.285 24.8116 273.715 5 323.432C6.89401 318.679 7.14351 312.801 7.50531 304.278C8.52318 280.299 10.43 235.378 52.344 135.64C52.927 125.783 56.4473 115.936 62.775 111.566C63.3041 110.379 63.8383 109.185 64.3778 107.984C55.5552 96.4 61.5318 63.0333 74.0412 63.1933C74.8155 63.2032 75.5216 62.4345 75.3421 61.6812C71.9623 47.4929 86.7667 20.0408 100.077 29.1695C100.661 29.5701 101.512 29.3033 101.729 28.6292C107.075 12.0669 131.373 6.05361 141.851 16.5025C142.316 16.9661 143.114 16.8974 143.485 16.3555C153.799 1.27555 186.795 1.35793 195.238 15.751C195.602 16.3727 196.51 16.4766 196.99 15.939C208.782 2.73091 239.005 3.67828 246.208 15.6779C246.545 16.2398 247.332 16.3906 247.824 15.9576C263.189 2.42994 288.049 7.27774 297.154 25.3268C297.454 25.9209 298.259 26.0648 298.759 25.6261C312.449 13.6207 337.555 26.4339 338.447 46.5078C338.47 47.0302 338.892 47.453 339.413 47.4966C353.348 48.6626 372.329 76.9041 358.227 97.5008Z" fill="white"/>
<path d="M358.448 98.8925L355.81 102.263L355.81 102.263L358.448 98.8925ZM358.227 97.5008L354.696 95.0829L354.695 95.083L358.227 97.5008ZM354.634 141.542L356.988 145.117L356.988 145.117L354.634 141.542ZM354.605 143.302L352.107 146.777L352.107 146.777L354.605 143.302ZM348.933 182.306L348.003 178.129L348.003 178.129L348.933 182.306ZM348.139 183.45L352.371 182.817L352.371 182.816L348.139 183.45ZM300.377 217.298L299.127 221.391L299.127 221.391L300.377 217.298ZM299.087 218.389L303.35 218.015L303.35 218.015L299.087 218.389ZM231.738 237.393L228.604 240.307L228.604 240.307L231.738 237.393ZM230.225 237.392L233.38 240.284L233.38 240.284L230.225 237.392ZM177.413 237.548L180.668 234.77L180.668 234.77L177.413 237.548ZM176.095 237.374L173.663 233.852L173.663 233.852L176.095 237.374ZM130.297 229.428L126.652 231.67L126.652 231.67L130.297 229.428ZM129.293 228.977L128.544 224.764L128.544 224.764L129.293 228.977ZM92.5675 202.972L96.5874 201.504L96.5874 201.504L92.5675 202.972ZM91.3105 202.373L92.6036 206.452L92.6036 206.452L91.3105 202.373ZM71.1841 195.564L74.2209 192.548C73.3089 191.63 72.0303 191.173 70.7429 191.307C69.4555 191.44 68.2977 192.149 67.5934 193.235L71.1841 195.564ZM1.02425 321.847C0.149271 324.043 1.21996 326.532 3.41571 327.407C5.61146 328.282 8.10077 327.212 8.97575 325.016L1.02425 321.847ZM7.50531 304.278L3.22938 304.096L3.22938 304.096L7.50531 304.278ZM52.344 135.64L56.2895 137.298C56.4772 136.851 56.5877 136.376 56.6163 135.892L52.344 135.64ZM62.775 111.566L65.2071 115.088C65.8533 114.641 66.3642 114.026 66.684 113.309L62.775 111.566ZM64.3778 107.984L68.2817 109.738C68.9246 108.307 68.7331 106.639 67.7826 105.391L64.3778 107.984ZM74.0412 63.1933L74.0959 58.9139L74.0959 58.9139L74.0412 63.1933ZM75.3421 61.6812L79.5054 60.6895L79.5054 60.6894L75.3421 61.6812ZM100.077 29.1695L97.6561 32.6989L97.6561 32.6989L100.077 29.1695ZM101.729 28.6292L105.802 29.9438L105.802 29.9438L101.729 28.6292ZM141.851 16.5025L144.873 13.472L144.873 13.472L141.851 16.5025ZM143.485 16.3555L139.953 13.9393L139.953 13.9394L143.485 16.3555ZM195.238 15.751L191.546 17.9164L191.546 17.9164L195.238 15.751ZM196.99 15.939L193.798 13.0888L193.798 13.0888L196.99 15.939ZM246.208 15.6779L249.878 13.4753L249.878 13.4752L246.208 15.6779ZM247.824 15.9576L250.652 19.1698L250.652 19.1698L247.824 15.9576ZM297.154 25.3268L300.975 23.3992L300.975 23.3991L297.154 25.3268ZM298.759 25.6261L301.581 28.8438L301.581 28.8438L298.759 25.6261ZM338.447 46.5078L342.722 46.318L342.722 46.3178L338.447 46.5078ZM339.413 47.4966L339.769 43.2317L339.769 43.2317L339.413 47.4966ZM361.085 95.5222C362.404 96.5546 362.755 98.4629 361.758 99.9187L354.695 95.083C353.091 97.4267 353.643 100.567 355.81 102.263L361.085 95.5222ZM356.988 145.117C365.732 139.359 369.768 129.321 370.28 119.976C370.785 110.767 367.918 100.87 361.085 95.5222L355.81 102.263C359.63 105.252 362.151 111.877 361.733 119.507C361.323 127.001 358.126 134.119 352.281 137.968L356.988 145.117ZM357.103 139.827C358.905 141.122 358.924 143.842 356.988 145.117L352.281 137.968C349.123 140.047 349.118 144.628 352.107 146.777L357.103 139.827ZM349.863 186.484C359.63 184.31 365.258 175.006 366.699 165.953C368.157 156.797 365.693 146.002 357.103 139.827L352.107 146.777C357.277 150.494 359.369 157.556 358.246 164.607C357.107 171.761 353.019 177.012 348.003 178.129L349.863 186.484ZM352.371 182.816C352.635 184.574 351.483 186.123 349.863 186.484L348.003 178.129C345.352 178.719 343.486 181.282 343.906 184.084L352.371 182.816ZM299.127 221.391C312.343 225.428 326.809 225.284 337.579 219.175C343.035 216.079 347.486 211.469 350.178 205.255C352.857 199.071 353.682 191.568 352.371 182.817L343.906 184.084C345.034 191.617 344.234 197.442 342.324 201.852C340.427 206.231 337.322 209.479 333.355 211.73C325.278 216.312 313.425 216.808 301.627 213.205L299.127 221.391ZM303.35 218.015C303.528 220.047 301.619 222.152 299.127 221.391L301.627 213.205C297.78 212.029 294.521 215.319 294.823 218.763L303.35 218.015ZM228.604 240.307C233.118 245.162 240.369 247.954 247.958 249.229C255.678 250.526 264.411 250.372 272.577 248.749C280.702 247.135 288.623 243.994 294.437 239.015C300.381 233.925 304.126 226.863 303.35 218.015L294.823 218.763C295.319 224.419 293.074 228.913 288.869 232.514C284.533 236.227 278.146 238.916 270.909 240.354C263.712 241.784 256.026 241.905 249.377 240.788C242.596 239.648 237.527 237.334 234.873 234.479L228.604 240.307ZM233.38 240.284C232.062 241.722 229.864 241.662 228.604 240.307L234.873 234.479C232.799 232.248 229.196 232.181 227.071 234.5L233.38 240.284ZM174.158 240.327C180.989 248.331 192.003 252.425 202.908 252.589C213.861 252.753 225.416 248.97 233.38 240.284L227.071 234.5C221.089 241.024 212.082 244.166 203.037 244.03C193.944 243.893 185.525 240.461 180.668 234.77L174.158 240.327ZM178.527 240.896C177.124 241.864 175.243 241.598 174.158 240.327L180.668 234.77C178.926 232.728 175.899 232.308 173.663 233.852L178.527 240.896ZM126.652 231.67C132.228 240.739 140.512 246.397 149.913 248.03C159.282 249.658 169.361 247.225 178.527 240.896L173.663 233.852C166.071 239.095 158.23 240.787 151.378 239.597C144.56 238.412 138.324 234.311 133.943 227.187L126.652 231.67ZM130.042 233.191C128.7 233.43 127.363 232.827 126.652 231.67L133.943 227.187C132.815 225.353 130.669 224.386 128.544 224.764L130.042 233.191ZM88.5475 204.441C92.9552 216.506 97.5913 225.011 104.388 229.771C111.428 234.701 119.842 235.003 130.042 233.191L128.544 224.764C119.095 226.443 113.523 225.718 109.298 222.76C104.832 219.632 100.93 213.39 96.5874 201.504L88.5475 204.441ZM92.6036 206.452C91.047 206.946 89.1942 206.211 88.5475 204.441L96.5874 201.504C95.5757 198.735 92.5879 197.478 90.0174 198.293L92.6036 206.452ZM68.1472 198.579C74.457 204.933 83.3333 209.391 92.6036 206.452L90.0174 198.293C85.0916 199.854 79.4135 197.777 74.2209 192.548L68.1472 198.579ZM8.97575 325.016C28.67 275.593 52.3853 232.412 74.7747 197.893L67.5934 193.235C44.9419 228.158 20.9531 271.836 1.02425 321.847L8.97575 325.016ZM3.22938 304.096C2.85581 312.897 2.58801 317.923 1.02425 321.847L8.97575 325.016C11.2 319.434 11.4312 312.706 11.7812 304.459L3.22938 304.096ZM48.3984 133.982C6.27721 234.213 4.26765 279.636 3.22938 304.096L11.7812 304.459C12.7787 280.961 14.5828 236.543 56.2895 137.298L48.3984 133.982ZM60.3428 108.045C56.2738 110.855 53.3832 115.211 51.4471 119.918C49.4957 124.662 48.3865 130.064 48.0717 135.387L56.6163 135.892C56.8844 131.359 57.8269 126.909 59.3633 123.174C60.9151 119.401 62.9485 116.648 65.2071 115.088L60.3428 108.045ZM60.4739 106.231C59.9327 107.435 59.3968 108.633 58.8659 109.824L66.684 113.309C67.2114 112.125 67.7439 110.935 68.2817 109.738L60.4739 106.231ZM74.0959 58.9139C68.852 58.8468 64.9798 62.3134 62.4475 66.1285C59.8605 70.0258 58.0589 75.1205 57.0134 80.345C55.9605 85.6066 55.6163 91.2893 56.1488 96.5104C56.6723 101.643 58.0912 106.794 60.973 110.578L67.7826 105.391C66.2531 103.383 65.1106 100.019 64.6642 95.6419C64.2269 91.3537 64.5045 86.5326 65.4066 82.0245C66.3161 77.4792 67.8027 73.5382 69.579 70.8622C71.4097 68.1041 72.9757 67.4598 73.9864 67.4727L74.0959 58.9139ZM71.1788 62.6729C70.8811 61.423 71.3732 60.4226 71.8363 59.8962C72.2903 59.3803 73.0629 58.9007 74.0959 58.9139L73.9864 67.4727C75.7938 67.4959 77.3066 66.6368 78.2623 65.5507C79.2272 64.4542 79.9826 62.6927 79.5054 60.6895L71.1788 62.6729ZM102.497 25.6401C97.7915 22.4125 92.7368 22.4389 88.2967 24.5318C84.112 26.5044 80.5835 30.2222 77.8778 34.3255C75.133 38.4882 72.9941 43.4086 71.7604 48.2815C70.5398 53.1026 70.119 58.2239 71.1788 62.6729L79.5054 60.6894C78.8753 58.0443 79.0376 54.4135 80.0582 50.3822C81.0657 46.4026 82.8261 42.3703 85.0237 39.0374C87.2604 35.6453 89.7173 33.325 91.9463 32.2743C93.9199 31.344 95.7069 31.3621 97.6561 32.6989L102.497 25.6401ZM97.6563 27.3147C98.3669 25.1129 100.854 24.513 102.497 25.6401L97.6561 32.6989C100.468 34.6272 104.656 33.4936 105.802 29.9438L97.6563 27.3147ZM144.873 13.472C138.16 6.77769 127.648 5.7991 118.705 8.31708C109.663 10.8632 100.881 17.3249 97.6563 27.3147L105.802 29.9438C107.923 23.3712 113.963 18.5451 121.026 16.5562C128.189 14.5392 135.064 15.7784 138.83 19.5331L144.873 13.472ZM139.953 13.9394C141.118 12.2347 143.474 12.0763 144.873 13.472L138.83 19.533C141.159 21.856 145.11 21.5601 147.018 18.7715L139.953 13.9394ZM198.929 13.5857C196.201 8.93358 191.664 5.71493 186.645 3.68511C181.604 1.64666 175.798 0.685678 170.037 0.721163C158.781 0.790498 146.244 4.74046 139.953 13.9393L147.018 18.7716C151.04 12.8905 160.159 9.34174 170.09 9.28057C174.923 9.2508 179.593 10.0666 183.436 11.6204C187.3 13.1829 190.054 15.372 191.546 17.9164L198.929 13.5857ZM193.798 13.0888C195.316 11.3879 197.875 11.7887 198.929 13.5857L191.546 17.9164C193.33 20.9567 197.704 21.5654 200.183 18.7893L193.798 13.0888ZM249.878 13.4752C247.42 9.381 243.241 6.58331 238.691 4.81102C234.093 3.02028 228.743 2.12247 223.357 2.07594C212.783 1.9846 200.838 5.20274 193.798 13.0888L200.183 18.7893C204.934 13.4672 213.997 10.555 223.283 10.6352C227.827 10.6744 232.12 11.4379 235.584 12.7869C239.095 14.1544 241.395 15.975 242.539 17.8806L249.878 13.4752ZM244.996 12.7453C246.663 11.2775 248.946 11.924 249.878 13.4753L242.539 17.8806C244.144 20.5556 248.001 21.5038 250.652 19.1698L244.996 12.7453ZM300.975 23.3991C290.602 2.83639 262.454 -2.6242 244.996 12.7453L250.652 19.1698C263.925 7.48408 285.496 11.7191 293.333 27.2545L300.975 23.3991ZM295.938 22.4083C297.471 21.0638 299.973 21.4125 300.975 23.3992L293.333 27.2545C294.935 30.4294 299.047 31.0658 301.581 28.8438L295.938 22.4083ZM342.722 46.3178C342.196 34.4742 334.564 25.0178 325.377 20.2402C316.23 15.4835 304.499 14.9001 295.938 22.4083L301.581 28.8438C306.709 24.3467 314.376 24.1672 321.428 27.8343C328.439 31.4804 333.806 38.4675 334.171 46.6978L342.722 46.3178ZM339.769 43.2317C341.311 43.3606 342.646 44.6076 342.722 46.318L334.171 46.6976C334.294 49.4528 336.472 51.5453 339.056 51.7614L339.769 43.2317ZM361.758 99.9187C369.946 87.9605 368.342 74.0205 363.188 63.3507C360.597 57.9876 357.027 53.2412 353.061 49.709C349.16 46.2356 344.519 43.6291 339.769 43.2317L339.056 51.7614C341.273 51.947 344.231 53.308 347.368 56.1015C350.439 58.8362 353.346 62.6561 355.48 67.0737C359.775 75.9653 360.61 86.4444 354.696 95.0829L361.758 99.9187Z" fill="#1B0C0C"/>
</svg>
