<svg width="170" height="498" viewBox="0 0 170 498" fill="none" xmlns="http://www.w3.org/2000/svg">
<path d="M168.383 412.405C168.383 415.689 166.395 419.048 162.265 422.314C158.151 425.567 152.108 428.561 144.509 431.103C129.327 436.181 108.261 439.347 84.9236 439.347C61.5866 439.347 40.5198 436.181 25.338 431.103C17.7395 428.561 11.6959 425.567 7.58194 422.314C3.45202 419.048 1.4642 415.689 1.4642 412.405C1.4642 409.122 3.45202 405.763 7.58194 402.497C11.6959 399.244 17.7395 396.25 25.338 393.708C40.5198 388.63 61.5866 385.464 84.9236 385.464C108.261 385.464 129.327 388.63 144.509 393.708C152.108 396.25 158.151 399.244 162.265 402.497C166.395 405.763 168.383 409.122 168.383 412.405ZM164.082 424.611C165.781 423.267 167.235 421.838 168.383 420.332V469.216C168.383 472.5 166.395 475.859 162.265 479.125C158.151 482.378 152.108 485.372 144.509 487.914C129.327 492.992 108.261 496.158 84.9236 496.158C61.5866 496.158 40.5198 492.992 25.338 487.914C17.7395 485.372 11.6959 482.378 7.58194 479.125C3.45202 475.859 1.4642 472.5 1.4642 469.216V420.332C2.61243 421.838 4.06578 423.267 5.76549 424.611C10.2462 428.154 16.6394 431.281 24.4091 433.88C39.9636 439.082 61.3586 442.275 84.9236 442.275C108.489 442.275 129.884 439.082 145.438 433.88C153.208 431.281 159.601 428.154 164.082 424.611Z" fill="#FF123D" stroke="#1B0C0C" stroke-width="2.9284"/>
<mask id="mask0_370_4327" style="mask-type:alpha" maskUnits="userSpaceOnUse" x="3" y="393" width="164" height="102">
<path d="M3 416.771C3 402.964 40.2649 393.771 85 393.771C129.735 393.771 167 403.964 167 417.771M4.4642 424.291C4.98392 424.931 5.57281 425.562 6.23086 426.181C9.34687 429.114 14.0755 431.856 20.6182 434.27C33.7057 439.099 54.3847 442.733 84.952 443.735L84.976 443.736H85C105.36 443.736 125.998 441.05 141.589 436.607C149.374 434.389 155.984 431.709 160.682 428.652C162.589 427.41 164.246 426.062 165.536 424.61V468.771C165.536 471.525 163.667 474.495 159.611 477.479C155.595 480.434 149.704 483.193 142.329 485.555C127.596 490.273 107.251 493.307 85 493.307C62.7544 493.307 42.4134 490.149 27.6815 485.308C20.3073 482.885 14.4151 480.064 10.3978 477.064C6.33885 474.032 4.4642 471.03 4.4642 468.271V424.291Z" fill="#FF123D" stroke="#20130A" stroke-width="2.9284"/>
</mask>
<g mask="url(#mask0_370_4327)">
<path d="M-191 518.106L41.6366 712.041M-173.727 505.347L58.9101 699.282M-156.453 492.588L76.1835 686.523M-139.18 479.829L93.4569 673.764M-121.906 467.07L110.73 661.005M-104.633 454.312L128.004 648.247M-87.3594 441.553L145.277 635.488M-70.0859 428.794L162.551 622.728M-52.8125 416.035L179.824 609.97M-35.5391 403.276L197.098 597.211M-18.2656 390.517L214.371 584.452M-0.992188 377.758L231.644 571.693M16.2812 365L248.918 558.935M31.5 350.271L264.137 544.206M50.8281 339.481L283.465 533.416M68.1016 326.723L300.738 520.658M85.3755 313.964L318.012 507.899" stroke="white" stroke-width="5"/>
</g>
<path d="M84.9236 441.275C108.489 441.275 129.884 438.082 145.438 432.88C153.208 430.281 159.601 427.154 164.082 423.61C165.781 422.266 167.235 420.838 168.383 419.332V468.216C168.383 471.499 166.395 474.858 162.265 478.124C158.151 481.378 152.108 484.372 144.509 486.913C129.327 491.991 108.261 495.158 84.9236 495.158C61.5866 495.158 40.5198 491.991 25.338 486.913C17.7395 484.372 11.6959 481.378 7.58194 478.124C3.45202 474.858 1.4642 471.499 1.4642 468.216V419.332C2.61243 420.838 4.06578 422.266 5.76549 423.61C10.2462 427.154 16.6394 430.281 24.4091 432.88C39.9636 438.082 61.3586 441.275 84.9236 441.275Z" stroke="#1B0C0C" stroke-width="2.9284"/>
<path d="M145.578 115.965C145.578 122.881 139.341 129.621 128.125 134.717C117.041 139.753 101.626 142.906 84.5213 142.906C67.4163 142.906 52.0014 139.753 40.9177 134.717C29.7016 129.621 23.4642 122.881 23.4642 115.965C23.4642 109.048 29.7016 102.308 40.9177 97.2119C52.0014 92.1762 67.4163 89.0233 84.5213 89.0233C101.626 89.0233 117.041 92.1762 128.125 97.2119C139.341 102.308 145.578 109.048 145.578 115.965ZM23.4642 125.04C26.7183 129.904 32.4798 134.1 39.7064 137.383C51.251 142.628 67.0968 145.834 84.5213 145.834C101.946 145.834 117.792 142.628 129.336 137.383C136.563 134.1 142.324 129.904 145.578 125.04V394.309C145.578 401.225 139.341 407.966 128.125 413.062C117.041 418.097 101.626 421.25 84.5213 421.25C67.4163 421.25 52.0014 418.097 40.9177 413.062C29.7016 407.966 23.4642 401.225 23.4642 394.309V125.04Z" fill="white" stroke="#1B0C0C" stroke-width="2.9284"/>
<circle cx="84.3742" cy="208.795" r="46.2687" fill="#FF123D"/>
<circle cx="84.3749" cy="208.795" r="38.0692" fill="white"/>
<path d="M98.7245 219.148C98.7245 224.866 91.7102 229.501 83.0576 229.501C74.405 229.501 67.3906 224.866 67.3906 219.148C67.3906 213.43 74.405 208.795 83.0576 208.795C91.7102 208.795 98.7245 213.43 98.7245 219.148Z" fill="#FF123D"/>
<path d="M98.7245 219.148C98.7245 224.866 91.7102 229.501 83.0576 229.501C74.405 229.501 67.3906 224.866 67.3906 219.148V242.641L68.4423 246.378L74.3947 267.528C74.3947 271.157 78.2732 274.098 83.0576 274.098C87.842 274.098 91.7205 271.157 91.7205 267.528L97.6728 246.378L98.7245 242.641V219.148Z" fill="#FF123D"/>
<path d="M98.7245 219.148C98.7245 224.866 91.7102 229.501 83.0576 229.501C74.405 229.501 67.3906 224.866 67.3906 219.148M98.7245 219.148C98.7245 213.43 91.7102 208.795 83.0576 208.795C74.405 208.795 67.3906 213.43 67.3906 219.148M98.7245 219.148V242.641M67.3906 219.148V242.641M98.7245 242.641L97.6728 246.378M98.7245 242.641C98.7245 243.959 98.352 245.219 97.6728 246.378M67.3906 242.641C67.3906 243.959 67.7631 245.219 68.4423 246.378M67.3906 242.641L68.4423 246.378M97.6728 246.378L91.7205 267.528C91.7205 271.157 87.842 274.098 83.0576 274.098C78.2732 274.098 74.3947 271.157 74.3947 267.528L68.4423 246.378" stroke="#1B0C0C" stroke-width="2.9284"/>
<path d="M111.32 197.561C111.32 197.561 111.32 197.563 111.318 197.568C111.319 197.563 111.32 197.561 111.32 197.561ZM111.145 197.384C111.244 197.487 111.288 197.556 111.307 197.594C111.288 197.631 111.244 197.7 111.145 197.803C110.923 198.034 110.522 198.327 109.879 198.651C108.596 199.296 106.645 199.919 104.113 200.458C99.0733 201.531 92.0423 202.206 84.2287 202.206C76.415 202.206 69.384 201.531 64.3442 200.458C61.8123 199.919 59.8612 199.296 58.5786 198.651C57.9349 198.327 57.534 198.034 57.3123 197.803C57.2132 197.7 57.169 197.631 57.1501 197.594C57.169 197.556 57.2132 197.487 57.3123 197.384C57.534 197.153 57.9349 196.86 58.5786 196.536C59.8612 195.891 61.8123 195.268 64.3442 194.729C69.384 193.656 76.415 192.981 84.2287 192.981C92.0423 192.981 99.0733 193.656 104.113 194.729C106.645 195.268 108.596 195.891 109.879 196.536C110.522 196.86 110.923 197.153 111.145 197.384ZM57.1372 197.561C57.1374 197.561 57.1383 197.563 57.1392 197.568C57.1374 197.563 57.137 197.561 57.1372 197.561ZM111.195 201.267C111.236 201.246 111.276 201.226 111.316 201.205V209.726C111.305 209.754 111.266 209.83 111.145 209.956C110.923 210.187 110.522 210.48 109.879 210.804C108.596 211.449 106.645 212.072 104.113 212.611C99.0733 213.684 92.0423 214.359 84.2287 214.359C76.415 214.359 69.384 213.684 64.3442 212.611C61.8123 212.072 59.8612 211.449 58.5786 210.804C57.9349 210.48 57.534 210.187 57.3123 209.956C57.1911 209.83 57.152 209.754 57.141 209.726V201.205C57.1812 201.226 57.2217 201.246 57.2624 201.267C58.8694 202.075 61.0997 202.762 63.7346 203.322C69.0286 204.449 76.2735 205.134 84.2287 205.134C92.1838 205.134 99.4287 204.449 104.723 203.322C107.358 202.762 109.588 202.075 111.195 201.267ZM111.32 209.714C111.32 209.714 111.32 209.716 111.318 209.721C111.319 209.716 111.32 209.714 111.32 209.714ZM57.1372 209.714C57.1374 209.714 57.1383 209.716 57.1392 209.721C57.1374 209.716 57.137 209.714 57.1372 209.714Z" fill="white" stroke="#1B0C0C" stroke-width="2.9284"/>
<path d="M100.875 186.021C101.368 186.312 101.553 186.518 101.62 186.613C101.553 186.707 101.368 186.913 100.875 187.204C100.086 187.671 98.8461 188.142 97.1858 188.557C93.8878 189.382 89.2541 189.907 84.0815 189.907C78.9089 189.907 74.2751 189.382 70.9771 188.557C69.3168 188.142 68.0771 187.671 67.2877 187.204C66.7949 186.913 66.6099 186.707 66.5428 186.613C66.6099 186.518 66.7949 186.312 67.2877 186.021C68.0771 185.554 69.3168 185.083 70.9771 184.668C74.2751 183.844 78.9089 183.318 84.0815 183.318C89.2541 183.318 93.8878 183.844 97.1858 184.668C98.8461 185.083 100.086 185.554 100.875 186.021ZM97.8961 191.398C99.3312 191.039 100.613 190.61 101.652 190.107V196.079C101.629 196.123 101.497 196.354 100.875 196.722C100.086 197.188 98.8461 197.659 97.1858 198.074C93.8878 198.899 89.2541 199.424 84.0815 199.424C78.9089 199.424 74.2751 198.899 70.9771 198.074C69.3168 197.659 68.0771 197.188 67.2877 196.722C66.6662 196.354 66.5343 196.123 66.5111 196.079V190.107C67.5495 190.61 68.8317 191.039 70.2669 191.398C73.858 192.296 78.7416 192.836 84.0815 192.836C89.4214 192.836 94.3049 192.296 97.8961 191.398Z" fill="white" stroke="#1B0C0C" stroke-width="2.9284"/>
<path d="M84.3746 108.516C94.0732 108.516 102.051 105.433 103.018 101.481C103.083 101.216 103.116 100.946 103.116 100.673C103.116 96.3414 94.7254 92.8301 84.3746 92.8301C74.0238 92.8301 65.6328 96.3414 65.6328 100.673C65.6328 100.938 65.6643 101.2 65.7257 101.459C66.6677 105.421 74.6576 108.516 84.3746 108.516Z" fill="#FF123D"/>
<path fill-rule="evenodd" clip-rule="evenodd" d="M103.116 100.673C103.116 100.946 103.083 101.216 103.018 101.481L103.116 100.673ZM65.6328 100.673L65.7257 101.459C65.6643 101.2 65.6328 100.938 65.6328 100.673Z" fill="#FF123D"/>
<path d="M84.3746 185.368C94.7254 185.368 93.7674 181.856 93.7674 177.525L103.018 101.481C102.051 105.433 94.0732 108.516 84.3746 108.516C74.6576 108.516 66.6677 105.421 65.7257 101.459L74.7184 177.525C74.7184 181.856 74.0238 185.368 84.3746 185.368Z" fill="white"/>
<path d="M101.651 100.597L101.576 101.206C101.418 101.767 100.984 102.421 100.135 103.113C99.2564 103.83 98.0164 104.517 96.4505 105.112C93.321 106.301 89.0839 107.052 84.3746 107.052C79.6562 107.052 75.412 106.298 72.2809 105.105C70.7142 104.508 69.4753 103.819 68.599 103.101C67.7524 102.407 67.323 101.752 67.1685 101.191L67.0985 100.599C67.121 100.04 67.4018 99.3868 68.1354 98.661C68.9069 97.8978 70.0979 97.1431 71.6874 96.4779C74.8601 95.1502 79.3449 94.2943 84.3746 94.2943C89.4043 94.2943 93.889 95.1502 97.0618 96.4779C98.6513 97.1431 99.8423 97.8978 100.614 98.661C101.346 99.3859 101.627 100.038 101.651 100.597ZM97.4908 107.849C98.7908 107.355 99.9709 106.776 100.979 106.116L92.3139 177.348L92.3032 177.436V177.525C92.3032 177.937 92.3101 178.31 92.3164 178.656C92.3287 179.324 92.3392 179.895 92.2954 180.466C92.2334 181.274 92.0699 181.803 91.7772 182.197C91.4943 182.578 90.9587 183.009 89.8004 183.345C88.6233 183.687 86.8978 183.903 84.3746 183.903C79.2063 183.903 77.4666 182.99 76.8143 182.163C76.493 181.756 76.3098 181.221 76.2281 180.428C76.1638 179.803 76.17 179.151 76.1774 178.374C76.1799 178.107 76.1826 177.825 76.1826 177.525V177.438L76.1725 177.353L67.7491 106.103C68.7569 106.765 69.9374 107.346 71.2381 107.841C74.7667 109.186 79.3759 109.98 84.3746 109.98C89.3638 109.98 93.965 109.189 97.4908 107.849Z" stroke="#1B0C0C" stroke-width="2.9284"/>
<circle cx="84.5211" cy="56.3717" r="56.3717" fill="#FF123D"/>
<circle cx="83.0574" cy="56.3714" r="42.6082" fill="white"/>
</svg>
