<svg width="1435" height="1528" viewBox="0 0 1435 1528" fill="none" xmlns="http://www.w3.org/2000/svg">
<path d="M1230.99 884L1231.5 1002M1183 943H1281M1196.5 907.5L1218.5 929.5M1244 954L1266 976M1266 907L1244 929M1218.5 954L1196.5 976" stroke="white" stroke-width="5"/>
<path d="M694.991 138L695.5 256M647 197H745M660.5 161.5L682.5 183.5M708 208L730 230M730 161L708 183M682.5 208L660.5 230" stroke="white" stroke-width="5"/>
<path d="M1266.63 234L1267.3 388M1204 311H1331.9M1221.62 264.669L1250.33 293.381M1283.61 325.356L1312.32 354.068M1312.32 264.017L1283.61 292.729M1250.33 325.356L1221.62 354.068" stroke="white" stroke-width="6.52542"/>
<path d="M257.461 752L257.985 873.612M208 812.806H309M221.913 776.219L244.587 798.893M270.867 824.143L293.541 846.816M293.541 775.704L270.867 798.378M244.587 824.143L221.913 846.816" stroke="white" stroke-width="5.15306"/>
<path d="M165.633 344L166.297 498M103 421H230.898M120.619 374.669L149.331 403.381M182.61 435.356L211.322 464.068M211.322 374.017L182.61 402.729M149.331 435.356L120.619 464.068" stroke="white" stroke-width="6.52542"/>
</svg>
