<svg width="399" height="298" viewBox="0 0 399 298" fill="none" xmlns="http://www.w3.org/2000/svg">
<path fill-rule="evenodd" clip-rule="evenodd" d="M225.501 286.87C225.501 296.046 236.391 300.862 243.179 294.688L395.422 156.224C400.04 152.025 400.031 144.76 395.404 140.571L243.161 2.75415C236.367 -3.39597 225.501 1.42483 225.501 10.5889L225.501 54.6711C225.501 61.3731 219.342 66.3824 212.781 65.0179L12.7199 23.4128C6.15831 22.0483 -9.91915e-07 27.0577 -1.28487e-06 33.7597L-1.13071e-05 263.042C-1.15963e-05 269.657 6.00707 274.645 12.5089 273.431L212.992 235.978C219.494 234.763 225.501 239.752 225.501 246.366L225.501 286.87Z" fill="white"/>
<circle cx="10" cy="10" r="8.84615" transform="matrix(-1 0 0 1 247 2.76758)" fill="#1B0C0C" stroke="#1B0C0C" stroke-width="2.30769"/>
<circle cx="10" cy="10" r="8.84615" transform="matrix(-1 0 0 1 281 32.7676)" fill="#1B0C0C" stroke="#1B0C0C" stroke-width="2.30769"/>
<circle cx="10" cy="10" r="8.84615" transform="matrix(-1 0 0 1 313 62.7676)" fill="#1B0C0C" stroke="#1B0C0C" stroke-width="2.30769"/>
<circle cx="10" cy="10" r="8.84615" transform="matrix(-1 0 0 1 345 91.7676)" fill="#1B0C0C" stroke="#1B0C0C" stroke-width="2.30769"/>
<circle cx="10" cy="10" r="8.84615" transform="matrix(-1 0 0 1 376 121.768)" fill="#1B0C0C" stroke="#1B0C0C" stroke-width="2.30769"/>
<circle cx="10" cy="10" r="8.84615" transform="matrix(-1 0 0 1 378 150.768)" fill="#1B0C0C" stroke="#1B0C0C" stroke-width="2.30769"/>
<circle cx="10" cy="10" r="8.84615" transform="matrix(-1 0 0 1 347 179.768)" fill="#1B0C0C" stroke="#1B0C0C" stroke-width="2.30769"/>
<circle cx="10" cy="10" r="8.84615" transform="matrix(-1 0 0 1 313 210.768)" fill="#1B0C0C" stroke="#1B0C0C" stroke-width="2.30769"/>
<circle cx="10" cy="10" r="8.84615" transform="matrix(-1 0 0 1 281 239.768)" fill="#1B0C0C" stroke="#1B0C0C" stroke-width="2.30769"/>
<circle cx="10" cy="10" r="8.84615" transform="matrix(-1 0 0 1 247 271.768)" fill="#1B0C0C" stroke="#1B0C0C" stroke-width="2.30769"/>
<circle cx="10" cy="10" r="8.84615" transform="matrix(-1 0 0 1 249 228.768)" fill="#1B0C0C" stroke="#1B0C0C" stroke-width="2.30769"/>
<circle cx="10" cy="10" r="8.84615" transform="matrix(-0.999756 -0.0220986 -0.0220986 0.999756 220.438 210.209)" fill="#1B0C0C" stroke="#1B0C0C" stroke-width="2.30769"/>
<circle cx="10" cy="10" r="8.84615" transform="matrix(-0.999756 -0.0220986 -0.0220986 0.999756 170.481 220.231)" fill="#1B0C0C" stroke="#1B0C0C" stroke-width="2.30769"/>
<circle cx="10" cy="10" r="8.84615" transform="matrix(-0.999756 -0.0220986 -0.0220986 0.999756 126.271 229.257)" fill="#1B0C0C" stroke="#1B0C0C" stroke-width="2.30769"/>
<circle cx="10" cy="10" r="8.84615" transform="matrix(-0.999756 -0.0220986 -0.0220986 0.999756 82.0605 238.282)" fill="#1B0C0C" stroke="#1B0C0C" stroke-width="2.30769"/>
<circle cx="10" cy="10" r="8.84615" transform="matrix(-0.999756 -0.0220986 -0.0220986 0.999756 42 248.209)" fill="#1B0C0C" stroke="#1B0C0C" stroke-width="2.30769"/>
<circle cx="10" cy="10" r="8.84615" transform="matrix(-0.999756 -0.0220986 -0.0220986 0.999756 24 227.209)" fill="#1B0C0C" stroke="#1B0C0C" stroke-width="2.30769"/>
<circle cx="10" cy="10" r="8.84615" transform="matrix(-0.999756 -0.0220986 -0.0220986 0.999756 24 182.209)" fill="#1B0C0C" stroke="#1B0C0C" stroke-width="2.30769"/>
<circle cx="10" cy="10" r="8.84615" transform="matrix(-0.999756 -0.0220986 -0.0220986 0.999756 24 136.209)" fill="#1B0C0C" stroke="#1B0C0C" stroke-width="2.30769"/>
<circle cx="10" cy="10" r="8.84615" transform="matrix(-0.999756 -0.0220986 -0.0220986 0.999756 24 90.209)" fill="#1B0C0C" stroke="#1B0C0C" stroke-width="2.30769"/>
<circle cx="10" cy="10" r="8.84615" transform="matrix(-0.999756 -0.0220986 -0.0220986 0.999756 24 53.209)" fill="#1B0C0C" stroke="#1B0C0C" stroke-width="2.30769"/>
<circle cx="10" cy="10" r="8.84615" transform="matrix(-0.999756 -0.0220986 -0.0220986 0.999756 41 29.209)" fill="#1B0C0C" stroke="#1B0C0C" stroke-width="2.30769"/>
<circle cx="10" cy="10" r="8.84615" transform="matrix(-0.999756 -0.0220986 -0.0220986 0.999756 82 37.209)" fill="#1B0C0C" stroke="#1B0C0C" stroke-width="2.30769"/>
<circle cx="10" cy="10" r="8.84615" transform="matrix(-0.999756 -0.0220986 -0.0220986 0.999756 128 47.209)" fill="#1B0C0C" stroke="#1B0C0C" stroke-width="2.30769"/>
<circle cx="10" cy="10" r="8.84615" transform="matrix(-0.999756 -0.0220986 -0.0220986 0.999756 174 57.209)" fill="#1B0C0C" stroke="#1B0C0C" stroke-width="2.30769"/>
<circle cx="10" cy="10" r="8.84615" transform="matrix(-0.999756 -0.0220986 -0.0220986 0.999756 220 67.209)" fill="#1B0C0C" stroke="#1B0C0C" stroke-width="2.30769"/>
<circle cx="10" cy="10" r="8.84615" transform="matrix(-0.999756 -0.0220986 -0.0220986 0.999756 247 47.209)" fill="#1B0C0C" stroke="#1B0C0C" stroke-width="2.30769"/>
</svg>
